<?xml version="1.0" encoding="utf-8"?>
<!-- Generator: Adobe Illustrator 22.1.0, SVG Export Plug-In . SVG Version: 6.00 Build 0)  -->
<svg version="1.2" baseProfile="tiny" id="Layer_1" xmlns="http://www.w3.org/2000/svg" xmlns:xlink="http://www.w3.org/1999/xlink"
	 x="0px" y="0px" width="273.4px" height="460.7px" viewBox="0 0 273.4 460.7" xml:space="preserve">
<path d="M241.7,282.5c4.5,4.9,9,9.6,15.6,11.2c1.8,0.5,1.9,1.7,0.9,3.5c-1.1,2-2.7,3.9-4.5,5.2c-4.3,3.2-9.2,5-14.6,5.6
	c-0.2,0-0.3,0.1-0.7,0.1c0.5,0.7,0.9,1.3,1.4,1.9c3,4,6.4,7.6,10.4,10.6c1.6,1.2,3.4,2.2,5.3,3.1c1.7,0.9,2.2,2.7,0.7,3.9
	c-1.5,1.3-3.2,2.4-4.9,3.4c-5,2.7-10.4,4.2-16.1,3.8c-1.4-0.1-2.7-0.4-4.3-0.7c1.1,1.6,2,3.1,3.1,4.4c3.2,3.8,6.5,7.5,9.7,11.2
	c1,1.1,0.8,2.6-0.8,3.7c-2.7,1.8-5.7,3.1-8.9,3.4c-2.6,0.2-5.2,0-8,0c0,1.5,0.2,3.2,0,4.9c-0.7,5.4-1.5,10.8-2.3,16.3
	c-1,7.2-2.2,14.4-3.1,21.6c-0.6,5.4,0.4,10.5,3.4,15.1c0.3,0.5,0.7,1,1.1,1.4c0.8,0.9,1.3,1.8,0.4,2.7c2,1.7,4,3.3,5.8,5.1
	c3.2,3.3,5.3,7.2,5.2,12c-0.1,3.5-1.5,6.3-3.8,8.8c-3.4,3.6-7.7,5.6-12.4,6.6c-16,3.4-30.8,0.7-44.2-8.9c-3.1-2.2-5.7-5-7.5-8.5
	c-2.1-4.2-2.4-8.5-0.1-12.7c0.1-0.1,0.1-0.3,0.2-0.5c-0.6,0-1.1,0.1-1.6,0.1c-1.6,0.1-2.3-0.8-1.7-2.4c0.1-0.4,0.3-0.8,0.5-1.2
	c2.6-5,4.2-10.2,4.5-15.8c0.3-4.5,0.8-9,0.3-13.5c-0.4-3.3-1.1-6.4-2.2-9.7c-4.6,3.1-9.8,4.2-15,4.9c-5.2,0.7-10.5,0.9-16,1.3
	c0.1,1.3,0.2,2.9,0.3,4.5c0.8,9.7,3.2,19,6.7,28c0.6,1.7,1.5,3.3,2.4,4.8c1.1,1.7,0.8,2.5-1.2,2.9c-0.2,0-0.4,0.1-0.6,0.1
	c0,1.3,0.1,2.6,0,3.9c-0.5,5.7-2.9,10.5-6.5,14.8c-8.3,9.6-18.7,15.3-31.3,17c-4.7,0.6-9.4,0.3-14-1.4c-8.9-3.3-12.8-11.1-10.1-20.2
	c1.1-3.7,3-7,5.4-9.9c0.3-0.3,0.5-0.7,0.9-1.1c-0.7-0.2-1.3-0.4-1.9-0.6c-1-0.4-1.4-1.2-1.1-2.2c0.1-0.3,0.2-0.6,0.3-0.9
	c3.4-6.5,3.8-13.4,2.6-20.5c-0.9-5.6-3.3-10.4-6.1-15.3c-4-7.1-7.7-14.3-9.8-22.2c-0.2-0.9-0.4-1.9-0.6-2.9
	c-1.5,0.3-2.9,0.6-4.3,0.9c-4,1-7.9,0.3-11.6-1.3c-1-0.4-2-0.9-2.9-1.4c-1.5-0.8-1.8-2.1-0.5-3.3c5.4-5.2,8.7-11.8,12.3-18.2
	c0.1-0.1,0.1-0.3,0.3-0.6c-0.4,0.2-0.7,0.2-0.9,0.4c-3.3,1.6-6.9,2.8-10.5,3.1c-3.7,0.4-7.5-0.1-11.1-1.2c-1-0.3-1.9-0.6-2.8-1.1
	c-1.4-0.8-1.5-1.8-0.4-3c3.3-3.7,6.8-7.3,10-11.2c3.6-4.4,6.1-9.4,8.3-14.7c-0.5,0.3-1.1,0.6-1.6,0.9c-5.9,3.2-12.1,4.4-18.7,3.2
	c-1.2-0.2-2.5-0.6-3.6-1.2c-0.8-0.4-1.5-1.1-2-1.8c-0.6-0.8-0.4-1.6,0.5-2.1c0.4-0.2,0.8-0.5,1.1-0.9c4-5.1,8.2-10.1,10.9-16.2
	c2.1-4.6,3.1-9.5,3.9-14.4c1.2-7.9,1.3-15.8,1.2-23.8c0-5.2,0.1-10.3,0.4-15.5c0.5-8.6,0.1-17.2-0.2-25.8c-0.1-2.5-1-3.5-3.1-4.6
	c-7-3.6-13.9-7.4-20-12.5c-7.7-6.5-15.1-13.4-20.7-21.9c-3.3-5-5.8-10.3-6.7-16.3c-0.2-1.6-0.1-3.4,0.3-4.9c0.6-2.4,2.4-3.6,4.8-3.7
	c1.8-0.1,3.8,0.1,5.6,0.5c11.2,2.7,22.5,5.4,33.9,7.1c2.5,0.4,5,0.6,7.8,0.9c-0.3-0.3-0.4-0.5-0.5-0.6c-9.5-5.4-14.8-13.6-17-24.2
	c-1.3-6.5-1.8-12.9,0.3-19.3c0.5-1.5,1.2-3,2-4.4c0.7-1.1,1.8-1.7,3.2-1.5c1.4,0.2,2.2,1.1,2.6,2.5c1.7,5.8,4.2,11.3,7.7,16.3
	c0.5,0.7,1,1.2,1.5,1.9c0.2,0.3,0.5,0.5,0.9,0.8c0.2-1.6,0.3-3,0.6-4.4c1.5-7.3,8.4-12.9,15.8-12.8c1.4,0,2.9,0.5,4.2,1.1
	c4.2,2,7,5.5,9,9.6c0.5,1,1,1.9,1.4,2.9c1.1-0.6,2.2-1.3,3.4-1.9c-0.1-0.4-0.2-0.9-0.4-1.3C79.6,98.3,72,73.6,64.4,48.9
	c-0.4-1.3-0.8-2.6-1.1-3.9c-0.3-1.5,0.1-2.2,1.5-2.6c4.9-1.3,9.7-2.5,14.7-3.6c34.8-7.7,69.5-15.3,104.3-23
	c23.8-5.2,47.7-10.4,71.5-15.6c2.2-0.5,3.4,0.3,3.8,2.6c0.7,4.1,1.2,8.2,1.7,12.4c1.3,10.6,2.5,21.1,3.8,31.7
	c1.2,9.8,2.3,19.6,3.5,29.4c1.2,10.5,2.5,21,3.7,31.6c0.5,4.4,0.9,8.7,1.5,13.1c0.4,3.1-1.2,4.6-4,5.2c-4.2,0.9-8.4,1.6-12.6,2.4
	c-7.8,1.5-15.5,2.9-23.3,4.4c-0.9,0.2-1.2,0.6-1.5,1.4c-2.3,5.2-5.7,9.7-9,14.3c-3.6,4.9-7.9,9.2-12.4,13.3c-0.5,0.5-1,0.9-1.5,1.4
	c-0.1,0.1-0.1,0.2-0.2,0.3c9.6,3.3,14.3,11.2,18.2,19.9c0.6-1.5,1.2-2.9,1.8-4.3c1.3-3,3.4-5.3,5.7-7.5c0.8-0.7,1.5-1.2,2.7-0.7
	c1.2,0.5,1.4,1.4,1.4,2.5c0.1,4.2,0.6,8.4,1.7,12.6c0.3,0.9,0.6,1.8,1.2,2.7c0.2-0.7,0.5-1.4,0.7-2.1c1.5-4.9,4.8-8.4,9-11.1
	c1.8-1.1,2.8-0.6,3.2,1.5c0.1,0.5,0.1,1,0,1.5c-0.9,7.6-0.8,15.2,1.2,22.6c0.8,3,1.8,5.8,3.5,8.5c3.1,4.7,6,9.6,7.8,15.1
	c1.9,5.9,2.5,12,2.3,18.2c-0.4,9-3.1,17.2-8.3,24.6c-2.6,3.6-5.2,7.2-8.9,9.9C248.9,279.6,245.7,281.7,241.7,282.5z M213.3,297.3
	c0.1-0.1,0.1-0.2,0.2-0.4c-1.7-1.2-3.4-2.3-5.1-3.5c-4.2-3.2-8.9-4.5-14.2-4.3c-0.6,0-1.2,0-1.6-0.2c-0.5-0.3-1.1-0.8-1.2-1.2
	c-0.1-0.4,0.3-1.1,0.6-1.5c0.3-0.4,0.9-0.5,1.4-0.7c3-1,6-2.1,9-3c2-0.6,4-0.9,6.4-1.5c-1.1-0.6-1.9-1.2-2.8-1.5
	c-2.8-0.9-5.7-1.9-8.6-2.5c-3-0.7-6.1-1-9.2-0.5c-1.5,0.2-3,0.6-4.5,0.8c-0.6,0.1-1.5-0.1-1.8-0.5c-0.3-0.4-0.1-1.2,0-1.8
	c0.1-0.5,0.4-1.1,0.4-1.6c0.5-3.8,0.4-7.6-0.3-11.3c-0.4-1.9-1.3-3.7-2-5.5c-0.1,0-0.3,0-0.4,0.1c-0.4,0.6-0.6,1.3-1.1,1.8
	c-1.8,2.2-3.6,4.6-5.6,6.6c-1.7,1.6-3.1,0.9-3.4-1.4c-0.7-5.6-3.9-9.8-8.1-13.6c-0.1,0.4-0.2,0.7-0.3,1c-1,2.4-1.8,4.9-3.1,7.1
	c-9.3,15.1-32.2,20.4-47.2,10.9c-2.7-1.7-5.2-3.8-7-6.5c-0.6-0.8-1.4-2-0.4-2.8c1-0.9,1.8,0.3,2.6,1c1.8,1.6,3.5,3.5,5.5,4.8
	c10.6,6.7,21.6,6.7,32.6,1.1c7.4-3.8,12.2-9.8,14.1-18c0.1-0.2,0.1-0.6,0-0.8c-0.4-0.8-0.5-1.5,0.2-2.2c0.8-0.7,1.7-0.5,2.4,0
	c1.3,0.9,2.5,1.9,3.7,2.9c0.9,0.8,1.7,1.6,2.6,2.4c0.1-0.1,0.2-0.1,0.2-0.1c0-0.4,0-0.7,0.1-1.1c0.4-5.8,2.5-11,6.5-15.2
	c4.1-4.2,8.9-6.6,15-5.5c0,0,0.1-0.1,0.3-0.2c-1.8-2.1-1.1-4.8-1.8-7.2c-1.1,0.5-2.1,1.2-3.2,1.5c-2.7,0.7-5.1-0.1-7.4-1.6
	c-3.1-2.1-5.3-4.9-7.1-8.2c-0.4-0.8-0.8-1.6-1.3-2.4c-1.1,2-2.1,4-3.2,6c-10.1,16.8-29.7,26.7-48.9,23.3
	c-24.3-4.3-38.2-26.3-35.2-49c0.3-2.5,1-4.9,1.5-7.4c-0.2,0-0.5-0.1-0.7-0.1c-0.3,0-0.6,0-0.8,0c-1-0.1-1.5-0.8-1.1-1.8
	c0.1-0.3,0.2-0.5,0.4-0.8c2.7-5,4.3-10.4,5-16c0.3-2.4,0.3-4.9,0.5-7.3c0-0.5,0.6-0.9,0.9-1.4c0.4,0.3,1.1,0.6,1.2,1.1
	c0.3,0.9,0.5,1.9,0.5,2.8c0.2,6.3-1.5,12.3-3.9,18c-0.4,0.9-0.8,1.8-1.3,3c1.2-0.2,2.1-0.3,3-0.6c7.2-2.3,12.6-7,16.7-13.2
	c1.3-2,2-4.3,3.1-6.4c0.3-0.6,0.8-1.4,1.3-1.4c0.5,0,1.2,0.7,1.5,1.2c0.8,1.6,0.6,3.4,0.2,5c-1.2,5.1-3.6,9.5-6.4,13.8
	c-0.2,0.3-0.4,0.7-0.8,1.2c0.6-0.1,0.8-0.1,1.1-0.2c5.3-1.6,9.7-4.4,13.6-8.3c4.4-4.4,7.8-9.4,9.6-15.4c0.3-1,0.8-1.8,1.8-1.8
	c1,0,1.2,1,1.5,1.8c0.9,2.7,1,5.3,0.3,8c-0.6,2.3-1.3,4.5-2.1,6.9c0.6-0.3,1.2-0.6,1.7-0.9c5.1-3,9.4-7,12.9-11.7
	c1.4-1.9,2.6-4,3.7-6.1c0.6-1.1,0.8-2.4,1.2-3.7c-0.6,0-0.9,0-1.2,0.1c-6.9,1.3-13.8,2.6-20.7,3.9c-7.9,1.5-15.9,2.9-23.8,4.3
	c-2.5,0.5-3.5-0.2-4.3-2.6c-2.7-8.7-5.4-17.4-8.1-26.1c-0.1-0.4-0.3-0.8-0.4-1.3c-1.1,0.6-2.1,1.2-3.2,1.8c0.1,0.6,0.2,1,0.3,1.5
	c0.8,4.3,1.5,8.6,0.9,13c-0.6,4.1-1.8,8.1-4.2,11.6c-1.4,2-3,3.8-5.4,4.6c-3.8,1.3-7.6,2-11.7,1.4c-2.1-0.3-4.2-0.6-6.3-0.9
	c-0.1,0.4-0.3,0.8-0.4,1.1c-1.1,5-2.2,9.9-3.1,14.9c-0.7,3.8-1.2,7.7-1.4,11.5c-0.3,5.1-0.1,10.2-0.1,15.4c0,3.8,0.1,7.6,0.2,11.4
	c0.2,5.7,0.5,11.4,0.5,17c-0.1,9.2-0.4,18.5-0.7,27.7c-0.2,5.1-0.3,10.2-0.7,15.3c-0.5,6.4-1.8,12.6-4.1,18.5
	c-2.1,5.3-5,10.1-8.8,14.3c-1.2,1.3-2.2,2.8-3.4,4.3c0.3,0.1,0.5,0.2,0.7,0.2c6.9,1.7,13.4,0.4,19.4-3.3c1.2-0.7,2.3-1.8,3.5-2.5
	c0.5-0.3,1.4-0.4,1.9-0.2c0.4,0.2,0.8,1.1,0.7,1.6c-0.4,2-0.7,4.2-1.5,6c-2.8,6.1-6.2,11.9-10.9,16.9c-2.4,2.6-4.8,5.2-7.4,8.1
	c3,0.4,5.8,0.9,8.7,1.2c3.2,0.3,6.2-0.9,9-2c2.1-0.8,3.9-2.1,5.8-3.3c1-0.6,2-0.7,3-0.3c0.9,0.4,0.9,1.4,0.8,2.2
	c-0.1,0.9-0.2,1.9-0.7,2.8c-3.1,6.2-6.4,12.4-11.2,17.5c-0.6,0.7-1.3,1.4-2,2.1c3.6,1.8,7.2,2.6,11,1.8c1.9-0.4,3.8-0.9,5.7-1.4
	c1.3-0.3,2.1,0.2,2.3,1.5c0.1,0.7,0.2,1.4,0.3,2c2.1,8.4,6,16.1,10.2,23.6c3,5.4,5.6,10.8,6.6,17c1.1,7.2,0.5,14.2-2.6,20.9
	c-0.1,0.1,0,0.3-0.1,0.4c3.7,0.1,7.1-1.4,10.7-3.7c3.1-2,5.5-4.6,7.2-7.9c0.2-0.5,1.1-1.1,1.5-1c0.5,0.1,1.1,0.9,1.2,1.4
	c0.2,2.2,0.4,4.5,0.2,6.7c-0.2,2.3-1,4.6-1.5,6.9c4.2-1.8,7.7-4.6,10.1-8.7c1.2-2.1,2.1-4.3,3.1-6.5c0.3-0.7,0.7-1.4,1.6-1.4
	c0.8,0,1.3,0.5,1.5,1.3c0.1,0.3,0.2,0.6,0.4,0.8c3.5,4.9,8.1,8.1,14,9.3c1.1,0.2,2.3,0.3,3.5,0.4c-1.1-2.9-2.2-5.6-3.2-8.4
	c-3.6-9.4-4.9-19.2-5.6-29.1c-0.2-2.4,0.8-3.4,3-3.5c3.3-0.2,6.5-0.4,9.8-0.7c6.8-0.6,13.5-1.7,19.5-5.1c2-1.1,2.8-0.8,3.8,1.3
	c1.7,3.5,2.3,7.3,2.8,11.1c0.5,4.6,0,9.2-0.5,13.8c-0.5,4.8-1.2,9.5-3.6,13.8c-0.4,0.7-0.7,1.5-1.2,2.5c3.3-0.9,6.4-1.6,9.2-3.1
	c3-1.6,4.9-4.3,6.9-6.9c0.4-0.6,1.3-1.2,1.9-1.1c0.5,0.1,1.1,1,1.3,1.7c0.6,2.4,0.2,4.8-0.6,7.1c-1,2.9-2.2,5.8-3.2,8.7
	c0.1,0,0.3,0,0.5-0.1c0.6-0.2,1.2-0.3,1.7-0.6c4.7-2.3,8.7-5.4,11.7-9.7c1-1.5,1.7-3.2,2.6-4.9c0.6-1.2,1.6-1.5,2.4-0.7
	c0.9,0.9,1.8,1.8,2.6,2.8c2.7,3.1,6.3,4.5,10.1,5.6c2.1,0.6,4.3,0.3,6.6-0.1c-0.2-0.3-0.3-0.5-0.4-0.7c-3.1-5.2-4.3-10.8-3.6-16.7
	c1.1-9.7,2.6-19.3,3.9-29c0.6-4.8,1.2-9.6,1.7-13.9c-2.4-1.7-4.5-3.1-6.5-4.6c-0.7-0.6-1.3-1.5-1.7-2.3c-0.2-0.4-0.1-1.2,0.1-1.5
	c0.3-0.2,1.1-0.2,1.5,0c0.7,0.4,1.3,1,2,1.5c3.2,2.6,6.8,4.1,10.9,4.2c3.8,0.1,7.4-0.8,11.1-2.9c-1.3-1.2-2.6-2.3-3.7-3.5
	c-4.4-4.8-8.1-10.2-11.2-16c-0.4-0.7-0.7-1.5,0-2.2c0.7-0.7,1.5-0.4,2.2-0.1c0.4,0.2,0.7,0.3,1.1,0.5c2,1.1,4.1,1.6,6.3,1.7
	c6.2,0.3,11.7-1.7,16.8-5c0.2-0.1,0.4-0.1,0.6-0.2c-6.6-3.6-11.5-8.5-15.7-14.2c-1-1.4-1.9-2.9-2.5-4.5c-0.7-1.5,0.2-2.5,1.8-2.5
	c0.8,0,1.7,0.1,2.5-0.1c4.6-0.9,9-2.3,12.8-5c1.3-0.9,2.4-2.2,3.7-3.5c-7.9-2.8-13.2-8.2-18-14.4c-0.6,0.7-1.2,1.3-1.8,2
	c-0.2,0.2-0.3,0.7-0.2,1c1.1,5-0.5,9.4-3.6,13.3c-0.7,0.8-0.8,1.6-0.6,2.6c1,4.6,1.9,9.2,2.9,13.7c0.2,1.1-0.1,1.8-0.9,2.5
	c-2.3,2.2-5.1,3.3-8.1,4.2c-3.9,1.1-7.8,1.5-11.7,0.4c-1.6-0.5-2.7-1.4-3.1-3.1c-0.2-0.9-0.5-1.8-0.7-2.7c-0.1-0.8-0.6-1.1-1.3-1.1
	c-1.6,0-3.3-0.3-4.9,0.1c-3.3,0.8-6.7,1.6-9.9,2.9c-4.6,1.9-9,4.3-13.5,6.5c-4.6,2.2-9.1,4.6-13.8,6.7c-5.5,2.5-11.5,3.5-17.4,4.8
	c-8.3,1.8-16.7,1.9-25,0.4c-10.5-1.8-20.4-5.5-29.6-10.7c-2.1-1.2-4.1-2.4-6-3.9c-8-6.1-14-13.9-19.4-22.3
	c-3.5-5.4-5.9-11.3-7.6-17.5c-0.5-1.7-0.1-2.6,0.9-2.9c1.1-0.3,1.9,0.4,2.3,2.1c0.1,0.3,0.1,0.5,0.2,0.8c1.4,4.4,2.6,8.9,5.2,12.8
	c2.9,4.3,5.8,8.6,8.9,12.7c4.1,5.3,8.8,10.2,14.5,13.7c7.8,4.8,16.2,8.5,25.2,10.7c9.3,2.2,18.5,3,27.9,1.2
	c6.2-1.2,12.4-2.3,18.3-4.9c4.7-2.1,9.3-4.5,13.9-6.7c4.8-2.3,9.5-4.8,14.4-6.7c4.4-1.7,9-3,13.9-2.8c0.6,0,1.2,0,2.1,0
	c-1.2-1.3-2.1-2.6-3.2-3.6c-2.5-2.4-5.5-4.1-8.8-5.2c-0.9-0.3-1.6-0.8-1.5-1.9c0.1-1.1,0.8-1.5,1.8-1.7c2.9-0.6,5.7-1.2,8.6-1.5
	C208.3,297.4,210.8,297.4,213.3,297.3z M99.6,150.6c56.7-10.3,113-22.1,169.6-32.3c-4.5-38.1-9-76.2-13.5-114.4
	C192.8,17.6,129.9,31.4,67.1,45.2C77.9,80.3,88.8,115.5,99.6,150.6z M148,155.3c-0.2,0.3-0.3,0.4-0.3,0.6c-2.7,6-7,10.9-12.2,14.9
	c-2.9,2.2-5.9,4.1-9.6,4.6c-0.6,0.1-1.6-0.1-1.9-0.6c-0.3-0.4,0-1.4,0.3-1.9c1.6-2.9,2.3-6.1,2.6-9.3c-0.4,0.5-0.7,1.1-1,1.6
	c-0.3,0.6-0.7,1.2-1,1.8c-4.8,7.5-11.1,13.1-19.6,15.9c-1.8,0.6-3.8,0.7-5.8,0.8c-1.5,0.1-1.9-1-1.1-2.2c0.5-0.7,1-1.3,1.3-2
	c1.5-2.8,3-5.6,4.5-8.4c-0.1-0.1-0.2-0.1-0.3-0.2c-4.9,6-10.6,10.9-18.5,12.5c-0.1,0.8-0.3,1.6-0.4,2.4c-1.4,6.3-1.8,12.6-0.7,18.9
	c3.7,20.9,22.9,35.1,44,32.1c18.2-2.6,30.6-12.9,37.8-29.7c0.5-1.1,0.6-2.2,0.3-3.5c-0.4-1.9-0.7-3.8-0.8-5.7
	c-0.2-3.7,0.3-7.3,2.4-10.4c0.6-0.9,0.7-1.7,0.6-2.7C166.5,171.7,159.6,162,148,155.3z M185.7,273.4c1.6-0.1,3.2-0.4,4.8-0.4
	c6,0,11.8,1.5,17.4,3.7c2,0.8,3.5,2.2,4.7,3.9c1,1.5,0.5,2.8-1.3,3.3c-0.6,0.2-1.3,0.2-1.9,0.3c-2.9,0.6-5.7,1.2-8.6,1.8
	c0,0.1,0,0.2,0,0.4c3.9,0.7,7.1,2.7,10.3,4.9c2.2,1.5,4.4,3,5.8,5.4c1.3,2.1,0.5,3.5-1.9,3.6c-2.2,0.1-4.4,0.1-6.6,0.3
	c-2,0.1-4,0.4-6.2,0.7c2,1.4,3.7,2.7,5.5,3.9c0.1,0.1,0.3,0.1,0.4,0.1c2.7-0.3,5.4-0.3,8.1-0.9c6.2-1.4,11.3-4.5,14.6-10
	c1.5-2.4,2.4-5.2,1.8-8c-0.4-2,0.1-3.5,1.5-4.8c3.6-3.6,2.9-10,0.9-12.8c-0.6,0.5-1.1,1.1-1.8,1.4c-0.5,0.2-1.5,0.1-1.8-0.2
	c-0.3-0.4-0.2-1.2-0.2-1.8c0-0.3,0.4-0.5,0.6-0.7c3-3,4.1-6.7,3.2-10.9c-0.8-4-3.3-6.9-6.7-9.1c-0.5,0.9-0.8,1.8-1.3,2.5
	c-0.6,1-1.7,1.3-2.5,0.8c-0.8-0.5-1-1.4-0.4-2.5c2.1-3.7,1.2-9.8-2.4-13.2c-1.5-1.4-3.2-2.2-4.8-2.2c-0.7,0.9-1.1,1.7-1.8,2.2
	c-5.6,4.6-12.1,6.6-19.2,7.4c-1.8,0.2-3.7,0.2-5.4-0.8c-0.6-0.4-1-1.2-1.1-1.9c-0.1-0.9,0.7-1.3,1.5-1.4c0.1,0,0.2-0.1,0.4-0.2
	c-0.5-2-0.9-3.9-1.4-5.8c-0.7,0-1.3,0-1.8-0.1c-3.3-0.6-6.2,0.3-8.8,2.1c-4.4,3.1-6.9,7.5-8.1,12.7c-0.6,2.6,0.1,5.3-1.1,7.7
	c0,0.1,0,0.2,0.1,0.3c0.8,1.9,1.7,3.8,2.5,5.7c0.1-0.1,0.2-0.2,0.3-0.4c2-2.2,3.5-4.7,4.7-7.5c0.6-1.4,1.9-1.7,2.8-0.7
	c2.9,3.2,4.8,6.8,5.1,11.1C185.8,266.6,185.7,270,185.7,273.4z M239,279.3c1.7,0.3,3.2-0.1,4.5-0.8c2.2-1.3,4.4-2.6,6.5-4.1
	c3.6-2.7,6.1-6.4,8.6-10.1c3.8-5.7,5.8-12,6.8-18.6c0.8-5.6,0.2-11.3-0.9-16.8c-0.9-4.4-2.9-8.4-5.2-12.3c-2.1-3.7-4.4-7.2-5.8-11.3
	c-2.1-6.2-3.2-12.4-2.9-19c0.1-2.3,0.2-4.6,0.3-7.2c-2.2,1.7-4,3.4-4.9,5.7c-1.1,2.8-1.9,5.7-2.8,8.6c-0.3,0.9-1,1.3-1.8,0.6
	c-0.3-0.3-0.5-0.6-0.7-1c-1.9-3.5-3.2-7.3-4.1-11.2c-0.5-2.4-0.8-4.9-1.2-7.4c-0.2,0.2-0.3,0.3-0.5,0.5c-3,3-4.7,6.7-5.6,10.7
	c-0.4,2-0.5,4.2-0.2,6.2c1.1,6.3,1.6,12.5,1,18.9c-0.7,7.3-2.5,14.2-6.6,20.4c-0.1,0.2-0.2,0.4-0.3,0.6c2.6,2.3,4.3,5,5,8.3
	c0.3,1.2,0,2.8,0.6,3.7c0.7,1,2.2,1.4,3.2,2.2c5.7,4.3,8,11.7,5.6,17.8c-0.7,1.6-0.8,2.8,0.2,4.4C240,271.6,239.9,275.4,239,279.3z
	 M183.8,201.4c5-6.5,11.5-10.1,19.5-11.1c3.3-0.4,6.5-0.2,9.4,1.5c0.5,0.3,1,1,1,1.4c-0.2,0.9-1,0.5-1.6,0.4
	c-5.5-1.6-10.9-0.9-16,1.5c-5,2.3-9.2,5.6-11.5,10.7c-2.3,5-0.2,9.7,5,11.6c0.3,0.1,0.9,0,1.1-0.2c5-5.7,11.5-8.4,18.9-9.3
	c1.7-0.2,3.4,0.1,5.1,0.3c0.4,0,0.7,0.6,1.1,1c-0.4,0.3-0.7,0.7-1.1,0.9c-0.7,0.2-1.4,0.2-2.1,0.3c-5.8,0.5-11.2,2.1-16,5.6
	c-2.3,1.7-4.2,3.6-5.2,6.3c-1,2.7-0.2,4.9,2.3,6.3c1.8,1.1,3.9,1.5,6,1.6c4.4,0.2,8.6-0.8,12.7-2.4c1.9-0.8,2.7-0.2,2.8,1.6
	c1.6,0.2,3.1,0.4,4.6,0.7c1.6,0.4,1.6,0.5,2.3-1.1c3.5-7.2,5.1-14.8,5.2-22.7c0.1-9.3-1.7-18.2-6-26.5c-2.4-4.6-5.5-8.6-10-11.4
	c-2.2-1.4-4.4-2.7-6.7-4c-1.1-0.6-2.2-1.1-3.4-1.4c-7.1-1.6-13.6,0.1-19.5,4.3c-3.1,2.3-5.5,5.1-6.4,9c-0.8,3.6,1.1,7.5,4.5,9.1
	c0.2-0.3,0.4-0.6,0.6-0.9c5.5-7.2,12.7-10.8,21.8-10.7c2.5,0,4.8,0.6,6.9,2c0.6,0.4,1.3,0.9,0.8,1.7c-0.4,0.8-1.2,0.5-1.8,0.3
	c-6.5-2.6-12.7-1.6-18.6,1.8c-4.6,2.7-8.1,6.3-9.4,11.7C179.1,195.3,180.5,199.2,183.8,201.4z M227.8,445c5.4-3.3,7-9.2,4.1-14.9
	c-1.6-3.1-4-5.5-6.7-7.7c-0.9-0.7-1.7-1.9-2.7-2.2c-1-0.3-2.4,0.1-3.5,0.2c-0.5,0-1,0.1-1.6,0c-5.5-0.7-10.4-2.8-14.1-7.1
	c-0.3-0.4-0.7-0.7-1.1-1.1c-0.2,0.3-0.3,0.5-0.4,0.8c-3.1,5.6-7.7,9.6-13.2,12.8c-2.1,1.2-4.3,1.6-6.7,1.8c-1.7,0.1-2.4-1-1.7-2.5
	c0.3-0.6,0.6-1.1,0.9-1.7c1.8-3.1,2.6-6.6,3.5-10.1c-0.2,0-0.3,0-0.3,0.1c-2.8,3.5-6.6,5.3-10.9,6.3c-0.4,0.1-0.8,0.3-1,0.6
	c-0.9,1.7-2.1,3.3-2.6,5.2c-1,3.5,0.3,6.6,2.2,9.5c2.6,3.9,6.2,6.6,10.3,8.8c7.6,4.1,15.8,6,24.4,6.4c1.8,0.1,3.7,0,5.4,0
	c0.1-0.2,0.2-0.3,0.2-0.3c0-0.1,0-0.2,0-0.4c-0.7-5.9-3.5-10.5-8.6-13.6c-0.6-0.4-1.4-0.8-0.9-1.6c0.5-0.8,1.2-0.5,1.9-0.2
	c0.6,0.3,1.1,0.6,1.6,1c2.7,2,5,4.5,6.3,7.6c1,2.2,1.5,4.7,2.3,7.1c3.5-0.4,7-1.3,10.2-3c0.3-0.2,0.7-0.6,0.7-1
	c0-1.3,0.1-2.6-0.1-3.8c-1.1-5-4.2-8.5-8.5-11.1c-0.5-0.3-1.2-0.6-0.8-1.3c0.2-0.2,1-0.3,1.5-0.1c5.1,2.2,8.4,6,9.7,11.4
	C227.8,442.2,227.7,443.5,227.8,445z M105.5,457.2c5.1-0.5,9.9-1.8,14.4-4c7.3-3.4,13.6-7.9,18.1-14.7c2.5-3.7,4.3-7.7,4-12.4
	c-0.1-0.9-0.3-1.3-1.2-1.5c-5.8-1.2-11.1-3.3-15-8.1c-0.3-0.4-0.7-0.8-1.1-1.3c-0.2,0.4-0.3,0.7-0.5,1c-1.9,3.8-4.2,7.4-7.7,10.1
	c-2.9,2.2-6.2,3.8-9.8,4.7c-0.5,0.1-1.3-0.2-1.7-0.6c-0.3-0.3-0.1-1.1-0.1-1.7c0-0.3,0.2-0.5,0.4-0.7c1.4-2.8,2.6-5.7,2.5-9.2
	c-0.4,0.3-0.6,0.7-0.9,1.1c-3.6,3.8-7.9,6.4-13.1,7.6c-0.4,0.1-0.8,0.3-1,0.6c-2.5,2.8-4.7,5.8-6.1,9.2c-1.2,2.8-1.9,5.8-1.4,8.9
	c0.5,3.2,2,5.7,4.7,7.7c0-0.4,0-0.5,0-0.7c-1.1-7.1,1.5-13,6.2-18.1c0.3-0.3,0.6-0.7,1-0.8c0.3-0.1,0.8-0.1,0.9,0.1
	c0.2,0.3,0.1,0.7,0,1c-0.1,0.3-0.4,0.5-0.7,0.7c-5.3,5.1-6.7,11.4-5.2,18.5c0.1,0.3,0.3,0.8,0.6,0.9c3.4,1.5,7,2,10.8,1.7
	c-1.1-2.8-1.3-5.6-0.9-8.5c0.5-3.7,1.8-7.2,3.9-10.3c0.2-0.4,0.9-0.4,1.3-0.7c0,0.5,0.1,1,0,1.4c-0.9,2.7-2.1,5.3-2.9,8
	C104.3,450.4,104.1,453.8,105.5,457.2z M67.7,158.4c0.1,0.1,0.1,0.3,0.2,0.4c2-0.4,4.1-0.6,6.1-1.1c2.5-0.5,4.3-2,5.6-4.1
	c2.6-4.1,3.7-8.5,3.7-13.3c-0.1-6.3-1.4-12.4-5-17.8c-1.6-2.5-3.6-4.5-6.2-5.8c-0.6-0.3-1.3-0.6-1.9-0.6c-2.3-0.1-4.6,0.2-6.7,1.4
	c-4.2,2.4-6.6,5.9-7.1,10.7c-0.5,4.6-0.2,5.4,3.9,7.7c0.7,0.4,1.6,0.8,1.2,1.8c-0.4,1-1.4,0.8-2.2,0.7c-0.4-0.1-0.9-0.2-1.2-0.5
	c-1.1-0.7-2.2-1.3-3.2-2.1c-6.7-5-10.6-12-13.3-19.7c-0.5-1.6-1-3.1-1.6-4.8c-5,5-4.1,25.2,1.4,31.8c0.7-0.5,1.5-0.9,2.2-1.4
	c1.3-1.2,2.5-2.5,3.8-3.6c0.4-0.4,1.2-0.4,1.8-0.6c0,0.6,0.1,1.2-0.2,1.7c-1.4,2.8-3.6,4.8-6.4,6.2c1.8,3.1,4.4,5.4,7.1,7.6
	c2.8-2.4,5.1-5.1,6.6-8.4c0.2-0.4,0.3-0.9,0.6-1.1c0.3-0.3,0.8-0.5,1.1-0.4c0.3,0.1,0.7,0.6,0.7,1c0,0.7-0.1,1.5-0.4,2.1
	c-0.9,1.7-1.9,3.4-3,5c-0.9,1.3-2.1,2.3-3.2,3.5c0.4,0.2,0.8,0.5,1.2,0.7c3.4,1.8,7.1,2.2,10.8,2.7c0.3,0,0.7-0.3,0.9-0.6
	c1.8-2.4,3.2-5.1,3.5-8.2c0.1-0.8,0.1-1.6,0.3-2.4c0.1-0.4,0.7-1,1-1c0.4,0,0.8,0.6,1.1,1c0.2,0.3,0.1,0.8,0.1,1.2
	C71,151.9,70.4,155.4,67.7,158.4z M55,161.6c-3.6-0.3-7-0.5-10.4-1c-7.2-1.2-14.3-2.6-21.4-4.1c-4.6-0.9-9.1-2.1-13.7-3.1
	c-1.3-0.3-2.6-0.4-3.9-0.4c-1.9,0-2.7,0.8-2.5,2.7c0.3,2.1,0.7,4.2,1.3,6.2c2.3,7.5,6.8,13.8,12,19.6c9.5,10.5,20.7,18.8,33.3,25.2
	c0.2,0.1,0.4,0.1,0.6,0.2c0-4.1,0-8.1,0-12.1c0-0.3-0.5-0.8-0.8-0.9c-1.9-0.8-3.8-1.4-5.6-2.4c-9.5-5.2-17.9-11.6-24.3-20.5
	c-1.1-1.5-0.5-3.2,1.3-3.5c1-0.2,2.1-0.1,3.1,0.1c6.9,1.1,13.9,2.3,20.8,3.4c2.6,0.4,5.2,0.4,7.8,0.5
	C53.5,167.9,54.2,164.7,55,161.6z M149.1,152.2c6.4,3,11.4,7.4,15.4,13.1c4,5.7,6.5,12,7.6,18.9c0.6-0.1,1.2-0.2,1.8-0.3
	c-2.8-5.1-2-9.8,1-14.4c0.3-0.4,0.2-1.1,0.1-1.7c-1.1-4.8-2.2-9.6-3.3-14.4c-0.7-2.8-1.3-5.6-2-8.5c-0.5,0.1-0.9,0.1-1.3,0.2
	c-5.8,1.1-11.5,2.2-17.3,3.2c-1.2,0.2-1.8,0.6-1.7,1.8C149.5,150.9,149.2,151.6,149.1,152.2z M52.1,173.6c-1.4,0-2.9,0.2-4.3,0
	c-8.1-1.1-16.2-2.3-24.3-3.4c-0.7-0.1-1.4-0.1-2-0.1c0,0.1-0.1,0.2-0.1,0.4c7.6,9.9,17.2,17.1,28.6,21.9
	C50.7,185.9,51.4,179.8,52.1,173.6z M173.3,144.3c1.7,7.2,3.3,14.3,5,21.6c5.3-4.3,11.2-6.5,18-6.8c-1.4-6.2-2.7-12.2-4-18.4
	C186,141.9,179.8,143.1,173.3,144.3z M269.4,120.2c-56.3,11.4-112.9,21.1-169.2,32.4c0.1,0.5,0.3,1.1,0.5,1.7
	c56.4-10.7,112.7-21.3,169-32c0-0.2,0-0.4,0-0.5C269.6,121.2,269.5,120.7,269.4,120.2z M182.3,204.1c-5.8-4.4-6.3-10-3.9-16.4
	c-1-0.2-1.8-0.5-2.7-0.6c-2.3-0.4-4.1,0.2-5.1,2.3c-0.8,1.5-1.4,3.3-1.5,5c-0.6,8,1.8,15.1,6.8,21.4c1.4,1.7,3,3.1,5.1,3.8
	c1.8,0.6,3.3,0.2,4.3-1.1C180.2,214.5,180,209.5,182.3,204.1z M228.1,133.9c-3.3,0.6-6.2,1.2-9.1,1.8c-0.3,0.1-0.5,0.5-0.7,0.7
	c-1.9,2.3-3.7,4.7-5.8,6.8c-3.9,3.8-8,7.3-12.8,10.1c-0.6,0.3-0.7,0.7-0.6,1.4c0.3,1.4,0.6,2.7,1,4.1c0.1,0.3,0.4,0.7,0.7,0.8
	c1.7,0.7,3.5,1.2,5.3,1.8C215.2,153.9,222.2,144.6,228.1,133.9z M211.2,308.2c0.4,1.1,0.8,2,1.1,2.9c0.2,0.7,0.5,1.3,0.6,2
	c0.2,1.6,0.4,3.1,0.5,4.7c0.1,0.8,0.5,1.1,1.1,1.1c2.7,0,5.3,0.2,8-0.1c2.7-0.2,5.3-1.2,7.5-2.9c0.7-0.5,1-1,0.7-1.9
	c-0.6-2.3-1.1-4.7-1.7-7.1c-0.4-1.5-0.7-3-1.1-4.6C223,306.1,217.6,308,211.2,308.2z M198.5,151.6c7.2-3.6,12.6-9,17.5-15.1
	c-0.1-0.1-0.1-0.2-0.2-0.3c-6.6,1.3-13.2,2.5-19.9,3.8C196.8,143.9,197.6,147.7,198.5,151.6z M201.1,233.7c0.1,1.9-0.3,2.8-1.3,2.9
	c-1.1,0-1.6-1-1.5-3.3c-1.5-0.4-3-0.7-4.6-1.1c0.5,2.1,0.9,4.2,1.5,6.2c0.1,0.2,0.6,0.5,0.9,0.4c5.6-0.6,10.8-2.2,15.6-5.3
	c0.9-0.6,1.1-1.3,0.6-2C208.6,232.2,204.9,232.9,201.1,233.7z"/>
<path fill="#BA17BA" d="M213.3,297.3c-2.5,0.1-4.9,0.1-7.4,0.4c-2.9,0.4-5.7,1-8.6,1.5c-0.9,0.2-1.7,0.6-1.8,1.7
	c-0.1,1.1,0.7,1.6,1.5,1.9c3.3,1.1,6.3,2.9,8.8,5.2c1.1,1,2,2.3,3.2,3.6c-0.9,0-1.5,0-2.1,0c-4.9-0.2-9.5,1.1-13.9,2.8
	c-4.9,1.9-9.6,4.4-14.4,6.7c-4.6,2.2-9.2,4.7-13.9,6.7c-5.8,2.5-12,3.7-18.3,4.9c-9.4,1.8-18.7,1-27.9-1.2
	c-9-2.2-17.3-5.9-25.2-10.7c-5.8-3.5-10.5-8.3-14.5-13.7c-3.1-4.1-6-8.4-8.9-12.7c-2.6-3.9-3.8-8.4-5.2-12.8
	c-0.1-0.3-0.1-0.5-0.2-0.8c-0.4-1.7-1.2-2.4-2.3-2.1c-1.1,0.3-1.4,1.3-0.9,2.9c1.7,6.2,4.1,12.1,7.6,17.5
	c5.4,8.4,11.5,16.2,19.4,22.3c1.9,1.5,3.9,2.7,6,3.9c9.3,5.2,19.2,8.8,29.6,10.7c8.3,1.5,16.7,1.4,25-0.4c5.9-1.3,11.9-2.3,17.4-4.8
	c4.7-2.1,9.2-4.5,13.8-6.7c4.5-2.2,8.9-4.6,13.5-6.5c3.1-1.3,6.5-2.1,9.9-2.9c1.6-0.4,3.3-0.1,4.9-0.1c0.7,0,1.1,0.3,1.3,1.1
	c0.2,0.9,0.5,1.8,0.7,2.7c0.4,1.7,1.5,2.7,3.1,3.1c3.9,1.1,7.9,0.7,11.7-0.4c3-0.8,5.8-2,8.1-4.2c0.8-0.7,1.2-1.5,0.9-2.5
	c-1-4.6-1.8-9.2-2.9-13.7c-0.2-1,0-1.8,0.6-2.6c3.1-3.9,4.6-8.3,3.6-13.3c-0.1-0.3,0-0.7,0.2-1c0.5-0.7,1.1-1.3,1.8-2
	c4.8,6.2,10.1,11.6,18,14.4c-1.3,1.3-2.3,2.6-3.7,3.5c-3.8,2.7-8.2,4.2-12.8,5c-0.8,0.2-1.7,0.1-2.5,0.1c-1.6,0-2.4,1-1.8,2.5
	c0.7,1.6,1.5,3.1,2.5,4.5c4.2,5.7,9.1,10.6,15.7,14.2c-0.3,0.1-0.5,0.1-0.6,0.2c-5.1,3.3-10.6,5.3-16.8,5c-2.2-0.1-4.3-0.6-6.3-1.7
	c-0.4-0.2-0.7-0.4-1.1-0.5c-0.7-0.3-1.5-0.7-2.2,0.1c-0.7,0.7-0.4,1.5,0,2.2c3.1,5.8,6.8,11.1,11.2,16c1.1,1.2,2.4,2.2,3.7,3.5
	c-3.7,2.1-7.3,3-11.1,2.9c-4.1-0.1-7.7-1.6-10.9-4.2c-0.7-0.5-1.3-1.1-2-1.5c-0.4-0.2-1.2-0.3-1.5,0c-0.3,0.3-0.3,1.1-0.1,1.5
	c0.4,0.8,1,1.7,1.7,2.3c2,1.6,4.1,3,6.5,4.6c-0.5,4.3-1.1,9.1-1.7,13.9c-1.3,9.7-2.8,19.3-3.9,29c-0.7,5.9,0.4,11.6,3.6,16.7
	c0.1,0.2,0.2,0.4,0.4,0.7c-2.3,0.4-4.4,0.7-6.6,0.1c-3.8-1.1-7.4-2.5-10.1-5.6c-0.8-1-1.8-1.8-2.6-2.8c-0.8-0.8-1.8-0.5-2.4,0.7
	c-0.8,1.6-1.5,3.4-2.6,4.9c-3,4.3-7,7.4-11.7,9.7c-0.5,0.3-1.1,0.4-1.7,0.6c-0.2,0.1-0.5,0.1-0.5,0.1c1.1-2.9,2.2-5.8,3.2-8.7
	c0.8-2.3,1.2-4.7,0.6-7.1c-0.2-0.7-0.8-1.6-1.3-1.7c-0.5-0.1-1.4,0.5-1.9,1.1c-2,2.6-3.9,5.2-6.9,6.9c-2.8,1.6-5.9,2.2-9.2,3.1
	c0.5-1,0.8-1.8,1.2-2.5c2.4-4.3,3.1-9,3.6-13.8c0.5-4.6,1.1-9.1,0.5-13.8c-0.5-3.8-1.1-7.6-2.8-11.1c-1-2.1-1.8-2.5-3.8-1.3
	c-6.1,3.5-12.7,4.6-19.5,5.1c-3.3,0.3-6.5,0.5-9.8,0.7c-2.2,0.1-3.1,1.1-3,3.5c0.7,9.9,2,19.7,5.6,29.1c1,2.7,2.1,5.4,3.2,8.4
	c-1.2-0.1-2.3-0.2-3.5-0.4c-5.9-1.2-10.5-4.4-14-9.3c-0.2-0.3-0.3-0.5-0.4-0.8c-0.2-0.8-0.6-1.3-1.5-1.3c-0.9,0-1.3,0.6-1.6,1.4
	c-1,2.2-1.9,4.4-3.1,6.5c-2.4,4.1-5.9,6.9-10.1,8.7c0.5-2.3,1.2-4.6,1.5-6.9c0.2-2.2,0-4.4-0.2-6.7c0-0.5-0.7-1.3-1.2-1.4
	c-0.4-0.1-1.3,0.5-1.5,1c-1.6,3.3-4.1,5.9-7.2,7.9c-3.7,2.4-7.1,3.9-10.7,3.7c0-0.1,0-0.3,0.1-0.4c3-6.7,3.7-13.6,2.6-20.9
	c-0.9-6.2-3.6-11.6-6.6-17c-4.2-7.5-8.1-15.2-10.2-23.6c-0.2-0.7-0.2-1.3-0.3-2c-0.2-1.3-1-1.8-2.3-1.5c-1.9,0.5-3.8,1-5.7,1.4
	c-3.8,0.9-7.4,0-11-1.8c0.7-0.8,1.3-1.4,2-2.1c4.8-5.1,8.1-11.3,11.2-17.5c0.4-0.8,0.5-1.8,0.7-2.8c0.1-0.8,0.2-1.8-0.8-2.2
	c-1-0.4-1.9-0.4-3,0.3c-1.9,1.2-3.8,2.5-5.8,3.3c-2.9,1.1-5.8,2.4-9,2c-2.9-0.3-5.7-0.8-8.7-1.2c2.6-2.9,5-5.5,7.4-8.1
	c4.6-5,8-10.8,10.9-16.9c0.9-1.8,1.1-4,1.5-6c0.1-0.5-0.3-1.4-0.7-1.6c-0.5-0.2-1.4-0.1-1.9,0.2c-1.2,0.7-2.3,1.8-3.5,2.5
	c-6,3.7-12.5,5-19.4,3.3c-0.2,0-0.4-0.1-0.7-0.2c1.2-1.5,2.2-2.9,3.4-4.3c3.8-4.3,6.7-9.1,8.8-14.3c2.4-5.9,3.7-12.2,4.1-18.5
	c0.4-5.1,0.5-10.2,0.7-15.3c0.3-9.2,0.6-18.5,0.7-27.7c0.1-5.7-0.3-11.3-0.5-17c-0.1-3.8-0.2-7.6-0.2-11.4c0-5.1-0.1-10.2,0.1-15.4
	c0.2-3.9,0.8-7.7,1.4-11.5c0.9-5,2-9.9,3.1-14.9c0.1-0.4,0.3-0.7,0.4-1.1c2.2,0.3,4.3,0.6,6.3,0.9c4,0.6,7.9-0.1,11.7-1.4
	c2.4-0.8,4-2.6,5.4-4.6c2.5-3.5,3.6-7.5,4.2-11.6c0.7-4.4,0-8.7-0.9-13c-0.1-0.5-0.2-0.9-0.3-1.5c1-0.6,2-1.1,3.2-1.8
	c0.2,0.5,0.3,0.9,0.4,1.3c2.7,8.7,5.4,17.4,8.1,26.1c0.8,2.4,1.8,3.1,4.3,2.6c7.9-1.4,15.9-2.9,23.8-4.3c6.9-1.3,13.8-2.6,20.7-3.9
	c0.3-0.1,0.6-0.1,1.2-0.1c-0.4,1.3-0.6,2.6-1.2,3.7c-1.1,2.1-2.3,4.2-3.7,6.1c-3.5,4.8-7.7,8.8-12.9,11.7c-0.5,0.3-1.1,0.6-1.7,0.9
	c0.7-2.4,1.4-4.7,2.1-6.9c0.7-2.7,0.6-5.4-0.3-8c-0.3-0.8-0.4-1.8-1.5-1.8c-1,0-1.6,0.8-1.8,1.8c-1.8,6-5.2,11-9.6,15.4
	c-3.9,3.8-8.3,6.7-13.6,8.3c-0.3,0.1-0.5,0.1-1.1,0.2c0.4-0.5,0.6-0.9,0.8-1.2c2.8-4.3,5.3-8.8,6.4-13.8c0.4-1.7,0.7-3.4-0.2-5
	c-0.3-0.5-1-1.2-1.5-1.2c-0.5,0-1,0.8-1.3,1.4c-1.1,2.1-1.8,4.5-3.1,6.4c-4.1,6.2-9.5,10.9-16.7,13.2c-0.9,0.3-1.8,0.4-3,0.6
	c0.5-1.2,0.9-2,1.3-3c2.4-5.8,4.2-11.7,3.9-18c0-0.9-0.2-1.9-0.5-2.8c-0.2-0.4-0.8-0.7-1.2-1.1c-0.3,0.5-0.8,0.9-0.9,1.4
	c-0.2,2.4-0.2,4.9-0.5,7.3c-0.7,5.6-2.4,11-5,16c-0.1,0.2-0.3,0.5-0.4,0.8c-0.3,1,0.1,1.7,1.1,1.8c0.3,0,0.6,0,0.8,0
	c0.3,0,0.6,0.1,0.7,0.1c-0.5,2.5-1.2,4.9-1.5,7.4c-3,22.7,10.9,44.7,35.2,49c19.2,3.4,38.9-6.6,48.9-23.3c1.1-1.9,2.1-3.9,3.2-6
	c0.4,0.8,0.8,1.6,1.3,2.4c1.7,3.3,4,6.1,7.1,8.2c2.2,1.5,4.7,2.3,7.4,1.6c1.1-0.3,2.1-0.9,3.2-1.5c0.6,2.4-0.1,5.1,1.8,7.2
	c-0.2,0.2-0.3,0.2-0.3,0.2c-6.1-1.1-10.9,1.3-15,5.5c-4,4.2-6.1,9.4-6.5,15.2c0,0.4,0,0.7-0.1,1.1c0,0-0.1,0-0.2,0.1
	c-0.8-0.8-1.7-1.6-2.6-2.4c-1.2-1-2.4-2-3.7-2.9c-0.8-0.6-1.6-0.7-2.4,0c-0.7,0.6-0.7,1.4-0.2,2.2c0.1,0.2,0.1,0.5,0,0.8
	c-1.9,8.2-6.7,14.2-14.1,18c-11,5.6-22,5.6-32.6-1.1c-2-1.3-3.7-3.2-5.5-4.8c-0.8-0.7-1.5-1.9-2.6-1c-1,0.8-0.1,1.9,0.4,2.8
	c1.8,2.7,4.2,4.8,7,6.5c15,9.5,37.9,4.2,47.2-10.9c1.3-2.2,2.1-4.7,3.1-7.1c0.1-0.2,0.2-0.5,0.3-1c4.2,3.8,7.4,8,8.1,13.6
	c0.3,2.4,1.7,3.1,3.4,1.4c2.1-2,3.8-4.4,5.6-6.6c0.4-0.5,0.7-1.2,1.1-1.8c0.1,0,0.3,0,0.4-0.1c0.7,1.8,1.6,3.6,2,5.5
	c0.7,3.7,0.9,7.5,0.3,11.3c-0.1,0.5-0.4,1.1-0.4,1.6c-0.1,0.6-0.3,1.5,0,1.8c0.3,0.4,1.2,0.6,1.8,0.5c1.5-0.2,3-0.6,4.5-0.8
	c3.1-0.5,6.2-0.2,9.2,0.5c2.9,0.7,5.8,1.6,8.6,2.5c0.9,0.3,1.6,0.9,2.8,1.5c-2.4,0.5-4.4,0.9-6.4,1.5c-3,0.9-6,2-9,3
	c-0.5,0.2-1,0.4-1.4,0.7c-0.4,0.4-0.8,1.1-0.6,1.5c0.1,0.5,0.7,1,1.2,1.2c0.5,0.2,1.1,0.2,1.6,0.2c5.2-0.2,10,1.2,14.2,4.3
	c1.6,1.2,3.4,2.4,5.1,3.5C213.4,297,213.3,297.2,213.3,297.3z"/>
<path fill="#FFFFFF" d="M99.6,150.6C88.8,115.5,77.9,80.3,67.1,45.2c62.8-13.8,125.7-27.6,188.6-41.4c4.5,38.2,9,76.3,13.5,114.4
	C212.5,128.4,156.2,140.3,99.6,150.6z"/>
<path fill="#F586F5" d="M148,155.3c11.6,6.7,18.6,16.4,20.7,29.6c0.2,1,0,1.8-0.6,2.7c-2.1,3.1-2.6,6.8-2.4,10.4
	c0.1,1.9,0.3,3.8,0.8,5.7c0.3,1.3,0.2,2.3-0.3,3.5c-7.2,16.8-19.6,27.1-37.8,29.7c-21.1,3-40.4-11.2-44-32.1
	c-1.1-6.4-0.6-12.7,0.7-18.9c0.2-0.8,0.3-1.6,0.4-2.4c7.9-1.7,13.6-6.5,18.5-12.5c0.1,0.1,0.2,0.1,0.3,0.2c-1.5,2.8-3,5.6-4.5,8.4
	c-0.4,0.7-0.9,1.3-1.3,2c-0.9,1.3-0.5,2.3,1.1,2.2c1.9-0.1,3.9-0.2,5.8-0.8c8.6-2.8,14.8-8.4,19.6-15.9c0.4-0.6,0.7-1.2,1-1.8
	c0.3-0.5,0.6-1.1,1-1.6c-0.3,3.3-1,6.4-2.6,9.3c-0.3,0.5-0.5,1.5-0.3,1.9c0.3,0.4,1.3,0.7,1.9,0.6c3.7-0.5,6.8-2.4,9.6-4.6
	c5.2-4,9.5-8.8,12.2-14.9C147.7,155.7,147.8,155.6,148,155.3z M139.7,198.3c3.3,1.7,6.4,3.3,9.6,4.9c0.6,0.3,1.3,0.6,2,0.8
	c1.8,0.4,2.9-0.9,2.3-2.6c-0.1-0.3-0.2-0.6-0.4-0.9c-2.6-4.2-5.1-8.5-7.8-12.7c-0.4-0.7-1-1.2-0.8-2.2c0.1-0.7-0.1-1.4-1-1.5
	c-0.9,0-1.2,0.6-1.3,1.4c-0.1,1-0.1,2.1-0.5,3c-1,2.2-2,4.4-3.3,6.4c-4.4,6.5-10.2,11.2-17.9,13.4c-4.2,1.2-6.3,0.3-8.6-3
	c-0.2-0.3-0.7-0.4-1-0.6c-0.2,0.4-0.5,0.8-0.5,1.2c0.2,1.7,1.1,3,2.5,3.9c2,1.4,4.3,1.7,6.7,1.4c4.3-0.5,7.9-2.3,11.4-4.8
	C134.4,204.2,137.2,201.5,139.7,198.3z M119.2,195.3c2.4-0.2,4.8-1.1,6.7-3.2c0.5-0.6,1-1.4,1.2-2.2c0.5-1.5-0.3-2.5-1.6-3.3
	c-2.9-1.5-7.8,0.8-9.5,3.4c-0.7,1.1-1.2,2.3-0.5,3.6C116.2,195,117.4,195.3,119.2,195.3z"/>
<path fill="#F586F5" d="M185.7,273.4c0-3.4,0.2-6.8,0-10.1c-0.3-4.3-2.2-8-5.1-11.1c-1-1-2.2-0.7-2.8,0.7c-1.2,2.8-2.7,5.3-4.7,7.5
	c-0.1,0.1-0.3,0.3-0.3,0.4c-0.8-1.9-1.7-3.8-2.5-5.7c0-0.1-0.1-0.3-0.1-0.3c1.3-2.4,0.5-5.2,1.1-7.7c1.3-5.2,3.7-9.6,8.1-12.7
	c2.6-1.9,5.6-2.7,8.8-2.1c0.5,0.1,1.1,0.1,1.8,0.1c0.5,1.9,0.9,3.9,1.4,5.8c-0.2,0.1-0.3,0.2-0.4,0.2c-0.8,0.1-1.6,0.5-1.5,1.4
	c0.1,0.7,0.6,1.5,1.1,1.9c1.6,1,3.5,1,5.4,0.8c7-0.8,13.6-2.8,19.2-7.4c0.6-0.5,1-1.3,1.8-2.2c1.7,0,3.4,0.9,4.8,2.2
	c3.7,3.4,4.6,9.5,2.4,13.2c-0.6,1.1-0.4,2.1,0.4,2.5c0.8,0.5,1.8,0.2,2.5-0.8c0.5-0.8,0.8-1.6,1.3-2.5c3.4,2.2,5.9,5,6.7,9.1
	c0.8,4.2-0.2,7.8-3.2,10.9c-0.2,0.2-0.6,0.5-0.6,0.7c-0.1,0.6-0.2,1.5,0.2,1.8c0.3,0.3,1.3,0.4,1.8,0.2c0.7-0.3,1.2-0.9,1.8-1.4
	c1.9,2.8,2.7,9.3-0.9,12.8c-1.4,1.4-1.9,2.8-1.5,4.8c0.6,2.9-0.3,5.6-1.8,8c-3.4,5.5-8.5,8.6-14.6,10c-2.6,0.6-5.4,0.6-8.1,0.9
	c-0.1,0-0.3,0-0.4-0.1c-1.7-1.2-3.5-2.5-5.5-3.9c2.2-0.2,4.2-0.5,6.2-0.7c2.2-0.2,4.4-0.2,6.6-0.3c2.4-0.1,3.2-1.4,1.9-3.6
	c-1.4-2.4-3.6-3.9-5.8-5.4c-3.2-2.2-6.4-4.2-10.3-4.9c0-0.1,0-0.2,0-0.4c2.9-0.6,5.7-1.2,8.6-1.8c0.6-0.1,1.3-0.2,1.9-0.3
	c1.8-0.5,2.3-1.8,1.3-3.3c-1.2-1.8-2.7-3.2-4.7-3.9c-5.6-2.1-11.3-3.6-17.4-3.7C188.8,273.1,187.2,273.3,185.7,273.4z"/>
<path fill="#BA17BA" d="M239,279.3c0.8-3.9,1-7.7-1-11.1c-1-1.6-0.8-2.7-0.2-4.4c2.5-6.1,0.1-13.5-5.6-17.8c-1-0.8-2.6-1.2-3.2-2.2
	c-0.6-1-0.3-2.5-0.6-3.7c-0.7-3.3-2.4-6.1-5-8.3c0.1-0.2,0.2-0.4,0.3-0.6c4.1-6.2,5.9-13.2,6.6-20.4c0.6-6.3,0.1-12.6-1-18.9
	c-0.4-2-0.3-4.2,0.2-6.2c0.9-4,2.6-7.7,5.6-10.7c0.2-0.2,0.3-0.3,0.5-0.5c0.4,2.5,0.7,5,1.2,7.4c0.8,3.9,2.1,7.7,4.1,11.2
	c0.2,0.3,0.4,0.7,0.7,1c0.7,0.7,1.5,0.3,1.8-0.6c0.9-2.9,1.6-5.8,2.8-8.6c0.9-2.3,2.8-4,4.9-5.7c-0.1,2.6-0.2,4.9-0.3,7.2
	c-0.3,6.5,0.8,12.8,2.9,19c1.4,4.1,3.7,7.6,5.8,11.3c2.2,3.9,4.3,7.9,5.2,12.3c1.1,5.5,1.7,11.2,0.9,16.8c-1,6.7-3,13-6.8,18.6
	c-2.5,3.7-5.1,7.3-8.6,10.1c-2,1.5-4.2,2.8-6.5,4.1C242.2,279.3,240.7,279.6,239,279.3z"/>
<path fill="#F586F5" d="M183.8,201.4c-3.3-2.3-4.7-6.2-3.7-10.2c1.3-5.4,4.8-9,9.4-11.7c5.9-3.5,12.1-4.5,18.6-1.8
	c0.6,0.3,1.4,0.5,1.8-0.3c0.4-0.8-0.2-1.3-0.8-1.7c-2.1-1.4-4.5-2-6.9-2c-9.1-0.1-16.3,3.5-21.8,10.7c-0.2,0.3-0.4,0.6-0.6,0.9
	c-3.4-1.6-5.3-5.5-4.5-9.1c0.9-3.9,3.2-6.7,6.4-9c5.9-4.2,12.4-5.8,19.5-4.3c1.2,0.3,2.4,0.8,3.4,1.4c2.3,1.3,4.5,2.6,6.7,4
	c4.5,2.8,7.6,6.8,10,11.4c4.3,8.3,6.1,17.2,6,26.5c-0.1,7.9-1.7,15.5-5.2,22.7c-0.7,1.5-0.7,1.5-2.3,1.1c-1.5-0.4-3.1-0.5-4.6-0.7
	c-0.1-1.8-1-2.4-2.8-1.6c-4.1,1.7-8.3,2.7-12.7,2.4c-2.1-0.1-4.1-0.5-6-1.6c-2.5-1.5-3.3-3.7-2.3-6.3c1-2.7,2.9-4.6,5.2-6.3
	c4.7-3.5,10.1-5.1,16-5.6c0.7-0.1,1.5-0.1,2.1-0.3c0.4-0.1,0.8-0.6,1.1-0.9c-0.4-0.3-0.7-0.9-1.1-1c-1.7-0.2-3.4-0.5-5.1-0.3
	c-7.4,0.9-13.9,3.6-18.9,9.3c-0.2,0.2-0.8,0.4-1.1,0.2c-5.2-1.9-7.2-6.6-5-11.6c2.3-5.2,6.5-8.4,11.5-10.7c5.1-2.4,10.5-3.1,16-1.5
	c0.6,0.2,1.4,0.5,1.6-0.4c0.1-0.4-0.5-1.1-1-1.4c-2.9-1.7-6.2-1.9-9.4-1.5C195.3,191.3,188.8,195,183.8,201.4z"/>
<path fill="#F586F5" d="M227.8,445c-0.1-1.4,0-2.8-0.3-4.1c-1.4-5.4-4.6-9.2-9.7-11.4c-0.4-0.2-1.3-0.2-1.5,0.1
	c-0.5,0.7,0.3,1,0.8,1.3c4.3,2.6,7.4,6.1,8.5,11.1c0.3,1.2,0.2,2.5,0.1,3.8c0,0.3-0.4,0.8-0.7,1c-3.2,1.6-6.7,2.6-10.2,3
	c-0.8-2.4-1.3-4.8-2.3-7.1c-1.3-3.1-3.6-5.6-6.3-7.6c-0.5-0.4-1.1-0.7-1.6-1c-0.7-0.3-1.4-0.6-1.9,0.2c-0.5,0.9,0.3,1.3,0.9,1.6
	c5.1,3.1,7.8,7.7,8.6,13.6c0,0.1,0,0.2,0,0.4c0,0,0,0.1-0.2,0.3c-1.7,0-3.5,0.1-5.4,0c-8.6-0.4-16.8-2.3-24.4-6.4
	c-4.1-2.2-7.7-4.9-10.3-8.8c-1.9-2.9-3.2-6-2.2-9.5c0.5-1.8,1.7-3.5,2.6-5.2c0.2-0.3,0.6-0.5,1-0.6c4.2-1.1,8.1-2.9,10.9-6.3
	c0,0,0.1,0,0.3-0.1c-1,3.5-1.8,6.9-3.5,10.1c-0.3,0.6-0.6,1.1-0.9,1.7c-0.7,1.6,0,2.7,1.7,2.5c2.3-0.2,4.6-0.6,6.7-1.8
	c5.5-3.2,10.1-7.2,13.2-12.8c0.1-0.2,0.2-0.4,0.4-0.8c0.4,0.4,0.7,0.8,1.1,1.1c3.7,4.3,8.6,6.4,14.1,7.1c0.5,0.1,1,0,1.6,0
	c1.2-0.1,2.5-0.6,3.5-0.2c1,0.3,1.8,1.5,2.7,2.2c2.7,2.2,5.1,4.6,6.7,7.7C234.8,435.7,233.2,441.7,227.8,445z"/>
<path fill="#F586F5" d="M105.5,457.2c-1.4-3.4-1.2-6.7-0.3-10c0.8-2.7,1.9-5.3,2.9-8c0.1-0.4,0-0.9,0-1.4c-0.4,0.2-1.1,0.3-1.3,0.7
	c-2.1,3.1-3.4,6.6-3.9,10.3c-0.4,2.9-0.2,5.7,0.9,8.5c-3.8,0.2-7.4-0.2-10.8-1.7c-0.3-0.1-0.5-0.6-0.6-0.9
	c-1.5-7.1-0.1-13.3,5.2-18.5c0.2-0.2,0.6-0.4,0.7-0.7c0.1-0.3,0.1-0.8,0-1c-0.1-0.2-0.7-0.2-0.9-0.1c-0.4,0.2-0.7,0.5-1,0.8
	c-4.7,5.2-7.3,11-6.2,18.1c0,0.2,0,0.3,0,0.7c-2.7-2-4.3-4.5-4.7-7.7c-0.5-3.1,0.2-6,1.4-8.9c1.5-3.5,3.7-6.5,6.1-9.2
	c0.2-0.3,0.6-0.5,1-0.6c5.2-1.1,9.4-3.8,13.1-7.6c0.3-0.3,0.5-0.8,0.9-1.1c0.1,3.4-1.1,6.3-2.5,9.2c-0.1,0.3-0.3,0.5-0.4,0.7
	c-0.1,0.6-0.2,1.3,0.1,1.7c0.3,0.4,1.2,0.7,1.7,0.6c3.6-0.9,6.8-2.5,9.8-4.7c3.5-2.7,5.8-6.3,7.7-10.1c0.1-0.3,0.3-0.6,0.5-1
	c0.4,0.5,0.8,0.9,1.1,1.3c3.9,4.8,9.2,6.8,15,8.1c1,0.2,1.2,0.6,1.2,1.5c0.3,4.7-1.5,8.7-4,12.4c-4.5,6.8-10.8,11.3-18.1,14.7
	C115.4,455.3,110.6,456.7,105.5,457.2z"/>
<path fill="#B498B5" d="M67.7,158.4c2.6-2.9,3.3-6.4,3.3-10.1c0-0.4,0.1-0.9-0.1-1.2c-0.3-0.4-0.7-1-1.1-1c-0.4,0-0.9,0.6-1,1
	c-0.2,0.8-0.2,1.6-0.3,2.4c-0.3,3.1-1.6,5.7-3.5,8.2c-0.2,0.3-0.6,0.6-0.9,0.6c-3.7-0.5-7.4-0.8-10.8-2.7c-0.4-0.2-0.8-0.5-1.2-0.7
	c1.1-1.2,2.3-2.3,3.2-3.5c1.1-1.6,2.1-3.3,3-5c0.3-0.6,0.4-1.4,0.4-2.1c0-0.3-0.4-0.9-0.7-1c-0.3-0.1-0.9,0.1-1.1,0.4
	c-0.3,0.3-0.4,0.7-0.6,1.1c-1.6,3.3-3.8,6-6.6,8.4c-2.7-2.2-5.3-4.5-7.1-7.6c2.9-1.4,5-3.4,6.4-6.2c0.2-0.5,0.1-1.1,0.2-1.7
	c-0.6,0.2-1.3,0.2-1.8,0.6c-1.3,1.1-2.5,2.5-3.8,3.6c-0.6,0.6-1.4,1-2.2,1.4c-5.5-6.6-6.4-26.8-1.4-31.8c0.6,1.7,1.1,3.2,1.6,4.8
	c2.7,7.7,6.6,14.6,13.3,19.7c1,0.8,2.1,1.4,3.2,2.1c0.4,0.2,0.8,0.4,1.2,0.5c0.8,0.1,1.8,0.4,2.2-0.7c0.4-1-0.5-1.4-1.2-1.8
	c-4-2.3-4.4-3.1-3.9-7.7c0.5-4.8,2.9-8.4,7.1-10.7c2.1-1.2,4.4-1.5,6.7-1.4c0.6,0,1.3,0.3,1.9,0.6c2.6,1.3,4.6,3.4,6.2,5.8
	c3.5,5.4,4.9,11.4,5,17.8c0,4.8-1.1,9.3-3.7,13.3c-1.4,2.1-3.2,3.6-5.6,4.1c-2,0.4-4.1,0.7-6.1,1.1
	C67.9,158.6,67.8,158.5,67.7,158.4z"/>
<path fill="#BA17BA" d="M55,161.6c-0.7,3.1-1.5,6.3-2.4,9.8c-2.6-0.2-5.3-0.2-7.8-0.5c-7-1-13.9-2.3-20.8-3.4
	c-1-0.2-2.1-0.2-3.1-0.1c-1.8,0.3-2.4,2-1.3,3.5c6.4,8.9,14.9,15.3,24.3,20.5c1.8,1,3.8,1.6,5.6,2.4c0.3,0.2,0.8,0.6,0.8,0.9
	c0.1,4,0,8,0,12.1c-0.2-0.1-0.4-0.1-0.6-0.2c-12.6-6.4-23.8-14.6-33.3-25.2c-5.2-5.8-9.6-12.1-12-19.6c-0.6-2-1-4.1-1.3-6.2
	c-0.2-1.9,0.5-2.7,2.5-2.7c1.3,0,2.6,0.1,3.9,0.4c4.6,1,9.1,2.1,13.7,3.1c7.1,1.4,14.3,2.8,21.4,4.1C48,161.1,51.4,161.2,55,161.6z"
	/>
<path fill="#BA17BA" d="M149.1,152.2c0.1-0.6,0.4-1.3,0.3-1.9c-0.1-1.3,0.5-1.6,1.7-1.8c5.8-1,11.5-2.2,17.3-3.2
	c0.4-0.1,0.8-0.1,1.3-0.2c0.7,2.9,1.3,5.7,2,8.5c1.1,4.8,2.2,9.6,3.3,14.4c0.1,0.5,0.2,1.3-0.1,1.7c-3.1,4.6-3.9,9.3-1,14.4
	c-0.6,0.1-1.2,0.2-1.8,0.3c-1.1-7-3.5-13.3-7.6-18.9C160.5,159.7,155.5,155.3,149.1,152.2z"/>
<path fill="#F586F5" d="M52.1,173.6c-0.7,6.2-1.4,12.3-2.1,18.6c-11.4-4.7-21-11.9-28.6-21.9c0-0.1,0.1-0.2,0.1-0.4
	c0.7,0,1.4,0.1,2,0.1c8.1,1.1,16.2,2.3,24.3,3.4C49.2,173.7,50.7,173.6,52.1,173.6z"/>
<path fill="#B498B5" d="M173.3,144.3c6.4-1.2,12.7-2.4,19-3.6c1.4,6.2,2.7,12.2,4,18.4c-6.8,0.2-12.7,2.4-18,6.8
	C176.6,158.6,175,151.5,173.3,144.3z M187.3,146.7c0.5,1.3,0.8,2.5,1.4,3.6c0.2,0.4,1,0.5,1.6,0.7c0.2-0.6,0.7-1.2,0.6-1.6
	c-0.4-1.2-1-2.3-1.6-3.3c-0.2-0.3-0.8-0.6-1.1-0.5C187.9,145.7,187.7,146.2,187.3,146.7z M185.6,154.7c-0.2-1-0.4-2.1-0.7-3.1
	c-0.1-0.3-0.4-0.5-0.7-0.7c-0.3,0.3-0.7,0.5-0.8,0.8c-0.2,1-0.4,2-0.4,3.1c-0.1,1.4,0.4,2.2,1.2,2.2
	C185.2,157,185.6,156.3,185.6,154.7z M179.9,151.1c-0.2-1.4-0.3-2.6-0.6-3.6c-0.1-0.4-0.6-0.8-1-1.2c-0.3,0.4-0.8,0.8-0.8,1.2
	c-0.1,1.2,0,2.4,0.2,3.6c0.1,0.7,0.5,1.4,1.3,1.2C179.4,152.1,179.6,151.4,179.9,151.1z"/>
<path fill="#B498B5" d="M269.4,120.2c0.1,0.5,0.2,1,0.3,1.5c0,0.2,0,0.3,0,0.5c-56.3,10.7-112.6,21.3-169,32
	c-0.2-0.6-0.3-1.2-0.5-1.7C156.5,141.2,213.1,131.6,269.4,120.2z"/>
<path fill="#F586F5" d="M182.3,204.1c-2.3,5.4-2.1,10.4,2.9,14.4c-1,1.3-2.5,1.6-4.3,1.1c-2.1-0.7-3.8-2.1-5.1-3.8
	c-5-6.2-7.4-13.4-6.8-21.4c0.1-1.7,0.8-3.4,1.5-5c1.1-2.1,2.8-2.8,5.1-2.3c0.9,0.2,1.8,0.4,2.7,0.6
	C175.9,194.1,176.5,199.7,182.3,204.1z"/>
<path fill="#BA17BA" d="M228.1,133.9c-5.9,10.7-13,20-22.1,27.5c-1.7-0.6-3.5-1.2-5.3-1.8c-0.3-0.1-0.6-0.5-0.7-0.8
	c-0.4-1.4-0.6-2.7-1-4.1c-0.2-0.6,0-1,0.6-1.4c4.7-2.8,8.9-6.3,12.8-10.1c2.1-2.1,3.9-4.5,5.8-6.8c0.2-0.3,0.4-0.7,0.7-0.7
	C222,135.1,224.9,134.5,228.1,133.9z"/>
<path fill="#B498B5" d="M211.2,308.2c6.3-0.2,11.8-2.1,16.8-5.8c0.4,1.6,0.7,3.1,1.1,4.6c0.6,2.4,1.1,4.8,1.7,7.1
	c0.2,0.9,0,1.4-0.7,1.9c-2.2,1.7-4.8,2.6-7.5,2.9c-2.6,0.2-5.3,0.1-8,0.1c-0.7,0-1.1-0.3-1.1-1.1c-0.1-1.6-0.3-3.1-0.5-4.7
	c-0.1-0.7-0.4-1.4-0.6-2C212,310.2,211.6,309.3,211.2,308.2z M222.8,312.7c0.2,0.8,0.3,1.6,0.5,2.3c0.3,0.8,0.8,1.5,1.7,1.2
	c1-0.2,1.1-1.1,1-1.9c-0.1-0.7-0.3-1.5-0.6-2.2c-0.2-0.8-0.6-1.5-1.5-1.3C222.9,311,222.8,311.8,222.8,312.7z M218.6,311.6
	c-0.1-0.5,0-0.9-0.1-1.1c-0.3-0.5-0.7-0.9-1.1-1.3c-0.4,0.4-1.1,0.7-1.2,1.1c-0.3,0.9-0.4,2-0.3,2.9c0,0.4,0.6,1,0.9,1
	c0.4,0,1.1-0.4,1.3-0.8C218.5,312.9,218.5,312.1,218.6,311.6z"/>
<path fill="#F586F5" d="M198.5,151.6c-0.9-3.9-1.7-7.6-2.6-11.6c6.7-1.3,13.3-2.5,19.9-3.8c0.1,0.1,0.1,0.2,0.2,0.3
	C211.1,142.5,205.7,148,198.5,151.6z"/>
<path fill="#B498B5" d="M201.1,233.7c3.8-0.7,7.4-1.5,11.2-2.2c0.4,0.7,0.3,1.4-0.6,2c-4.7,3.1-10,4.7-15.6,5.3
	c-0.3,0-0.9-0.2-0.9-0.4c-0.5-2-1-4.1-1.5-6.2c1.6,0.4,3.1,0.8,4.6,1.1c-0.1,2.3,0.4,3.4,1.5,3.3
	C200.8,236.5,201.3,235.5,201.1,233.7z"/>
<path d="M139.7,198.3c-2.5,3.2-5.3,5.9-8.5,8.2c-3.4,2.4-7.1,4.3-11.4,4.8c-2.4,0.3-4.6,0-6.7-1.4c-1.4-0.9-2.3-2.3-2.5-3.9
	c-0.1-0.4,0.3-0.8,0.5-1.2c0.4,0.2,0.8,0.3,1,0.6c2.3,3.4,4.4,4.2,8.6,3c7.7-2.1,13.5-6.9,17.9-13.4c1.3-2,2.3-4.2,3.3-6.4
	c0.4-0.9,0.4-2,0.5-3c0.1-0.8,0.4-1.4,1.3-1.4c0.9,0,1.2,0.8,1,1.5c-0.2,1,0.4,1.5,0.8,2.2c2.6,4.2,5.2,8.4,7.8,12.7
	c0.2,0.3,0.3,0.6,0.4,0.9c0.6,1.7-0.5,3-2.3,2.6c-0.7-0.2-1.4-0.5-2-0.8C146.2,201.6,143,199.9,139.7,198.3z M144.1,190.2
	c-0.9,2-1.8,4-2.8,6c2.9,1.3,5.8,2.7,8.7,4.1c0-0.1,0.1-0.1,0.1-0.2C148.2,196.8,146.2,193.6,144.1,190.2z"/>
<path d="M119.2,195.3c-1.8,0-2.9-0.3-3.6-1.6c-0.7-1.3-0.3-2.5,0.5-3.6c1.7-2.6,6.6-4.9,9.5-3.4c1.4,0.7,2.1,1.7,1.6,3.3
	c-0.2,0.8-0.6,1.6-1.2,2.2C124,194.2,121.5,195.2,119.2,195.3z"/>
<path d="M187.3,146.7c0.3-0.4,0.5-1,0.9-1.1c0.3-0.1,0.9,0.2,1.1,0.5c0.6,1.1,1.2,2.2,1.6,3.3c0.1,0.4-0.4,1.1-0.6,1.6
	c-0.5-0.2-1.3-0.3-1.6-0.7C188.2,149.2,187.8,147.9,187.3,146.7z"/>
<path d="M185.6,154.7c-0.1,1.6-0.5,2.3-1.3,2.2c-0.8,0-1.3-0.9-1.2-2.2c0.1-1,0.2-2.1,0.4-3.1c0.1-0.3,0.5-0.5,0.8-0.8
	c0.2,0.2,0.6,0.4,0.7,0.7C185.2,152.6,185.4,153.7,185.6,154.7z"/>
<path d="M179.9,151.1c-0.2,0.3-0.5,1-0.9,1.1c-0.8,0.3-1.2-0.5-1.3-1.2c-0.2-1.2-0.2-2.4-0.2-3.6c0-0.4,0.6-0.8,0.8-1.2
	c0.3,0.4,0.8,0.7,1,1.2C179.5,148.6,179.6,149.7,179.9,151.1z"/>
<path d="M222.8,312.7c0.1-0.9,0.1-1.7,1.1-1.9c1-0.2,1.3,0.6,1.5,1.3c0.2,0.7,0.5,1.4,0.6,2.2c0.1,0.8,0,1.7-1,1.9
	c-1,0.2-1.5-0.4-1.7-1.2C223.1,314.2,222.9,313.4,222.8,312.7z"/>
<path d="M218.6,311.6c-0.1,0.5-0.2,1.3-0.5,1.9c-0.2,0.4-0.8,0.8-1.3,0.8c-0.3,0-0.9-0.6-0.9-1c0-1,0.1-2,0.3-2.9
	c0.1-0.4,0.8-0.7,1.2-1.1c0.4,0.4,0.8,0.8,1.1,1.3C218.6,310.7,218.6,311.1,218.6,311.6z"/>
<path fill="#FFFFFF" d="M144.1,190.2c2,3.3,4,6.6,6,9.9c0,0.1-0.1,0.1-0.1,0.2c-2.9-1.4-5.8-2.7-8.7-4.1
	C142.3,194.2,143.2,192.3,144.1,190.2z"/>
</svg>
