<?xml version="1.0" encoding="utf-8"?>
<!-- Generator: Adobe Illustrator 22.1.0, SVG Export Plug-In . SVG Version: 6.00 Build 0)  -->
<svg version="1.2" baseProfile="tiny" id="Layer_1" xmlns="http://www.w3.org/2000/svg" xmlns:xlink="http://www.w3.org/1999/xlink"
	 x="0px" y="0px" width="363.2px" height="468.3px" viewBox="0 0 363.2 468.3" xml:space="preserve">
<path d="M81,26.5c0-0.6-0.1-1.1-0.1-1.5c-0.5-6.7,0.5-13.2,3.9-19.1c0.8-1.4,1.9-2.7,2.9-4c0.6-0.8,1.5-1.5,2.6-1
	c1.1,0.5,1.9,1.3,2,2.7c0.3,3.1,1.2,5.9,2.6,8.7c1.4,2.8,3.2,5.2,5.5,7.2c0.7,0.6,1.5,1.1,2.4,1.8c0.1-0.8,0.2-1.4,0.2-1.9
	c1.1-8.8,7-15.9,16.2-17.1c6.6-0.9,12.5,1.3,17.6,5.5c4.3,3.6,7.4,8.1,9,13.4c0.1,0.3,0.2,0.6,0.3,0.9c0.2,0,0.3,0,0.4-0.1
	c6.8-3.6,14.2-5.2,21.7-6c12-1.3,24-1.1,35.9,1.2c3.8,0.7,7.4,2,11.1,3c0.4,0.1,0.7,0.2,1.2,0.4c0.2-0.5,0.3-0.9,0.5-1.3
	c3.7-9.3,10.1-15.7,20.1-17.5c10.7-2,20,4.7,22.1,15.4c0.2,1.1,0.3,2.1,0.5,3.4c0.9-0.6,1.7-1.1,2.4-1.7c4.8-4.1,7.3-9.4,8.1-15.6
	c0.2-1.2,0.8-2.1,1.7-2.8c0.8-0.6,1.8-0.3,2.4,0.4c1.1,1.3,2.3,2.6,3.2,4c3.6,6,4.8,12.6,4.2,19.5c-0.1,1.3-0.3,2.5-0.5,4
	c4.1-1.1,8.1-2.2,12-3.3c2.1-0.6,4.2-1.3,6.3-1.8c4.5-0.9,9.1-1.9,13.7-2.4c3.3-0.4,6.7-0.3,10,0.1c3.8,0.4,5.4,2.6,5.1,6.5
	c-0.4,4.7-1.7,9.3-3.4,13.7c-4.8,12.8-10.4,25.2-17.7,36.8c-3.9,6.2-7.9,12.3-12.8,17.6c-1.7,1.9-3.6,3.6-5.4,5.2
	c-0.7,0.6-0.9,1-0.6,1.9c1.4,5,2.9,10,4.1,15.1c3.1,13.3,5.3,26.8,6.1,40.5c0.3,4.7,0.3,9.5,0.5,14.2c0.1,3.4,0.4,6.8,0.6,10.2
	c0,0.4,0.4,0.9,0.7,1.1c14,8,25,19.2,34.2,32.2c7.1,10,12.9,20.7,17,32.3c3.5,9.9,5,20.1,5.9,30.4c0.7,8.6,0.2,17.1-0.1,25.7
	c-0.2,4.7-0.1,9.3,0.1,14c0.2,4.7,0.4,9.5,1,14.2c0.6,4.4,1.8,8.6,4.3,12.4c1.1,1.8,0.7,3.6-1.2,5c-2.3,1.7-5,1.9-7.7,1.3
	c-5.5-1.2-9.6-4.5-12.9-8.9c-1-1.4-1.9-2.9-2.9-4.4c0,0.2-0.1,0.3-0.1,0.4c-0.1,6.8,0.9,13.5,3.6,19.8c0.9,2.1,2.3,4.1,3.7,6
	c2,2.7,1.3,5.3-1.8,6.4c-2.6,0.9-5.3,0.6-7.9-0.1c-7.2-2-13.4-5.5-17.8-11.8c-0.1-0.1-0.2-0.1-0.4-0.4c-0.6,1.4-1.4,2.6-1.8,3.9
	c-3.6,10.4-3.7,20.8-0.1,31.2c0.5,1.5,0.7,3,0.4,4.6c-0.2,1.2-1.2,2.1-2.6,2c-0.9-0.1-1.9-0.2-2.7-0.6c-2.9-1.3-5.7-2.7-8.5-4
	c-0.4-0.2-0.8-0.5-1.3-0.8c-0.2,0.5-0.3,0.8-0.4,1.2c-2.8,8.4-8,14.7-16.5,17.8c-5.7,2-11.3,1.4-16.7-1.1c-0.3-0.2-0.6-0.3-1.1-0.5
	c0.9,4.2,1.9,8.2,4,11.9c0.7,1.2,1.2,2.5,1.4,3.9c0.1,0.8-0.5,1.8-0.8,2.7c-0.1,0-0.2,0-0.4,0c0.5,0.6,1.1,1.2,1.6,1.8
	c3.3,3.9,5.5,8.3,5.6,13.6c0.1,6.3-2.7,11.2-7.5,15.1c-4.8,3.9-10.3,6-16.3,6.9c-17.1,2.6-32.8-1.1-46.8-11.6c-3.9-2.9-7-6.6-9.1-11
	c-3.2-6.8-3-13.4,1.5-19.6c0.1-0.1,0.2-0.3,0.2-0.4c0,0,0-0.1,0-0.3c-0.3,0-0.5-0.1-0.8-0.1c-1.6-0.1-2.5-1.3-2.1-2.9
	c0.1-0.5,0.3-0.9,0.6-1.3c4.3-7.3,5-15.2,3.8-23.3c-0.4-2.6-1.2-5.1-1.8-7.7c-0.3-1.2-1.1-2-2.3-2.2c-3.4-0.7-6.7-1.5-10.1-2
	c-2.8-0.4-5.6-0.5-8.4-0.6c-4.6-0.2-9,0.9-13.2,2.8c-0.5,0.2-1,0.8-1.2,1.3c-2.8,8.9-3.1,17.8,0.3,26.7c0.4,1,0.9,1.9,1.4,2.8
	c0.3,0.7,0.8,1.3,1,2c0.6,1.7-0.3,3.1-2.2,3.1c-0.2,0-0.5,0-0.9,0c0.2,0.4,0.3,0.6,0.5,0.9c4.1,5.7,4.6,11.9,1.9,18.3
	c-2.3,5.5-6.2,9.7-10.9,13.1c-7.9,5.8-16.9,9.2-26.6,10.7c-9,1.4-17.9,1-26.5-2.1c-4.1-1.5-7.8-3.7-10.9-6.8
	c-5.5-5.6-6.9-13.4-3.6-20.5c1.1-2.3,2.8-4.4,4.2-6.5c0.3-0.5,0.8-0.9,1.3-1.4c-1.9-1.7-1.5-3.6,0-6.1c2.3-3.8,3.4-7.9,4.3-12.3
	c-7.3,3.7-14.4,3.9-21.5,0.1c-6.9-3.8-11-9.8-13.2-17.4c-0.6,0.4-1.2,0.8-1.8,1.1c-2.9,1.3-5.8,2.7-8.7,3.9
	c-1.3,0.5-2.8,0.9-3.9-0.4c-1.1-1.3-1-2.9-0.7-4.4c0.7-2.9,1.8-5.7,2.3-8.6c1.4-8.2,0.9-16.3-2-24.1c-0.5-1.3-1.2-2.5-1.9-4
	c-1.7,2.8-3.8,4.8-6.2,6.6c-4.3,3.1-8.9,5.4-14.2,6.2c-2.1,0.3-4.2,0.4-6.2-0.5c-2.6-1.2-3.4-3.7-1.6-5.8c4-4.7,5.8-10.4,6.8-16.3
	c0.6-3.4,0.7-6.8,1-10.2c-0.1,0-0.3-0.1-0.4-0.1c-0.2,0.4-0.4,0.8-0.7,1.2c-3.1,5.4-7.3,9.5-13.2,11.6c-2.3,0.8-4.6,1.1-6.9,0.3
	c-1-0.3-2-0.8-2.8-1.5c-1.7-1.3-1.9-3.1-0.8-4.8c2.4-3.7,3.6-7.9,4.2-12.1c0.6-4.7,0.9-9.5,1-14.2c0.2-4.9,0.3-9.8,0-14.6
	C5,287.7,5.4,273,8.5,258.4c2.4-11,6.7-21.3,12.2-31.1c7.1-12.5,15.7-23.9,26.5-33.5c4.8-4.2,9.8-8.1,15.4-11.1c0.7-0.4,1-0.9,1-1.6
	c0.1-5,0.2-10,0.5-15c0.4-6.8,0.8-13.6,1.6-20.3c1.6-15.1,4.7-29.9,9.1-44.5c0.2-0.8,0.1-1.2-0.5-1.7c-4-3.1-7.2-6.9-10.2-10.9
	c-8-10.6-14.5-22.1-19.9-34.3c-2.9-6.7-6-13.3-7.8-20.4c-0.7-2.7-1.2-5.6-1.5-8.4c-0.4-3.1,1.1-5.1,4.1-5.8
	c3.5-0.9,7.1-0.8,10.6-0.3c5.7,0.8,11.4,1.8,17.1,3.1c4.6,1,9.1,2.5,13.6,3.8C80.5,26.4,80.7,26.4,81,26.5z M257.5,56
	c-0.3,0.1-0.7,0.3-1.2,0.4c-2.8,0.5-5.6,1.4-8.5,1.5c-6.8,0.4-13-1.7-18.6-5.7c-8.5-6-13.9-13.8-14-24.6c0-0.4-0.4-0.9-0.7-1
	c-1.1-0.5-2.3-0.9-3.5-1.3c-15.4-4.5-31-5.1-46.7-1.5c-5.7,1.3-11.3,3-16.4,5.9c-0.7,0.4-1,0.8-1.1,1.7c-0.1,1.1-0.3,2.3-0.6,3.4
	c-3,10.7-10.1,17.7-20.1,21.9c-6.8,2.9-13.9,2.7-20.9,0.2c-0.6-0.2-1-0.4-1.5,0.3c-4.1,5.6-8.1,11.3-11.3,17.5
	c-8,15.4-13.4,31.7-17.3,48.6c-3.5,15.3-4.3,30.9-5.2,46.5c-0.4,7.4-0.7,14.8-1.9,22.1c-2.3,13.6-5.9,26.8-12.8,38.9
	c-0.8,1.5-1.7,2.9-2.4,4.4c-2,3.9-4.6,7.3-7.6,10.4c-0.9,0.9-1.7,1.9-2.8,3.1c1.9,0.5,3.4,1,5,1.2c5.1,0.8,9.9,0.5,14.1-3.2
	c1.9-1.6,4.5-0.8,5.4,1.5c0.3,0.8,0.6,1.8,0.5,2.7c-0.3,2.4-0.5,4.8-1.3,7c-3.9,10.2-9.8,19-18.2,26.1c-0.2,0.2-0.3,0.4-0.6,0.7
	c5.6,1.1,10.8,0.9,15.9-1.3c2.5-1.1,4.8,0,5.6,2.6c0.3,0.9,0.4,1.9,0.4,2.8c0,6-2.2,11.5-4.7,16.8c-2.5,5.2-5.9,9.7-10,13.7
	c-0.3,0.3-0.6,0.7-1.1,1.3c5.9,0.1,11.3-0.6,16.1-3.7c2.9-1.9,5.5-1,6.2,2.4c0.3,1.5,0.4,3.2,0.3,4.8c-0.5,7.4-3,14.2-6.6,20.6
	c-0.9,1.5-1.8,3-2.8,4.6c0.7,0.1,1.2,0.2,1.8,0.2c3.3,0.2,6.4-0.8,9.5-1.9c3.7-1.3,7.3-3.1,9.8-6.4c0.9-1.2,2.4-1.5,3.4-0.7
	c0.8,0.6,1.7,1.2,2.1,2.1c1.3,2.7,2.5,5.5,3.4,8.4c0.9,2.8,1.5,5.7,2.1,8.6c1.2,6,2.3,12.1,3.3,18.2c1.3,7.9,2.5,15.8,2.2,23.9
	c-0.3,7.9-1.6,15.5-5.2,22.6c0,0,0.1,0.1,0.2,0.4c1.6-0.6,3.1-1.1,4.7-1.8c3.7-1.6,7-3.7,9.7-6.7c0.8-0.9,1.5-1.9,1.8-3
	c0.4-1.5,0.8-2.3,1.9-2.4c1.1-0.1,2,0.6,2.5,2c0.9,2.3,0.9,4.6,0.7,7c-0.5,4.1-1.7,8-3.3,11.9c-0.2,0.4-0.3,0.8-0.4,1.2
	c0.3-0.1,0.5-0.1,0.6-0.1c0.3-0.1,0.6-0.3,0.9-0.4c4.1-2.2,7.6-5.2,10.5-8.8c1.5-1.9,2.7-3.9,3.2-6.3c0.4-2.2,2.5-2.9,4.4-1.7
	c1.1,0.7,2.2,1.4,3.3,1.9c5.9,2.4,12,3.3,18.3,2.8c0.8-0.1,1.6-0.2,2.6-0.3c-3.1-4.6-4.3-9.6-5.1-14.8c-1-6.3-0.7-12.4,1.5-18.4
	c0.3-0.7,0.9-1.5,1.6-1.8c1.8-1,3.6-1.9,5.5-2.6c12.5-4.4,24.9-3.6,37.2,1.1c4,1.5,4.1,1.5,5.3,5.7c3.1,10.7,1.8,21-3.3,30.9
	c-0.2,0.3-0.4,0.7-0.6,1.2c0.8,0.1,1.4,0.2,2,0.3c7.9,0.6,15.5-0.4,22.3-4.8c1.7-1.1,3.6-0.1,4.3,1.9c0.6,1.8,1.3,3.7,2.3,5.2
	c3,4.3,7,7.6,11.7,10.1c0.3,0.2,0.6,0.2,1.1,0.4c-0.3-0.8-0.5-1.3-0.7-1.9c-1.5-3.6-2.6-7.4-3.1-11.3c-0.3-2.5-0.2-5,0.8-7.4
	c0.4-1,1.2-1.6,2.3-1.5c1,0.1,1.7,0.7,1.7,1.7c0.1,1.6,1,2.7,2,3.7c3.7,3.9,8.2,6.4,13.3,8c0.4,0.1,0.8,0.2,1.2,0.3
	c-0.8-2-1.6-3.7-2.2-5.6c-3-9.7-3.7-19.5-2.3-29.5c0.9-6.6,1.9-13.2,3-19.8c1.5-9.1,3-18.1,7.1-26.5c0.4-0.7,1-1.4,1.5-1.9
	c1.5-1.5,3.1-1.3,4.5,0.4c0.7,0.8,1.5,1.6,2.4,2.3c3.6,2.8,7.8,4.3,12.2,5.3c2,0.5,4,0.6,6.2,0.1c-0.3-0.4-0.4-0.7-0.6-1
	c-3.9-5.8-6.6-12.1-8-19c-0.5-2.4-0.7-4.8-0.7-7.3c0-1.4,0.3-2.8,0.8-4.1c0.9-2.2,3.1-2.8,5-1.5c3.4,2.4,7.2,3.3,11.1,3.9
	c1.8,0.2,3.6,0,5.6,0c-1.2-1.3-2.3-2.5-3.4-3.7c-6.3-6.8-10.1-14.8-11.9-23.8c-0.4-2.1-0.4-4.5-0.1-6.7c0.4-2.7,3-4,5.3-3
	c4.2,1.9,8.5,2.3,13,2c1-0.1,2.1-0.3,3.2-0.5c-0.2-0.3-0.3-0.4-0.4-0.5c-5.9-4.8-10.4-10.7-14.2-17.2c-2.3-4-4.5-8-5.2-12.6
	c-0.3-1.9-0.4-3.9,0-5.7c0.6-2.9,3.6-3.7,5.9-1.8c0.6,0.5,1.3,1.1,2,1.5c3,1.7,6.3,2,9.7,1.7c2.3-0.2,4.7-0.6,7-1.6
	c-0.4-0.4-0.6-0.8-0.9-1.1c-4-4.2-7.3-8.8-10.2-13.9c-8.8-15.1-13.3-31.6-15.2-48.8c-1-9.4-1.4-18.9-1.9-28.3
	c-0.6-12.9-2.4-25.7-5.5-38.3C281,96.4,272.5,74.8,257.5,56z M86.8,390.8c0.3-0.2,0.5-0.4,0.6-0.5c3.5-3.8,6.4-8.1,8.2-13
	c0.4-1,0.5-2.3,0.3-3.4c-2.2-8.4-4.6-16.8-6.9-25.2c-0.1-0.2-0.2-0.4-0.5-0.9c-0.3,0.4-0.4,0.7-0.7,0.9c-5,4.5-10.6,7.5-17.5,7.9
	c-2.8,0.2-5.5-0.2-7.9-1.9c-2.5-1.7-3-4.7-1.3-7.2c0.3-0.5,0.7-1,0.9-1.5c3.1-5.4,4.8-11.3,5.9-17.4c0.2-1.4,0.4-2.7,0.7-4.3
	c-0.8,0.4-1.5,0.6-2.1,0.9c-3.9,1.7-8,2.3-12.2,2c-2.4-0.1-4.7-0.7-6.7-2.1c-2.4-1.6-2.2-4.8-0.2-6.4c1.9-1.5,3.6-3.3,5-5.3
	c3.3-4.7,5.9-9.9,7.6-15.4c0.7-2.3,1.1-4.7,1.7-7c-2.6,0.4-4.9,0.9-7.2,1c-2.4,0.1-4.8,0-7.2-0.3c-2.9-0.4-5.7-1.2-8-3.2
	c-2.1-1.9-1.9-4.8,0.5-6.3c0.6-0.4,1.3-0.8,1.9-1.3c7.5-5.7,12.6-13.1,16.1-21.7c0.6-1.5,1-3,1.4-4.5c-0.3-0.1-0.3-0.1-0.4-0.1
	c-0.3,0.1-0.6,0.2-0.9,0.3c-3.4,1.1-7,1.7-10.6,1.7c-2.7,0-5.4-0.3-7.8-1.6c-1.2-0.6-2.4-1.5-3.3-2.5c-1.8-2-1.5-4.3,0.3-6.2
	c3.5-3.6,7.3-6.9,9.9-11.2c2.6-4.4,5.1-8.9,7.4-13.5c4-8.4,6.3-17.3,8.1-26.4c0.3-1.4,0.3-2.8,0.5-4.5c-0.6,0.4-1,0.6-1.3,0.9
	c-2.6,2.1-5.3,4.1-7.8,6.3c-13.5,11.8-24.4,25.6-31.9,41.9c-2.9,6.2-5.6,12.5-6.7,19.3c-0.9,5.6-1.4,11.2-2.4,16.7
	c-1.5,7.7,0,15.4,0.4,23.1c0.1,2,0.4,4,0.5,6c0.2,5.2,0,10.5-0.4,15.7c-0.6,6.8-1.8,13.5-4.7,19.7c-0.7,1.5-1.4,3.1-2.1,4.8
	c1.8,0.1,3.4-0.3,4.9-1c4.7-2.3,8.1-6,10.7-10.5c0.9-1.6,1.4-3.4,1.9-5.1c0.3-0.9,0.2-2,0.3-3c0.2-1.4,1.1-2.4,2.2-2.5
	c1.1-0.1,2.1,0.5,2.6,1.8c0.3,0.7,0.5,1.4,0.7,2.2c1.3,5.9,1.4,11.8,0.7,17.8c-0.9,6.9-2.7,13.6-6.9,19.3c-0.1,0.1-0.1,0.3-0.2,0.6
	c0.6,0,1,0,1.4-0.1c5.6-0.8,10.4-3.2,14.7-6.8c1.6-1.4,3-3.1,3.5-5.3c0.1-0.6,0.7-1.2,1.3-1.5c1.5-0.9,2.7-0.7,4.2,0.7
	c2.6,2.5,4.2,5.6,5.4,9c2.8,8.1,2.8,16.4,1.3,24.8c-0.4,2.4-1.1,4.8-1.6,7.3c0.3-0.1,0.6-0.2,0.9-0.3c7.2-3.4,13.2-8.3,17.8-14.8
	c1.8-2.6,3.2-5.4,3-8.8c-0.1-1.8,1.4-2.9,3.1-2.4c0.8,0.3,1.7,0.8,2.3,1.4c0.9,1,1.6,2.1,2.2,3.3c2.2,4.3,3.3,8.8,3.9,13.5
	C86.5,386.6,86.6,388.7,86.8,390.8z M300.6,191.9c0.1,1.5,0.2,2.6,0.4,3.8c1.8,9.7,4.3,19.1,8.6,28c4.3,8.9,9.3,17.2,16.8,23.8
	c2.2,1.9,2.1,4.4,0.2,6.6c-1.6,1.7-3.7,2.7-5.9,3.2c-5.2,1.2-10.3,0.4-15.4-1.1c-0.4-0.1-0.9-0.3-1.3-0.4c0,0.2-0.1,0.3-0.1,0.4
	c0.1,0.5,0.3,1.1,0.4,1.6c3.6,10.5,9.5,19.3,18.9,25.6c2.4,1.6,2.7,4.5,0.5,6.4c-0.9,0.7-1.9,1.3-3,1.8c-3.7,1.6-7.7,2-11.6,1.8
	c-2.5-0.2-5-0.6-7.6-1c0,0.2,0,0.5,0.1,0.8c1.1,7.1,4.1,13.5,7.7,19.6c1.7,2.9,4,5.2,6.4,7.4c1.9,1.7,2.1,4.3,0.1,5.9
	c-1,0.8-2.2,1.4-3.5,1.8c-5.2,1.5-10.2,0.7-15.2-1.1c-0.8-0.3-1.7-0.7-2.8-1.1c0.5,2.9,0.9,5.6,1.5,8.1c1.3,5.2,2.8,10.4,5.9,14.8
	c1.7,2.5,1.3,6.5-2.1,8.1c-2.2,1-4.6,1.4-7,1.3c-6.8-0.4-12.4-3.4-17.4-7.9c-0.3-0.2-0.6-0.5-0.8-0.7c-0.1,0.2-0.2,0.2-0.2,0.3
	c-2.4,8.7-4.8,17.5-7.2,26.2c-0.2,0.7,0,1.5,0.2,2.2c1.9,5.1,4.8,9.6,8.5,13.6c0.1,0.1,0.3,0.2,0.6,0.4c0-0.5,0-0.8,0.1-1.2
	c0.3-2.7,0.4-5.5,0.9-8.2c0.7-4.4,2.1-8.7,4.6-12.4c0.7-1,1.8-2,2.9-2.5c1.8-0.8,3.6,0.4,3.4,2.4c-0.2,3.5,1.3,6.3,3.2,9
	c4.6,6.4,10.5,11.2,17.6,14.5c0.3,0.1,0.6,0.2,1.1,0.4c-0.1-0.5-0.2-0.8-0.3-1.1c-2.1-7.4-3-15-2.1-22.7c0.7-5.5,2.1-10.7,5.4-15.2
	c0.8-1.1,1.8-2.1,2.9-2.9c1.7-1.2,3.9-0.2,4.7,1.7c0.6,1.4,1.3,2.9,2.3,4c3.9,4.2,8.9,6.5,14.5,7.8c0.9,0.2,1.7,0.2,2.6,0.3
	c-1.3-2.4-2.7-4.6-3.7-6.9c-3.1-7.3-4.2-14.9-3.7-22.8c0.2-3.3,0.9-6.6,1.6-9.8c0.3-1.7,1.6-2.4,2.8-2.2c1.2,0.2,2.1,1.3,2.2,2.9
	c0.1,1,0.1,1.9,0.3,2.9c1.2,5.4,4.5,9.4,8.5,12.8c1.8,1.6,3.8,2.8,6.2,3.3c0.8,0.2,1.7,0.2,2.7,0.3c-0.3-0.7-0.5-1.2-0.7-1.6
	c-1.5-4-3.2-7.8-4.4-11.9c-1.8-6.5-2.2-13.2-2.2-19.8c0-6.5,0.6-13,1-19.5c0.2-3.1,0.8-6.3,0.5-9.4c-0.6-7.2-1.6-14.4-2.5-21.5
	c-0.9-7.1-3.7-13.7-6.6-20.2c-8.5-19.1-21.5-34.7-37.8-47.6C303.2,193.8,302,193,300.6,191.9z M227.8,421.6c-6.9,3.7-14.3,5-22,4.7
	c-0.3,0-0.7,0.1-0.9,0.3c-3.7,4-5.1,8.5-3.5,13.8c1.5,4.7,4.6,8.3,8.3,11.3c8.8,7.1,19.2,10.4,30.3,11.3c2.3,0.2,3-0.4,3.5-2.7
	c0.1-0.5,0.2-1.1,0.1-1.7c-0.1-1.4-0.3-2.8-0.5-4.2c-0.6-3.1-1.2-6.1-1.9-9.2c-0.2-0.8-0.1-1.7,0.8-1.9c0.6-0.1,1.5,0.1,2,0.6
	c0.6,0.6,1.1,1.5,1.4,2.3c2,5.3,3.9,10.7,2.3,16.8c2.8-0.5,5.4-1,8-1.4c0.2,0,0.4-0.3,0.5-0.5c1.3-2.6,2.5-5.3,1.9-8.4
	c-0.5-2.4-1-4.8-1.5-7.3c-0.2-0.9-0.5-1.7-0.6-2.6c0-0.5,0.4-1.2,0.8-1.4c0.4-0.2,1.1-0.1,1.6,0.2c0.4,0.2,0.7,0.6,1,1
	c2.7,4.5,3.7,9.4,3,14.6c-0.1,0.7-0.3,1.3-0.5,2.1c2.5-1.1,4.5-2.5,6.3-4.2c3.5-3.5,4.9-7.7,3.8-12.6c-1-4.6-3.7-8.2-6.8-11.6
	c-0.2-0.2-0.6-0.4-1-0.4c-5.5-0.9-10.2-3.3-14.5-6.9c-0.5-0.5-1.1-0.9-1.7-1.4c0,0.3,0,0.5,0,0.6c1.1,4.2,1.9,8.5,4.1,12.4
	c0.2,0.4,0.4,0.8,0.4,1.2c0.2,1.5-0.7,2.5-2.2,2.5c-3.5-0.1-6.7-1.2-9.6-3C235.1,432.6,230.6,427.9,227.8,421.6z M115.2,421.5
	c-0.1,0-0.2-0.1-0.3-0.1c-0.2,0.1-0.3,0.2-0.5,0.4c-4.5,4-9.6,6.9-15.7,7.8c-0.3,0.1-0.7,0.2-0.9,0.5c-2.5,2.8-4.7,5.6-6,9.2
	c-1.8,5-1.3,9.6,2.1,13.8c1.8,2.1,4,3.7,6.4,5c0.3,0.1,0.5,0.2,1.1,0.4c-1.3-3.2-1-6.3-0.4-9.3c0.5-2.9,1.4-5.6,3.2-7.9
	c0.5-0.7,1.3-1.2,2.2-0.7c0.9,0.5,1,1.3,0.7,2.2c-0.4,1.4-0.9,2.7-1.2,4.1c-0.9,3.9-1.6,7.8,0.2,11.7c0.7,1.6,1.7,2.4,3.4,2.6
	c2,0.2,3.9,0.5,5.8,0.8c-0.2-1.7-0.5-3.2-0.4-4.6c0.2-4.6,1.5-9,3.4-13.2c0.3-0.6,0.7-1.2,1.2-1.6c0.5-0.3,1.3-0.5,1.7-0.2
	c0.4,0.2,0.7,1,0.8,1.6c0.1,0.5-0.1,1.1-0.2,1.7c-0.7,3.7-1.5,7.4-2.1,11.1c-0.3,1.5,0,3,0.8,4.4c0.4,0.7,0.9,1,1.7,0.9
	c8.6-0.5,16.8-2.6,24.4-6.7c5.1-2.8,9.7-6.3,12.9-11.2c3.6-5.4,4.7-12.1-0.9-18.3c-0.3-0.3-0.9-0.6-1.4-0.6
	c-3.9,0.1-7.8-0.2-11.7-1.1c-3.5-0.8-6.9-1.9-10.1-3.8c-1.3,3.3-3.2,6.1-5.6,8.6c-4.6,4.6-9.5,8.6-16.4,9c-0.9,0.1-1.8,0.2-2.4-0.6
	c-0.7-0.9-0.5-1.8-0.1-2.7c1.1-2.7,2.2-5.5,3.1-8.3C114.5,424.7,114.8,423.1,115.2,421.5z M109.2,54.1c5,1.2,9.8,1.3,14.6-0.3
	c0.3-0.1,0.6-0.7,0.6-1c0.1-6.2-1.2-12-4.7-17.2c-0.5-0.7-0.6-1.4,0.1-2.1c0.7-0.6,1.5-0.5,2.2,0.1c0.6,0.5,1.1,1.1,1.5,1.7
	c2.2,3.7,3.8,7.7,4.3,12c0.2,1.5,0.2,3,0.3,4.6c0.2,0,0.3-0.1,0.4-0.1c4.4-2.3,7.7-5.8,10.6-9.7c0.2-0.3,0.3-0.9,0.1-1.2
	c-1.9-5.3-5-9.6-10.1-12.3c-0.8-0.4-1.2-1-1-1.8c0.3-0.9,1.1-1.1,1.8-0.9c1.1,0.4,2.3,0.7,3.1,1.4c2,1.8,4,3.7,5.8,5.7
	c1.1,1.3,1.9,2.9,2.9,4.4c0.2-0.4,0.3-0.7,0.5-1c1.5-3.5,1.7-7.1,1.1-10.8c-1.4-9.7-9.4-18-19-19.4c-9.8-1.5-18,5.9-18,16.4
	c3.2,0.7,6.1,0.1,8.8-1.6c0.5-0.3,1.1-0.7,1.6-1c0.9-0.5,1.8-0.6,2.5,0.2c0.7,0.9,0.4,1.7-0.3,2.5c-0.4,0.4-0.9,0.8-1.4,1.2
	c-5.7,4-11.6,3.7-17.4,0.3C95.2,20.8,91.9,16,90,10.2c-0.3-1-0.6-2.1-0.9-3.2c-10,15.4-1,39.1,16.8,45.8c0.1-0.1,0.2-0.2,0.2-0.4
	c0.1-0.3,0.3-0.7,0.4-1c1.4-4.2,1.3-8.4,0.4-12.7c-0.3-1.4,0.1-2.3,1.1-2.5c1-0.2,1.7,0.4,2.1,1.8c0,0.1,0.1,0.2,0.1,0.3
	C111.6,43.7,111.6,48.9,109.2,54.1z M256.7,52.3c11.2-5.2,18-13.7,20.3-25.6c1.4-7.2-0.7-18.2-3.7-20.3c-0.7,3.2-1.8,6.2-3.5,8.9
	c-3,4.8-7,8.3-12.5,9.9c-5.3,1.5-10.1,0.4-14.1-3.3c-0.9-0.8-1-1.8-0.4-2.6c0.6-0.8,1.5-0.8,2.6-0.1c0.9,0.5,1.7,1.2,2.7,1.6
	c2.5,1.2,5.1,1.6,7.8,0.9c-0.1-0.6-0.1-1.1-0.1-1.6c-0.9-10.3-9.6-16.7-19.6-14.4c-10.7,2.4-18.7,13.5-17.5,25.1
	c0.2,2,0.7,4,1.8,5.9c0.3-0.5,0.5-0.8,0.6-1.1c2-3.6,4.5-6.7,7.9-9c1-0.7,2.2-1.1,3.4-1.5c0.7-0.2,1.5,0.1,1.7,0.9
	c0.2,0.8-0.2,1.4-0.9,1.8c-5,2.6-8,6.9-10.1,12c-0.3,0.8-0.2,1.4,0.3,2c2.1,2.2,4.1,4.6,6.4,6.7c1.2,1.2,2.9,1.9,4.5,3
	c0-0.6,0-0.8,0-1c-0.1-5.6,1.5-10.6,4.3-15.4c0.5-0.8,1.1-1.5,1.7-2.1c0.6-0.6,1.5-0.7,2.2,0c0.7,0.6,0.6,1.3,0.1,2.1
	c-0.5,0.8-1.1,1.6-1.5,2.5c-2.2,4.7-3.3,9.6-3.2,14.8c0,0.7,0.3,1,0.9,1.1c2.4,0.4,4.7,0.9,7.1,1c2.4,0.1,4.8-0.2,7.2-0.9
	c-2.8-7.4-2-10.6-0.7-16.1c0.3-1.3,1.1-1.9,2.1-1.7c1,0.2,1.3,1,1.2,2.4c-0.3,1.9-0.6,3.7-0.7,5.6C254.8,46.5,255.5,49.4,256.7,52.3
	z M266.4,56.9c0.2-0.2,0.4-0.3,0.5-0.4c7.6-6.4,16.4-10.5,26.1-12.6c3.6-0.8,7.2-1.3,10.8-0.4c1.7,0.4,2.1,1.1,1.7,2.8
	c-1,4.1-2.9,7.8-5,11.5c-5.1,9.2-11.4,17.5-18.1,25.4c-0.3,0.3-0.4,1-0.3,1.4c1.2,3.4,2.5,6.8,3.8,10.2c0.1,0.2,0.2,0.4,0.4,0.8
	c2.3-2.8,4.5-5.3,6.6-8c6.4-8,11.6-16.6,16.7-25.5c6.2-10.9,10.9-22.4,13.9-34.6c0.3-1.1,0-1.6-1.1-1.6c-2.6,0-5.3-0.2-7.9,0.1
	c-10.6,1.4-21.1,3.3-31.2,6.9c-1.2,0.4-2.5,0.6-4,0.9c-3.1,8.2-8.6,14.9-16.5,19.5C264,54.7,265.2,55.8,266.4,56.9z M76.9,94.6
	c1.5-3.9,2.9-7.6,4.2-11.3c0.1-0.3-0.2-0.9-0.4-1.2c-6.9-8-13.2-16.5-18.3-25.8c-2-3.6-3.8-7.2-4.8-11.2c-0.4-1.6,0-2.4,1.7-2.7
	c2-0.3,4.1-0.6,6.1-0.4c11.3,1.2,21.3,5.7,30.2,12.7c0.4,0.3,0.8,0.7,1.1,0.9c0.7-0.7,1.4-1.3,2.1-1.9c-0.2-0.2-0.3-0.3-0.4-0.4
	c-7.5-4.8-12.6-11.5-15.6-19.9c-0.2-0.5-0.7-0.9-1.2-1.1c-10.2-3.5-20.6-5.8-31.2-7.2c-3.2-0.4-6.3-0.9-9.6-0.3
	c-0.9,0.2-1.3,0.5-1,1.5c1.7,5.4,3,10.9,5.1,16.1c6.8,17,16.3,32.4,27.6,46.7C73.8,91,75.3,92.7,76.9,94.6z M265.9,386.6
	c-0.2,0-0.4,0.1-0.6,0.1c-0.2,6.1-0.3,12.3-0.4,18.4c0,0.4,0.4,0.9,0.8,1.2c7,4.8,16.4,4.3,22.8-1.2c3.9-3.4,6.3-7.7,8-12.5
	c0.3-0.7,0-1.1-0.5-1.5c-4.7-3.9-8.7-8.3-11.3-13.8c-0.1-0.1-0.2-0.2-0.3-0.3c-0.1,0.3-0.2,0.5-0.3,0.7c-1.8,5.6-3,11.3-2.6,17.2
	c0.2,3-2.4,4.6-5.1,3.2c-0.7-0.4-1.4-0.8-2-1.3c-3-2.3-5.3-5.3-7.4-8.5C266.7,387.8,266.3,387.2,265.9,386.6z M97.8,385.5
	c-0.2,0-0.3-0.1-0.5-0.1c-1,1.4-1.9,2.9-2.9,4.3c-2.1,2.8-4.4,5.4-7.5,7.2c-1.1,0.6-2.2,1-3.4,0.2c-1.3-0.8-1.8-1.9-1.9-3.5
	c-0.1-3.2-0.2-6.4-0.7-9.5c-0.4-2.8-1.3-5.5-2-8.3c-1.1,1.4-1.8,2.8-2.7,4.2c-2.5,3.9-5.7,7.1-9.2,10.1c-0.3,0.3-0.6,0.9-0.5,1.2
	c1.4,4.2,3.4,8,6.5,11.2c6.5,6.8,16.4,7.9,24.2,2.7c0.5-0.3,1-1,0.9-1.5C98.2,397.7,98,391.6,97.8,385.5z M280.4,79.9
	c8.6-9.7,16.2-20.3,21.3-32.7c-12.6,0.5-23.1,5.5-32.3,12.9C273.1,66.8,276.7,73.3,280.4,79.9z M61.5,46c5.1,12.5,12.7,23,21.5,32.9
	c1.8-3.5,3.4-6.9,5.2-10.2C90,65.4,92,62.3,94,59C84.5,51.4,74.1,46.4,61.5,46z"/>
<path fill="#BA17BA" d="M257.5,56c15,18.8,23.5,40.4,29.2,63.3c3.1,12.6,4.9,25.3,5.5,38.3c0.5,9.5,0.8,18.9,1.9,28.3
	c1.9,17.2,6.4,33.6,15.2,48.8c2.9,5,6.2,9.7,10.2,13.9c0.3,0.3,0.6,0.7,0.9,1.1c-2.3,1-4.6,1.5-7,1.6c-3.4,0.3-6.6,0-9.7-1.7
	c-0.7-0.4-1.4-0.9-2-1.5c-2.3-1.9-5.3-1.1-5.9,1.8c-0.4,1.8-0.3,3.8,0,5.7c0.8,4.6,3,8.6,5.2,12.6c3.7,6.5,8.3,12.4,14.2,17.2
	c0.1,0.1,0.1,0.2,0.4,0.5c-1.2,0.2-2.2,0.5-3.2,0.5c-4.5,0.4-8.9-0.1-13-2c-2.3-1-4.9,0.3-5.3,3c-0.3,2.2-0.4,4.5,0.1,6.7
	c1.8,9,5.6,17,11.9,23.8c1.1,1.2,2.2,2.3,3.4,3.7c-2,0-3.9,0.2-5.6,0c-3.9-0.5-7.7-1.5-11.1-3.9c-1.9-1.3-4-0.7-5,1.5
	c-0.5,1.2-0.8,2.7-0.8,4.1c0.1,2.4,0.2,4.9,0.7,7.3c1.4,6.8,4.2,13.2,8,19c0.2,0.3,0.4,0.6,0.6,1c-2.2,0.4-4.2,0.3-6.2-0.1
	c-4.4-1-8.6-2.4-12.2-5.3c-0.9-0.7-1.7-1.5-2.4-2.3c-1.4-1.7-3-1.9-4.5-0.4c-0.6,0.6-1.2,1.2-1.5,1.9c-4.1,8.4-5.6,17.4-7.1,26.5
	c-1.1,6.6-2.1,13.2-3,19.8c-1.4,10-0.7,19.9,2.3,29.5c0.6,1.9,1.4,3.6,2.2,5.6c-0.4-0.1-0.8-0.1-1.2-0.3c-5.1-1.6-9.6-4.1-13.3-8
	c-1-1-1.9-2.1-2-3.7c0-1-0.8-1.6-1.7-1.7c-1.1-0.1-1.9,0.5-2.3,1.5c-1,2.4-1.2,4.9-0.8,7.4c0.5,3.9,1.6,7.7,3.1,11.3
	c0.2,0.5,0.4,1.1,0.7,1.9c-0.5-0.2-0.8-0.3-1.1-0.4c-4.7-2.5-8.7-5.8-11.7-10.1c-1.1-1.5-1.7-3.4-2.3-5.2c-0.7-2-2.6-3-4.3-1.9
	c-6.8,4.4-14.4,5.4-22.3,4.8c-0.6,0-1.2-0.2-2-0.3c0.3-0.5,0.5-0.8,0.6-1.2c5.1-9.9,6.3-20.2,3.3-30.9c-1.2-4.2-1.3-4.2-5.3-5.7
	c-12.3-4.6-24.7-5.5-37.2-1.1c-1.9,0.7-3.7,1.6-5.5,2.6c-0.7,0.4-1.3,1.1-1.6,1.8c-2.2,6-2.5,12.2-1.5,18.4c0.8,5.2,2,10.2,5.1,14.8
	c-1,0.1-1.8,0.3-2.6,0.3c-6.3,0.5-12.4-0.4-18.3-2.8c-1.2-0.5-2.2-1.2-3.3-1.9c-1.9-1.2-4-0.5-4.4,1.7c-0.5,2.4-1.7,4.5-3.2,6.3
	c-2.9,3.6-6.4,6.6-10.5,8.8c-0.3,0.2-0.6,0.3-0.9,0.4c-0.1,0-0.2,0.1-0.6,0.1c0.2-0.5,0.3-0.9,0.4-1.2c1.6-3.8,2.8-7.7,3.3-11.9
	c0.3-2.4,0.2-4.7-0.7-7c-0.5-1.4-1.4-2.1-2.5-2c-1.1,0.1-1.5,0.9-1.9,2.4c-0.3,1.1-1,2.1-1.8,3c-2.7,3-6,5.1-9.7,6.7
	c-1.5,0.7-3.1,1.2-4.7,1.8c-0.1-0.3-0.2-0.4-0.2-0.4c3.6-7.1,4.8-14.8,5.2-22.6c0.4-8-0.9-16-2.2-23.9c-1-6.1-2.1-12.1-3.3-18.2
	c-0.6-2.9-1.2-5.8-2.1-8.6c-0.9-2.9-2.1-5.7-3.4-8.4c-0.4-0.8-1.3-1.5-2.1-2.1c-1.1-0.7-2.5-0.4-3.4,0.7c-2.6,3.2-6.1,5-9.8,6.4
	c-3,1.1-6.2,2.1-9.5,1.9c-0.5,0-1.1-0.1-1.8-0.2c1-1.6,1.9-3.1,2.8-4.6c3.6-6.4,6.1-13.2,6.6-20.6c0.1-1.6,0-3.2-0.3-4.8
	c-0.7-3.4-3.3-4.3-6.2-2.4c-4.8,3.1-10.2,3.8-16.1,3.7c0.5-0.6,0.8-1,1.1-1.3c4-4,7.5-8.5,10-13.7c2.5-5.3,4.7-10.8,4.7-16.8
	c0-0.9-0.1-1.9-0.4-2.8c-0.7-2.6-3.1-3.6-5.6-2.6c-5.1,2.2-10.4,2.4-15.9,1.3c0.3-0.3,0.4-0.5,0.6-0.7c8.3-7.1,14.3-15.9,18.2-26.1
	c0.8-2.2,1-4.7,1.3-7c0.1-0.9-0.1-1.8-0.5-2.7c-0.9-2.3-3.5-3.1-5.4-1.5c-4.2,3.6-9,4-14.1,3.2c-1.6-0.3-3.2-0.7-5-1.2
	c1.1-1.2,1.9-2.2,2.8-3.1c3-3.2,5.6-6.6,7.6-10.4c0.8-1.5,1.6-3,2.4-4.4c6.9-12.1,10.5-25.2,12.8-38.9c1.2-7.3,1.4-14.7,1.9-22.1
	c0.9-15.6,1.7-31.2,5.2-46.5c3.9-16.9,9.3-33.2,17.3-48.6c3.2-6.2,7.2-11.9,11.3-17.5c0.5-0.7,1-0.5,1.5-0.3c7,2.5,14,2.7,20.9-0.2
	c10-4.2,17.1-11.2,20.1-21.9c0.3-1.1,0.5-2.3,0.6-3.4c0-0.8,0.4-1.3,1.1-1.7c5.1-2.9,10.7-4.6,16.4-5.9c15.7-3.5,31.3-3,46.7,1.5
	c1.2,0.3,2.4,0.8,3.5,1.3c0.3,0.1,0.7,0.7,0.7,1c0.1,10.8,5.5,18.6,14,24.6c5.6,4,11.7,6.1,18.6,5.7c2.8-0.2,5.6-1,8.5-1.5
	C256.8,56.3,257.3,56.1,257.5,56z M158.5,99.5c0.4-0.6,0.7-0.9,1-1.3c4.8-6.2,7.7-13.2,7.7-21.1c0-2.5-0.3-5-1.5-7.4
	c-0.7-1.3-1.6-1.9-2.6-1.6c-1.1,0.3-1.6,1.2-1.7,2.7c0,0.9-0.2,1.8-0.6,2.6c-0.5,1.2-1.1,2.4-1.9,3.5c-6.2,8.7-14.5,14.4-24.8,17.2
	c-1.8,0.5-3.7,0.7-5.6,1c1.3-2.7,2.6-5.1,3.7-7.6c2-4.7,3.1-9.7,2.6-14.9c-0.2-1.9-1-3.7-1.7-5.5c-0.2-0.4-1.2-0.8-1.7-0.7
	c-0.4,0.1-0.7,1-0.9,1.6c-0.1,0.4,0.1,0.9,0.1,1.3c0,2.8,0.1,5.6,0,8.4c0,0.4-0.4,0.8-0.7,1.1c-1,0.8-2.1,1.4-3.1,2.3
	c-13.7,12.2-20.7,32.2-13.5,51.5c4.6,12.4,12.9,22,24.1,28.9c23.9,14.7,49,16.1,74.7,5.3c9.1-3.8,17.3-9.3,23.7-16.9
	c10.6-12.5,14.6-26.8,10.5-42.8c-2.9-11.4-9.3-20.9-18.3-28.5c-0.9-0.7-1.1-1.2-0.6-2.3c1-2.1,1.7-4.2,2.5-6.4
	c0.4-1.1-0.1-2.1-1-2.4c-0.9-0.3-1.8,0.1-2.3,1.3c-0.1,0.2-0.2,0.5-0.3,0.7c-1.1,2.4-2,4.9-3.3,7.2c-5.5,9.6-13.5,16.2-24.3,19.2
	c-1.6,0.4-3.2,0.6-5,1c0.2-0.5,0.3-0.7,0.5-1c2.7-4.6,4.2-9.6,5.2-14.7c0.3-1.8,0.2-3.8,0.1-5.6c-0.1-1.7-0.6-3.4-2-4.6
	c-1.4-1.2-2.8-0.9-3.6,0.8c-0.2,0.5-0.4,1-0.6,1.4c-5.2,12.1-13.7,20.7-26.2,25.1C164.5,99.1,161.6,99.6,158.5,99.5z M156.4,253.9
	c-0.9,3.8-2.7,7.1-5.4,9.7c-1.8,1.8-1.3,5,1.8,5.7c3.1,0.6,6.2,0.7,9.1-0.2c11.6-3.3,19.1-11,23.3-22.1c0.1-0.3,0.2-0.6,0.2-0.9
	c0-1-0.4-1.8-1.3-2.2c-1-0.4-1.8-0.1-2.5,0.7c-0.4,0.5-0.6,1-0.8,1.6c-4.3,9-10.9,15.5-20.8,18.2c-1.4,0.4-2.9,0.5-4.6,0.8
	c0.2-0.4,0.3-0.6,0.4-0.7c3.5-3.8,5.5-8.5,7.1-13.3c1-2.8,1.6-5.6,1.1-8.6c-0.3-2-1.1-3.1-2.3-3.3c-1.3-0.1-2,0.5-2.9,2.5
	c-4.4,9.2-11.5,15.2-21.4,17.7c-1.9,0.5-3.9,0.5-5.9,0.7c0-0.1-0.1-0.3-0.1-0.4c0.2-0.3,0.5-0.6,0.7-0.9c3.9-4.5,6.7-9.6,8.2-15.4
	c0.6-2.3,1-4.7,0.3-7.1c-0.3-1.1-0.9-1.9-2.1-1.9c-1.2,0-1.7,0.7-2.2,1.8c-0.6,1.3-1.1,2.7-1.9,3.9c-5.3,7.7-12.6,12.4-21.8,14
	c-0.9,0.1-1.8,0.1-2.9,0.2c0.6-0.8,0.9-1.2,1.2-1.6c3.7-4.7,6.2-10,8-15.6c1.2-3.6,1.1-7.3,0.3-10.9c-0.3-1.4-1.3-2.2-2.3-2.2
	c-1,0.1-1.7,0.9-1.9,2.4c-0.2,1.5-0.3,2.9-0.4,4.4c-0.5,8.7-4,16.2-9.8,22.7c-1.6,1.8-1.2,4,1.2,4.7c1.3,0.4,2.7,0.6,4.1,0.6
	c8.5,0.1,15.6-3.3,21.8-8.9c0.3-0.3,0.6-0.5,0.9-0.8c0,0.5-0.1,0.8-0.2,1c-1.6,3.4-3.5,6.5-6.3,9.1c-1.3,1.2-1.2,2.4,0.2,3.5
	c0.9,0.7,2,1.4,3.1,1.6c2,0.4,4.1,0.6,6.2,0.5c5.9-0.4,10.9-2.9,15.5-6.4C153.1,256.9,154.6,255.4,156.4,253.9z M214.4,312.8
	c0.1-0.1,0.1-0.2,0.2-0.2c0.4,0.2,0.7,0.4,1.1,0.6c3.1,1.9,6.5,3.3,10.1,4c3.6,0.7,7.3,1.5,10.7-1c1.3-1,1.8-2.1,0.9-3.6
	c-1.1-1.6-2.3-3.2-3.4-4.8c-1.8-2.4-3.7-4.9-5.4-7.3c-1.5-2.2-2.5-4.6-2.9-7.2c-0.2-1.4-0.6-2.8-0.9-4.2c-0.3-1.2-1.1-1.8-2-1.6
	c-1.2,0.2-1.4,1.1-1.4,2.2c0.2,5.2,1.2,10.2,4,14.6c1.4,2.2,2.9,4.3,4.4,6.4c0.6,0.8,1.2,1.6,1.9,2.5c-0.3,0.1-0.5,0.1-0.6,0.1
	c-0.5,0-1,0.1-1.4,0c-5.9-0.9-11.2-3-15.2-7.6c-0.8-0.9-1.5-1.8-2.4-2.5c-0.9-0.7-2-1-3-0.4c-1,0.6-1,1.6-0.9,2.6
	c0.6,4.5,1.5,8.8,3.7,12.8c0.7,1.3,1.3,2.6,2.1,4.1c-0.7-0.1-1.2-0.2-1.7-0.3c-7.1-2-12.8-6.3-17.3-12c-0.6-0.8-1.2-1.7-1.9-2.5
	c-0.7-0.9-1.7-1.2-2.8-1c-1.1,0.2-1.5,1.1-1.7,2.1c-0.1,0.3-0.1,0.7-0.2,1.1c-0.3,4.8,0.8,9.4,2.4,13.8c0.1,0.4,0.3,0.8,0.5,1.5
	c-3.1-1.5-5.9-3-8.2-5.1c-5.2-4.8-8.4-10.8-10.5-17.5c-0.2-0.6-0.4-1.3-0.7-1.9c-0.4-0.8-0.8-1.5-1.9-1.3c-1,0.2-1.3,1-1.2,1.8
	c0.1,1.6,0.2,3.2,0.6,4.7c1.1,3.9,2.7,7.5,5,10.9c3.7,5.5,8.5,9.9,14.9,12.1c1.3,0.4,2.7,0.9,4,1c2.5,0.3,4.2-1.9,3.3-4.3
	c-0.5-1.3-1.1-2.7-1.6-4c-0.5-1.4-0.9-2.9-1.4-4.5c0.3,0.2,0.5,0.2,0.5,0.3c3.9,3.8,8.4,6.7,13.6,8.5c2.7,0.9,5.4,1.8,8.2,1
	c3.2-1,4.6-1.9,2.8-5.3c-0.1-0.2-0.2-0.4-0.3-0.6C217.1,318.1,215.8,315.5,214.4,312.8z"/>
<path fill="#BA17BA" d="M86.8,390.8c-0.2-2.1-0.2-4.2-0.5-6.2c-0.5-4.7-1.7-9.3-3.9-13.5c-0.6-1.2-1.3-2.3-2.2-3.3
	c-0.6-0.7-1.4-1.2-2.3-1.4c-1.7-0.5-3.3,0.6-3.1,2.4c0.2,3.4-1.2,6.2-3,8.8c-4.6,6.5-10.6,11.4-17.8,14.8c-0.3,0.1-0.6,0.2-0.9,0.3
	c0.6-2.5,1.2-4.9,1.6-7.3c1.5-8.3,1.5-16.6-1.3-24.8c-1.2-3.4-2.7-6.5-5.4-9c-1.5-1.4-2.7-1.6-4.2-0.7c-0.5,0.3-1.1,0.9-1.3,1.5
	c-0.5,2.2-1.9,3.9-3.5,5.3c-4.2,3.7-9.1,6-14.7,6.8c-0.4,0.1-0.9,0.1-1.4,0.1c0.1-0.3,0.1-0.5,0.2-0.6c4.2-5.8,6.1-12.4,6.9-19.3
	c0.8-6,0.7-11.9-0.7-17.8c-0.2-0.7-0.4-1.5-0.7-2.2c-0.6-1.3-1.5-2-2.6-1.8c-1.1,0.1-2.1,1.1-2.2,2.5c-0.1,1,0,2-0.3,3
	c-0.5,1.8-1,3.6-1.9,5.1c-2.5,4.5-6,8.2-10.7,10.5c-1.5,0.7-3,1.1-4.9,1c0.7-1.7,1.4-3.3,2.1-4.8c2.9-6.3,4.1-12.9,4.7-19.7
	c0.4-5.2,0.6-10.5,0.4-15.7c-0.1-2-0.4-4-0.5-6c-0.3-7.7-1.8-15.3-0.4-23.1c1.1-5.5,1.5-11.2,2.4-16.7c1.1-6.8,3.9-13.1,6.7-19.3
	c7.5-16.3,18.4-30.1,31.9-41.9c2.5-2.2,5.2-4.2,7.8-6.3c0.3-0.2,0.6-0.4,1.3-0.9c-0.2,1.7-0.3,3.1-0.5,4.5c-1.7,9.1-4.1,18-8.1,26.4
	c-2.2,4.6-4.7,9.1-7.4,13.5c-2.6,4.3-6.4,7.6-9.9,11.2c-1.9,1.9-2.1,4.2-0.3,6.2c0.9,1,2.1,1.9,3.3,2.5c2.4,1.2,5.1,1.6,7.8,1.6
	c3.6,0,7.2-0.6,10.6-1.7c0.3-0.1,0.6-0.2,0.9-0.3c0.1,0,0.1,0,0.4,0.1c-0.5,1.5-0.8,3.1-1.4,4.5c-3.5,8.6-8.7,16-16.1,21.7
	c-0.6,0.5-1.3,0.8-1.9,1.3c-2.4,1.6-2.6,4.5-0.5,6.3c2.3,2,5.1,2.8,8,3.2c2.4,0.3,4.8,0.4,7.2,0.3c2.3-0.1,4.7-0.6,7.2-1
	c-0.5,2.3-1,4.7-1.7,7c-1.7,5.5-4.3,10.7-7.6,15.4c-1.4,2-3.1,3.8-5,5.3c-2,1.6-2.2,4.8,0.2,6.4c2,1.4,4.3,1.9,6.7,2.1
	c4.2,0.2,8.3-0.4,12.2-2c0.6-0.3,1.2-0.5,2.1-0.9c-0.2,1.6-0.4,3-0.7,4.3c-1.1,6.1-2.8,12-5.9,17.4c-0.3,0.5-0.6,1-0.9,1.5
	c-1.7,2.5-1.2,5.4,1.3,7.2c2.4,1.7,5.1,2,7.9,1.9c6.8-0.4,12.5-3.4,17.5-7.9c0.2-0.2,0.4-0.5,0.7-0.9c0.3,0.5,0.4,0.7,0.5,0.9
	c2.3,8.4,4.7,16.8,6.9,25.2c0.3,1,0.1,2.3-0.3,3.4c-1.8,4.9-4.7,9.2-8.2,13C87.2,390.5,87,390.6,86.8,390.8z"/>
<path fill="#BA17BA" d="M300.6,191.9c1.4,1.1,2.6,2,3.8,2.9c16.3,12.9,29.3,28.6,37.8,47.6c2.9,6.5,5.6,13.1,6.6,20.2
	c0.9,7.2,1.9,14.3,2.5,21.5c0.3,3.1-0.3,6.3-0.5,9.4c-0.4,6.5-1,13-1,19.5c0,6.7,0.4,13.4,2.2,19.8c1.2,4.1,2.9,7.9,4.4,11.9
	c0.2,0.4,0.4,0.9,0.7,1.6c-1.1-0.1-1.9-0.1-2.7-0.3c-2.3-0.6-4.4-1.8-6.2-3.3c-4-3.5-7.4-7.5-8.5-12.8c-0.2-0.9-0.2-1.9-0.3-2.9
	c-0.2-1.6-1-2.7-2.2-2.9c-1.2-0.2-2.5,0.6-2.8,2.2c-0.7,3.2-1.4,6.5-1.6,9.8c-0.5,7.8,0.6,15.5,3.7,22.8c1,2.3,2.4,4.5,3.7,6.9
	c-0.8-0.1-1.7-0.1-2.6-0.3c-5.5-1.2-10.5-3.6-14.5-7.8c-1-1.1-1.7-2.6-2.3-4c-0.7-1.9-3-2.9-4.7-1.7c-1.1,0.8-2.1,1.8-2.9,2.9
	c-3.3,4.5-4.7,9.7-5.4,15.2c-0.9,7.7,0,15.2,2.1,22.7c0.1,0.3,0.2,0.6,0.3,1.1c-0.5-0.2-0.8-0.3-1.1-0.4c-7.1-3.3-13-8.1-17.6-14.5
	c-1.9-2.7-3.4-5.5-3.2-9c0.1-2-1.6-3.2-3.4-2.4c-1.1,0.5-2.2,1.5-2.9,2.5c-2.5,3.7-3.8,8-4.6,12.4c-0.5,2.7-0.6,5.5-0.9,8.2
	c0,0.3,0,0.7-0.1,1.2c-0.3-0.2-0.4-0.3-0.6-0.4c-3.7-4-6.7-8.5-8.5-13.6c-0.2-0.7-0.4-1.5-0.2-2.2c2.3-8.8,4.8-17.5,7.2-26.2
	c0-0.1,0.1-0.1,0.2-0.3c0.3,0.3,0.6,0.5,0.8,0.7c5,4.4,10.6,7.4,17.4,7.9c2.4,0.2,4.8-0.2,7-1.3c3.4-1.6,3.8-5.6,2.1-8.1
	c-3.1-4.4-4.7-9.6-5.9-14.8c-0.6-2.6-1-5.2-1.5-8.1c1.1,0.5,1.9,0.8,2.8,1.1c5,1.8,10,2.5,15.2,1.1c1.2-0.4,2.5-1,3.5-1.8
	c2-1.6,1.8-4.2-0.1-5.9c-2.5-2.2-4.7-4.5-6.4-7.4c-3.6-6.1-6.6-12.5-7.7-19.6c0-0.3-0.1-0.6-0.1-0.8c2.6,0.3,5.1,0.8,7.6,1
	c4,0.2,7.9-0.2,11.6-1.8c1.1-0.5,2.1-1,3-1.8c2.2-1.9,1.9-4.8-0.5-6.4c-9.3-6.3-15.3-15-18.9-25.6c-0.2-0.5-0.3-1.1-0.4-1.6
	c0-0.1,0-0.2,0.1-0.4c0.4,0.1,0.9,0.3,1.3,0.4c5.1,1.5,10.2,2.2,15.4,1.1c2.3-0.5,4.3-1.4,5.9-3.2c2-2.1,2-4.7-0.2-6.6
	c-7.5-6.6-12.6-14.9-16.8-23.8c-4.3-8.9-6.8-18.4-8.6-28C300.8,194.5,300.7,193.4,300.6,191.9z"/>
<path fill="#F586F5" d="M227.8,421.6c2.8,6.3,7.3,11,13.1,14.6c2.9,1.8,6.1,2.9,9.6,3c1.4,0.1,2.4-1,2.2-2.5
	c-0.1-0.4-0.2-0.9-0.4-1.2c-2.2-3.9-3-8.1-4.1-12.4c0-0.1,0-0.3,0-0.6c0.6,0.5,1.2,1,1.7,1.4c4.2,3.5,9,6,14.5,6.9
	c0.3,0.1,0.7,0.2,1,0.4c3,3.4,5.8,7,6.8,11.6c1.1,4.9-0.3,9.1-3.8,12.6c-1.8,1.8-3.8,3.1-6.3,4.2c0.2-0.8,0.4-1.5,0.5-2.1
	c0.7-5.2-0.3-10.1-3-14.6c-0.2-0.4-0.6-0.9-1-1c-0.5-0.2-1.2-0.4-1.6-0.2c-0.4,0.2-0.8,0.9-0.8,1.4c0,0.9,0.4,1.7,0.6,2.6
	c0.5,2.4,1.1,4.8,1.5,7.3c0.6,3-0.6,5.7-1.9,8.4c-0.1,0.2-0.3,0.4-0.5,0.5c-2.6,0.5-5.2,1-8,1.4c1.6-6.1-0.3-11.5-2.3-16.8
	c-0.3-0.8-0.8-1.7-1.4-2.3c-0.5-0.4-1.4-0.7-2-0.6c-0.9,0.2-1,1.1-0.8,1.9c0.6,3.1,1.3,6.1,1.9,9.2c0.3,1.4,0.4,2.8,0.5,4.2
	c0.1,0.5,0,1.1-0.1,1.7c-0.5,2.3-1.1,2.9-3.5,2.7c-11.2-0.9-21.5-4.2-30.3-11.3c-3.8-3-6.9-6.6-8.3-11.3c-1.7-5.3-0.2-9.8,3.5-13.8
	c0.2-0.2,0.6-0.3,0.9-0.3C213.5,426.5,220.8,425.3,227.8,421.6z"/>
<path fill="#F586F5" d="M115.2,421.5c-0.4,1.6-0.7,3.2-1.2,4.7c-1,2.8-2.1,5.5-3.1,8.3c-0.4,0.9-0.6,1.9,0.1,2.7
	c0.6,0.8,1.5,0.7,2.4,0.6c6.9-0.4,11.8-4.4,16.4-9c2.4-2.4,4.3-5.2,5.6-8.6c3.2,1.9,6.6,3,10.1,3.8c3.8,0.8,7.7,1.2,11.7,1.1
	c0.5,0,1.1,0.3,1.4,0.6c5.7,6.1,4.5,12.9,0.9,18.3c-3.3,4.9-7.8,8.4-12.9,11.2c-7.6,4.1-15.8,6.2-24.4,6.7c-0.8,0.1-1.3-0.2-1.7-0.9
	c-0.8-1.4-1.1-2.9-0.8-4.4c0.7-3.7,1.4-7.4,2.1-11.1c0.1-0.5,0.3-1.1,0.2-1.7c-0.1-0.6-0.3-1.4-0.8-1.6c-0.4-0.2-1.3-0.1-1.7,0.2
	c-0.5,0.3-0.9,1-1.2,1.6c-1.9,4.2-3.2,8.6-3.4,13.2c-0.1,1.5,0.2,2.9,0.4,4.6c-1.9-0.3-3.8-0.6-5.8-0.8c-1.7-0.2-2.6-1-3.4-2.6
	c-1.8-3.9-1.1-7.8-0.2-11.7c0.3-1.4,0.8-2.8,1.2-4.1c0.2-0.9,0.2-1.7-0.7-2.2c-0.9-0.5-1.7,0-2.2,0.7c-1.8,2.3-2.7,5.1-3.2,7.9
	c-0.6,3.1-0.9,6.1,0.4,9.3c-0.5-0.2-0.8-0.3-1.1-0.4c-2.4-1.3-4.6-2.8-6.4-5c-3.4-4.2-3.9-8.8-2.1-13.8c1.3-3.5,3.6-6.4,6-9.2
	c0.2-0.2,0.6-0.4,0.9-0.5c6-1,11.1-3.8,15.7-7.8c0.1-0.1,0.3-0.2,0.5-0.4C115,421.4,115.1,421.5,115.2,421.5z"/>
<path fill="#B498B5" d="M109.2,54.1c2.4-5.2,2.4-10.4,0.9-15.6c0-0.1-0.1-0.2-0.1-0.3c-0.4-1.4-1.1-2-2.1-1.8
	c-1,0.2-1.4,1.1-1.1,2.5c0.9,4.3,1,8.5-0.4,12.7c-0.1,0.3-0.2,0.7-0.4,1c-0.1,0.1-0.2,0.3-0.2,0.4C88.1,46.1,79.1,22.4,89,7
	c0.3,1.1,0.6,2.2,0.9,3.2c1.9,5.8,5.2,10.6,10.6,13.7c5.8,3.4,11.6,3.7,17.4-0.3c0.5-0.3,0.9-0.7,1.4-1.2c0.7-0.7,1-1.6,0.3-2.5
	c-0.7-0.9-1.6-0.8-2.5-0.2c-0.5,0.3-1.1,0.7-1.6,1c-2.7,1.6-5.7,2.2-8.8,1.6c-0.1-10.5,8.2-17.8,18-16.4c9.5,1.4,17.6,9.7,19,19.4
	c0.5,3.7,0.4,7.3-1.1,10.8c-0.1,0.3-0.3,0.6-0.5,1c-1-1.5-1.8-3.1-2.9-4.4c-1.8-2-3.7-3.9-5.8-5.7c-0.8-0.7-2-1-3.1-1.4
	c-0.8-0.3-1.6,0-1.8,0.9c-0.3,0.9,0.2,1.4,1,1.8c5,2.7,8.1,7.1,10.1,12.3c0.1,0.3,0.1,0.9-0.1,1.2c-2.9,3.9-6.2,7.4-10.6,9.7
	c-0.1,0.1-0.3,0.1-0.4,0.1c-0.1-1.6-0.2-3.1-0.3-4.6c-0.5-4.3-2-8.3-4.3-12c-0.4-0.6-0.9-1.2-1.5-1.7c-0.7-0.6-1.5-0.7-2.2-0.1
	c-0.7,0.6-0.6,1.4-0.1,2.1c3.4,5.2,4.7,11,4.7,17.2c0,0.4-0.3,0.9-0.6,1C119,55.4,114.2,55.3,109.2,54.1z"/>
<path fill="#B498B5" d="M256.7,52.3c-1.1-3-1.8-5.8-1.7-8.8c0.1-1.9,0.4-3.7,0.7-5.6c0.2-1.4-0.2-2.2-1.2-2.4
	c-0.9-0.2-1.8,0.4-2.1,1.7c-1.3,5.5-2.1,8.7,0.7,16.1c-2.3,0.8-4.8,1-7.2,0.9c-2.4-0.1-4.7-0.7-7.1-1c-0.6-0.1-0.9-0.4-0.9-1.1
	c-0.1-5.2,1.1-10.1,3.2-14.8c0.4-0.9,1-1.6,1.5-2.5c0.4-0.7,0.6-1.4-0.1-2.1c-0.7-0.7-1.5-0.6-2.2,0c-0.7,0.6-1.3,1.3-1.7,2.1
	c-2.8,4.8-4.4,9.8-4.3,15.4c0,0.2,0,0.5,0,1c-1.7-1.1-3.3-1.8-4.5-3c-2.2-2.1-4.2-4.4-6.4-6.7c-0.6-0.6-0.6-1.2-0.3-2
	c2.1-5.1,5.1-9.4,10.1-12c0.7-0.4,1.1-0.9,0.9-1.8c-0.2-0.8-1-1.1-1.7-0.9c-1.2,0.4-2.4,0.8-3.4,1.5c-3.4,2.3-5.9,5.5-7.9,9
	c-0.2,0.3-0.4,0.7-0.6,1.1c-1.1-1.9-1.6-3.9-1.8-5.9c-1.2-11.7,6.8-22.7,17.5-25.1c10-2.3,18.7,4.1,19.6,14.4c0,0.5,0.1,1,0.1,1.6
	c-2.7,0.7-5.3,0.3-7.8-0.9c-0.9-0.4-1.8-1.1-2.7-1.6c-1.1-0.7-2-0.6-2.6,0.1c-0.6,0.7-0.5,1.8,0.4,2.6c4.1,3.7,8.9,4.8,14.1,3.3
	c5.5-1.6,9.5-5.1,12.5-9.9c1.7-2.7,2.8-5.7,3.5-8.9c3,2.2,5.1,13.2,3.7,20.3C274.6,38.6,267.8,47.1,256.7,52.3z"/>
<path fill="#BA17BA" d="M266.4,56.9c-1.2-1.2-2.4-2.2-3.6-3.4c7.9-4.7,13.4-11.4,16.5-19.5c1.5-0.3,2.8-0.5,4-0.9
	c10.1-3.6,20.6-5.5,31.2-6.9c2.6-0.3,5.3-0.1,7.9-0.1c1.1,0,1.4,0.5,1.1,1.6c-3,12.2-7.7,23.7-13.9,34.6
	c-5.1,8.8-10.3,17.5-16.7,25.5c-2.1,2.6-4.3,5.2-6.6,8c-0.2-0.4-0.3-0.6-0.4-0.8c-1.3-3.4-2.6-6.8-3.8-10.2c-0.1-0.4,0-1.1,0.3-1.4
	c6.8-8,13.1-16.3,18.1-25.4c2-3.7,4-7.4,5-11.5c0.4-1.7,0-2.4-1.7-2.8c-3.6-0.9-7.2-0.4-10.8,0.4c-9.7,2.1-18.4,6.2-26.1,12.6
	C266.8,56.7,266.7,56.8,266.4,56.9z"/>
<path fill="#BA17BA" d="M76.9,94.6c-1.6-1.9-3.2-3.6-4.6-5.3C61,74.9,51.5,59.5,44.8,42.5c-2.1-5.2-3.4-10.7-5.1-16.1
	c-0.3-1,0-1.4,1-1.5c3.2-0.6,6.4-0.1,9.6,0.3c10.6,1.5,21.1,3.7,31.2,7.2c0.5,0.2,1.1,0.6,1.2,1.1c3,8.4,8.1,15.1,15.6,19.9
	c0.1,0.1,0.2,0.2,0.4,0.4c-0.7,0.6-1.4,1.2-2.1,1.9c-0.3-0.2-0.7-0.6-1.1-0.9c-8.9-7-18.9-11.5-30.2-12.7c-2-0.2-4.1,0.1-6.1,0.4
	c-1.6,0.2-2.1,1.1-1.7,2.7c1,4,2.8,7.6,4.8,11.2C67.5,65.6,73.8,74,80.7,82c0.3,0.3,0.6,0.9,0.4,1.2C79.8,87,78.4,90.6,76.9,94.6z"
	/>
<path fill="#F586F5" d="M265.9,386.6c0.4,0.6,0.7,1.2,1.1,1.8c2,3.2,4.4,6.1,7.4,8.5c0.6,0.5,1.3,0.9,2,1.3c2.7,1.4,5.2-0.2,5.1-3.2
	c-0.3-5.9,0.8-11.6,2.6-17.2c0.1-0.2,0.2-0.4,0.3-0.7c0.1,0.1,0.3,0.2,0.3,0.3c2.6,5.6,6.6,10,11.3,13.8c0.5,0.4,0.8,0.7,0.5,1.5
	c-1.7,4.8-4.1,9.1-8,12.5c-6.5,5.5-15.8,6-22.8,1.2c-0.4-0.3-0.8-0.8-0.8-1.2c0.1-6.1,0.3-12.3,0.4-18.4
	C265.5,386.7,265.7,386.7,265.9,386.6z"/>
<path fill="#F586F5" d="M97.8,385.5c0.2,6.1,0.4,12.1,0.5,18.2c0,0.5-0.5,1.2-0.9,1.5c-7.8,5.2-17.7,4.1-24.2-2.7
	c-3.1-3.2-5.1-7-6.5-11.2c-0.1-0.3,0.2-1,0.5-1.2c3.5-3,6.7-6.2,9.2-10.1c0.8-1.3,1.6-2.7,2.7-4.2c0.7,2.8,1.6,5.5,2,8.3
	c0.5,3.1,0.6,6.4,0.7,9.5c0,1.6,0.6,2.7,1.9,3.5c1.2,0.7,2.3,0.4,3.4-0.2c3.1-1.8,5.4-4.3,7.5-7.2c1-1.4,2-2.9,2.9-4.3
	C97.5,385.5,97.6,385.5,97.8,385.5z"/>
<path fill="#F586F5" d="M280.4,79.9c-3.7-6.6-7.3-13.1-11-19.9c9.2-7.4,19.7-12.4,32.3-12.9C296.6,59.6,289.1,70.2,280.4,79.9z"/>
<path fill="#F586F5" d="M61.5,46c12.6,0.4,23.1,5.5,32.5,13c-2,3.3-4,6.5-5.8,9.7c-1.8,3.3-3.4,6.7-5.2,10.2
	C74.2,69,66.6,58.5,61.5,46z"/>
<path d="M158.5,99.5c3.2,0,6-0.4,8.7-1.4c12.5-4.5,21-13,26.2-25.1c0.2-0.5,0.4-1,0.6-1.4c0.8-1.7,2.2-2,3.6-0.8
	c1.4,1.2,1.9,2.9,2,4.6c0.1,1.9,0.2,3.8-0.1,5.6c-0.9,5.2-2.5,10.2-5.2,14.7c-0.1,0.2-0.2,0.5-0.5,1c1.8-0.3,3.4-0.5,5-1
	c10.8-3,18.7-9.6,24.3-19.2c1.3-2.3,2.2-4.8,3.3-7.2c0.1-0.2,0.2-0.5,0.3-0.7c0.5-1.2,1.4-1.7,2.3-1.3c0.9,0.3,1.4,1.3,1,2.4
	c-0.7,2.1-1.5,4.3-2.5,6.4c-0.5,1.1-0.3,1.6,0.6,2.3c9,7.6,15.4,17.1,18.3,28.5c4.1,16,0,30.3-10.5,42.8
	c-6.4,7.7-14.6,13.1-23.7,16.9c-25.8,10.8-50.8,9.4-74.7-5.3c-11.2-6.9-19.4-16.5-24.1-28.9c-7.2-19.3-0.3-39.4,13.5-51.5
	c1-0.8,2.1-1.5,3.1-2.3c0.3-0.3,0.7-0.7,0.7-1.1c0-2.8,0-5.6,0-8.4c0-0.4-0.2-0.9-0.1-1.3c0.2-0.6,0.5-1.4,0.9-1.6
	c0.5-0.1,1.5,0.3,1.7,0.7c0.7,1.8,1.5,3.7,1.7,5.5c0.5,5.2-0.6,10.1-2.6,14.9c-1,2.5-2.4,5-3.7,7.6c1.9-0.3,3.8-0.5,5.6-1
	c10.3-2.8,18.6-8.6,24.8-17.2c0.8-1.1,1.4-2.3,1.9-3.5c0.3-0.8,0.5-1.8,0.6-2.6c0.1-1.5,0.6-2.5,1.7-2.7c1-0.2,2,0.3,2.6,1.6
	c1.1,2.3,1.5,4.8,1.5,7.4c0,8-2.9,14.9-7.7,21.1C159.2,98.6,158.9,98.9,158.5,99.5z M129.3,84.5c-0.2-0.1-0.3-0.2-0.5-0.3
	c-1.6,2-3.4,3.9-4.9,6c-11.4,15.1-12.3,33.9-2.4,49.7c5.6,8.9,13.3,15.5,22.7,20c21.5,10.4,43.5,11.2,65.7,2.4
	c10.8-4.3,19.4-11.5,25.8-21.3c5.5-8.4,8-17.6,7.1-27.6c-1.3-13.2-7.9-23.3-18-31.5c-0.1-0.1-0.2-0.1-0.3-0.1
	c-1.4,1.8-2.7,3.6-4.2,5.3c-5.6,6.3-12.2,11.2-20.5,13.2c-2.9,0.7-5.8,1-8.7,0.3c-2.2-0.5-3.1-2.8-1.7-4.4c2-2.4,3.1-5.2,4.2-8.1
	c0.9-2.6,1.2-5.3,1.4-8.4c-0.4,0.6-0.6,0.9-0.8,1.2c-2.4,4.3-5.4,8.1-9,11.5c-5.6,5.3-11.9,9.3-19.5,11c-3.4,0.7-6.7,0.8-10.1,0
	c-2.9-0.7-3-3.1-1.4-4.7c4.4-4.6,6.5-10.3,7.4-16.4c0.1-0.9,0.2-1.8,0.3-2.9c-0.3,0.1-0.3,0.1-0.4,0.1c-0.3,0.4-0.7,0.9-1,1.3
	c-7,9.2-16.3,14.9-27.4,17.8c-2.5,0.6-5.1,0.8-7.6,0.1c-1.9-0.5-2.5-2.1-1.4-3.8c0.8-1.3,1.7-2.5,2.4-3.9
	C127.4,88.9,128.3,86.7,129.3,84.5z"/>
<path d="M156.4,253.9c-1.7,1.5-3.3,3.1-5,4.4c-4.6,3.5-9.6,6-15.5,6.4c-2,0.1-4.2-0.1-6.2-0.5c-1.1-0.2-2.2-0.9-3.1-1.6
	c-1.4-1.1-1.5-2.3-0.2-3.5c2.8-2.6,4.6-5.8,6.3-9.1c0.1-0.3,0.2-0.6,0.2-1c-0.3,0.3-0.6,0.5-0.9,0.8c-6.2,5.6-13.3,9-21.8,8.9
	c-1.4,0-2.8-0.3-4.1-0.6c-2.4-0.7-2.8-2.8-1.2-4.7c5.8-6.5,9.3-13.9,9.8-22.7c0.1-1.5,0.2-2.9,0.4-4.4c0.2-1.5,0.9-2.3,1.9-2.4
	c1.1-0.1,2.1,0.7,2.3,2.2c0.7,3.7,0.8,7.3-0.3,10.9c-1.8,5.6-4.3,10.9-8,15.6c-0.3,0.4-0.7,0.9-1.2,1.6c1.2-0.1,2.1,0,2.9-0.2
	c9.2-1.6,16.5-6.2,21.8-14c0.8-1.2,1.3-2.5,1.9-3.9c0.4-1,1-1.8,2.2-1.8c1.2,0,1.8,0.8,2.1,1.9c0.6,2.4,0.3,4.8-0.3,7.1
	c-1.5,5.8-4.3,10.9-8.2,15.4c-0.2,0.3-0.5,0.6-0.7,0.9c0,0.1,0.1,0.3,0.1,0.4c2-0.2,4-0.2,5.9-0.7c9.9-2.5,17-8.6,21.4-17.7
	c0.9-2,1.6-2.7,2.9-2.5c1.2,0.1,2,1.3,2.3,3.3c0.5,3-0.2,5.8-1.1,8.6c-1.7,4.8-3.6,9.5-7.1,13.3c-0.1,0.1-0.1,0.3-0.4,0.7
	c1.7-0.3,3.2-0.4,4.6-0.8c9.9-2.6,16.4-9.1,20.8-18.2c0.3-0.5,0.5-1.1,0.8-1.6c0.6-0.8,1.5-1.1,2.5-0.7c1,0.4,1.4,1.2,1.3,2.2
	c0,0.3-0.1,0.6-0.2,0.9c-4.2,11.2-11.7,18.8-23.3,22.1c-3,0.9-6.1,0.8-9.1,0.2c-3-0.6-3.6-3.8-1.8-5.7
	C153.7,260.9,155.4,257.7,156.4,253.9z"/>
<path d="M214.4,312.8c1.3,2.7,2.6,5.3,3.9,8c0.1,0.2,0.2,0.4,0.3,0.6c1.9,3.4,0.5,4.3-2.8,5.3c-2.8,0.8-5.5-0.1-8.2-1
	c-5.2-1.8-9.7-4.6-13.6-8.5c-0.1-0.1-0.2-0.1-0.5-0.3c0.5,1.6,0.9,3.1,1.4,4.5c0.5,1.4,1,2.7,1.6,4c0.9,2.4-0.7,4.6-3.3,4.3
	c-1.4-0.2-2.7-0.6-4-1c-6.5-2.2-11.2-6.5-14.9-12.1c-2.3-3.3-3.9-7-5-10.9c-0.4-1.5-0.5-3.1-0.6-4.7c0-0.8,0.3-1.6,1.2-1.8
	c1-0.2,1.5,0.5,1.9,1.3c0.3,0.6,0.5,1.3,0.7,1.9c2.1,6.7,5.3,12.7,10.5,17.5c2.3,2.1,5.1,3.6,8.2,5.1c-0.2-0.7-0.4-1.1-0.5-1.5
	c-1.6-4.5-2.7-9-2.4-13.8c0-0.4,0.1-0.7,0.2-1.1c0.3-1,0.6-1.8,1.7-2.1c1.1-0.2,2.1,0.1,2.8,1c0.7,0.8,1.2,1.7,1.9,2.5
	c4.6,5.7,10.2,10,17.3,12c0.5,0.1,1,0.2,1.7,0.3c-0.8-1.5-1.4-2.9-2.1-4.1c-2.2-4-3.1-8.4-3.7-12.8c-0.1-1-0.1-2,0.9-2.6
	c1.1-0.6,2.2-0.3,3,0.4c0.9,0.7,1.6,1.7,2.4,2.5c4,4.6,9.3,6.7,15.2,7.6c0.5,0.1,1,0,1.4,0c0.1,0,0.3-0.1,0.6-0.1
	c-0.7-0.9-1.3-1.7-1.9-2.5c-1.5-2.1-3-4.2-4.4-6.4c-2.8-4.5-3.9-9.4-4-14.6c0-1,0.2-1.9,1.4-2.2c0.9-0.2,1.7,0.4,2,1.6
	c0.4,1.4,0.7,2.8,0.9,4.2c0.4,2.6,1.4,5,2.9,7.2c1.7,2.5,3.6,4.9,5.4,7.3c1.2,1.6,2.4,3.1,3.4,4.8c0.9,1.5,0.5,2.5-0.9,3.6
	c-3.4,2.6-7.1,1.7-10.7,1c-3.6-0.7-6.9-2.1-10.1-4c-0.4-0.2-0.7-0.4-1.1-0.6C214.6,312.7,214.5,312.7,214.4,312.8z"/>
<path fill="#F586F5" d="M129.3,84.5c-1,2.2-1.9,4.5-3,6.6c-0.7,1.4-1.6,2.6-2.4,3.9c-1.1,1.7-0.5,3.3,1.4,3.8
	c2.5,0.7,5.1,0.5,7.6-0.1c11.1-2.8,20.4-8.6,27.4-17.8c0.3-0.4,0.7-0.9,1-1.3c0,0,0.1-0.1,0.4-0.1c-0.1,1-0.2,1.9-0.3,2.9
	c-0.9,6.2-3,11.8-7.4,16.4c-1.6,1.6-1.5,4,1.4,4.7c3.4,0.8,6.7,0.8,10.1,0c7.6-1.7,13.9-5.7,19.5-11c3.6-3.4,6.6-7.2,9-11.5
	c0.2-0.3,0.4-0.6,0.8-1.2c-0.1,3.1-0.4,5.8-1.4,8.4c-1,2.9-2.2,5.7-4.2,8.1c-1.4,1.7-0.5,3.9,1.7,4.4c2.9,0.7,5.8,0.4,8.7-0.3
	c8.4-2,14.9-6.9,20.5-13.2c1.5-1.7,2.8-3.5,4.2-5.3c0.1,0,0.2,0,0.3,0.1c10.1,8.2,16.8,18.3,18,31.5c1,10-1.6,19.2-7.1,27.6
	c-6.4,9.7-15,17-25.8,21.3c-22.2,8.8-44.2,8-65.7-2.4c-9.3-4.5-17.1-11.1-22.7-20c-9.9-15.8-8.9-34.6,2.4-49.7c1.6-2.1,3.3-4,4.9-6
	C129,84.3,129.1,84.4,129.3,84.5z M151,120.2c-1.7,0-2.5,1.4-1.9,2.6c0.4,0.7,0.9,1.3,1.5,1.9c4.3,4,9.5,6.1,15.2,7
	c6.4,1,12.7,0.7,18.8-1.4c0.3-0.1,0.9-0.1,1.1,0.1c0.8,0.9,1.5,1.9,2.3,2.8c2.7,3.1,5.4,6.1,8.1,9.2c0.6,0.7,1.4,1.2,2.3,0.7
	c1-0.5,1.6-1.3,1.5-2.5c-0.6-5.6-1.1-11.1-1.6-16.7c0-0.4,0.2-1.1,0.5-1.4c1.3-1.1,2.7-2.1,4-3.3c0.9-0.8,1.7-1.7,2.5-2.6
	c0.8-1,0.7-2.3-0.1-3.1c-0.8-0.8-2.1-0.9-3.2-0.1c-0.6,0.4-1.1,0.9-1.6,1.4c-3.2,3.5-7.1,6-11.3,8c-7.7,3.7-15.6,5.5-24.2,3.7
	c-4.4-0.9-8.3-3-12.1-5.4C152.2,120.7,151.4,120.4,151,120.2z M173.5,106.1c-2,0.2-3.7,0.6-5.3,1.7c-1.6,1.1-2.8,2.5-2.5,4.6
	c0.3,2.1,1.7,3.3,3.6,3.9c2.8,1,5.6,0.7,8.2-0.7c1.5-0.8,2.6-2,3-3.7c0.4-1.8-0.4-3.8-2.1-4.4C176.9,107,175.1,106.6,173.5,106.1z"
	/>
<path d="M151,120.2c0.4,0.2,1.2,0.5,1.9,1c3.7,2.5,7.6,4.5,12.1,5.4c8.5,1.8,16.5,0,24.2-3.7c4.2-2,8.1-4.5,11.3-8
	c0.5-0.5,1-1,1.6-1.4c1.1-0.8,2.3-0.7,3.2,0.1c0.8,0.8,0.9,2,0.1,3.1c-0.7,0.9-1.6,1.8-2.5,2.6c-1.3,1.1-2.7,2.1-4,3.3
	c-0.3,0.3-0.6,0.9-0.5,1.4c0.5,5.6,1.1,11.1,1.6,16.7c0.1,1.2-0.5,2-1.5,2.5c-1,0.4-1.7,0-2.3-0.7c-2.7-3.1-5.4-6.1-8.1-9.2
	c-0.8-0.9-1.5-1.9-2.3-2.8c-0.2-0.2-0.8-0.2-1.1-0.1c-6.2,2.1-12.5,2.4-18.8,1.4c-5.7-0.9-10.9-3-15.2-7c-0.6-0.5-1.1-1.2-1.5-1.9
	C148.5,121.5,149.3,120.2,151,120.2z M188.4,128.9c2.9,3.2,5.7,6.3,8.6,9.5c-0.5-4.6-1.1-8.9-1.6-13.3
	C193.2,126.4,191,127.6,188.4,128.9z"/>
<path d="M173.5,106.1c1.7,0.5,3.4,0.8,5,1.4c1.7,0.6,2.5,2.6,2.1,4.4c-0.4,1.7-1.5,2.9-3,3.7c-2.6,1.3-5.4,1.6-8.2,0.7
	c-1.9-0.6-3.3-1.9-3.6-3.9c-0.3-2.1,0.9-3.5,2.5-4.6C169.7,106.7,171.5,106.3,173.5,106.1z"/>
<path fill="#FFFFFF" d="M188.4,128.9c2.5-1.4,4.8-2.5,7.1-3.8c0.5,4.4,1,8.7,1.6,13.3C194.1,135.2,191.3,132.1,188.4,128.9z"/>
</svg>
