<?xml version="1.0" encoding="utf-8"?>
<!-- Generator: Adobe Illustrator 22.1.0, SVG Export Plug-In . SVG Version: 6.00 Build 0)  -->
<svg version="1.2" baseProfile="tiny" id="Layer_1" xmlns="http://www.w3.org/2000/svg" xmlns:xlink="http://www.w3.org/1999/xlink"
	 x="0px" y="0px" width="371.7px" height="452.4px" viewBox="0 0 371.7 452.4" xml:space="preserve">
<path d="M86.6,172.6c-0.2-6.9-0.4-13.8-0.6-20.7c-2.7,1.1-5.4,2.4-8.2,3.4c-9.5,3.5-19.1,6.3-29.2,7.4c-2.3,0.3-4.5,0.2-6.8,0.2
	c-0.8,0-1.7-0.3-2.5-0.7c-1.1-0.5-1.8-1.5-1.6-2.7c0.3-1.8,0.6-3.6,1.1-5.4c2.2-6.5,5.6-12.5,9.5-18.1
	c10.6-15.6,23.2-29.3,38.3-40.5c2.1-1.5,4.3-2.8,6.5-4.2c1.1-0.7,1.2-1.7,0.1-2.4c-4.1-2.8-6.6-7-8.8-11.2
	c-5.1-9.8-7.7-20.2-6.7-31.2c0.7-7.3,2.9-14.3,6-21c0.5-1,1.2-1.9,1.9-2.8c0.4-0.5,1-1,1.5-1.3c1.9-1.1,3.5,0,3.7,2.2
	c0.9,10.5,2.9,20.8,8.2,30.4c0.3-0.8,0.6-1.4,0.9-2.1c1.8-3.9,4.2-7.3,7-10.4c2.3-2.5,5.2-4.2,8.3-5.3c3.2-1.1,6.1-0.4,8.7,1.6
	c3.7,2.9,6.3,6.5,7.6,11.1c0.1,0.2,0.1,0.4,0.2,0.7c23.8-12.7,48.3-14.3,73.6-5.4c0.3-1.7,0.5-3.6,1-5.3c0.6-2,1.4-3.9,2.5-5.7
	c2.7-4.4,6.8-6.4,12-6c3.8,0.3,7.5,1.1,10.6,4c0-0.5,0.1-0.8,0.1-1.1c0.1-4.9-0.9-9.6-1.9-14.4c-0.7-3.4-1.7-6.8-2.6-10.2
	c-0.8-2.8,0.7-5,3.6-5.3c2.5-0.2,4.8,0.6,6.9,1.9c5.5,3.2,9.5,7.9,12.6,13.4c4.9,8.7,7.6,18.1,8.4,28c0.4,4.2,0.6,8.4,0.7,12.6
	c0.1,3.4-0.7,6.7-1.9,9.8c-0.3,0.7-0.3,1.1,0.3,1.6c1.2,1,2.3,2.1,3.6,3c4.8,3.3,9.5,6.6,14.5,9.6c3.1,1.9,6.5,3.3,9.9,4.9
	c0.5,0.2,1.2,0.2,1.9,0.1c4.9-0.7,9.6-0.2,13.7,2.7c1.7,1.2,3.4,1.9,5.3,2.4c7.6,2.1,13.7,6.6,18.8,12.5c7.9,9,12.3,19.6,14.4,31.3
	c0,0.2,0,0.3,0.1,0.5c0.1,0.4,0.2,0.8,0.3,1.4c0.3-0.3,0.6-0.5,0.8-0.7c3.2-3.1,7-5.5,11.1-7.3c1.5-0.7,2.7-0.3,3.8,0.6
	c1,0.8,0.9,2,0.6,3c-0.9,3-1.9,5.8-2.7,8.8c-1.1,4-2,8-2.9,12c0.1,0,0.2,0.1,0.3,0.1c0.2-0.2,0.5-0.3,0.7-0.5
	c4.8-3.8,10-6.8,16.3-7.7c0.4-0.1,0.8-0.2,1.2-0.2c1.8-0.2,2.9,1.3,2.2,2.9c-0.2,0.5-0.5,0.9-0.8,1.4c-4,6.8-8.5,13.3-11.7,20.5
	c-2.5,5.5-3.7,11.3-5,17.1c-1.6,7.6-3,15.3-4.6,22.9c-1.4,6.7-3.9,12.9-7.8,18.6c-1.7,2.5-3.5,4.9-5.3,7.3c-3.3,4.3-7.7,7-12.6,9
	c-3.2,1.3-6.6,2-10,2c-0.5,0-0.9,0.1-1.4,0.2c0,0.1,0,0.2,0.1,0.3c3.6,2,7.4,3.4,11.5,3.9c2.1,0.2,2.9,1.6,1.8,3.4
	c-3.9,6.5-9.9,9.3-17.2,10c-1,0.1-2.1,0-3.1,0c-0.1,0.1-0.2,0.2-0.2,0.3c0.9,1.2,1.5,2.8,2.7,3.5c10.2,6.3,16.2,15.4,19.3,26.7
	c2.4,8.5,2.7,17.2,1.8,25.9c-0.5,4.7-1.3,9.4-1.6,14c-0.5,5.8-0.4,11.7,2,17.2c1.3,2.9,2.7,5.8,4.9,8.2c0.1,0.1,0.2,0.2,0.3,0.4
	c1.7,2.1,1.6,3.1-0.8,4.8c0.3,0.3,0.5,0.7,0.8,1c3.2,4.1,5.3,8.6,5.4,13.9c0.1,5.7-2.1,10.4-6,14.4c-4.5,4.7-10.2,7.6-16.4,9.1
	c-20.1,4.9-38.8,1.8-55.9-10.1c-5-3.5-8.9-8-11.2-13.8c-2.2-5.6-2-11.1,0.9-16.4c0.1-0.2,0.2-0.4,0.3-0.5c0,0,0-0.1,0-0.1
	c-1.6-0.4-3.2-0.7-4.8-1.1c-0.7-0.2-1.5-0.4-2.1-0.8c-1.6-0.8-1.8-2.4-0.4-3.6c0.2-0.1,0.3-0.2,0.5-0.4c4.9-3.6,9-7.9,12.6-12.7
	c1.6-2,2.6-4.3,2.9-6.9c0.4-3.2,1-6.3,1.5-9.7c-0.6,0.3-0.9,0.5-1.3,0.7c-6.3,3.4-13,5.3-20.2,5.6c-1.5,0.1-3.2-0.5-4.6,0
	c-1.3,0.4-2.3,1.9-3.6,2.8c-7.7,5.2-16.2,8.5-25.1,10.8c-4.4,1.1-8.8,1.9-13.8,1.5c0.6,3.2,1,6.4,1.8,9.4c1.6,5.8,3.8,11.4,7.7,16.1
	c1.3,1.6,3.1,2.9,4.8,4.3c0.8,0.7,1.1,1.7,0.3,2.6c-0.7,0.9-1.7,1.5-2.5,2.2c0.9,2.6,2.1,5.2,2.8,7.9c2.3,8.9,1.3,17.6-1.9,26.1
	c-5.6,14.7-15.2,25.9-29.7,32.5c-7,3.2-14.3,4.4-21.9,2.6c-11.1-2.7-17.7-10-20.4-20.9c-2.4-9.5-0.9-18.8,2.8-27.8
	c0.7-1.6,1.4-3.2,2.2-4.8c-1,0.3-2,0.6-3,0.8c-1.5,0.2-2.3-0.4-2.5-1.9c-0.1-0.5-0.1-1,0-1.4c2.6-14.9-0.5-28.8-7.3-42.1
	c-2.5-4.8-5.2-9.5-7.6-14.3c-3-6.1-6-12.3-8.7-18.5c-1.3-2.9-2.1-6-3.2-9.2c-7.8,1.2-15.8,0.1-23.8-2.4c-0.2,0.6-0.4,1.2-0.6,1.8
	c-1.5,4.4-3.7,8.4-6.4,12.1c-1.2,1.7-1.9,3.4-2.2,5.5c-1,8.9-5.5,15.6-13.1,20.5c-4.1,2.6-8.4,2.7-12.9,1.8c-2.2-0.5-4.3-1-6.1-2.4
	c-2-1.5-3.4-3.4-3.9-5.8c-0.1-0.3-0.1-0.5-0.2-0.8c-1.3,0.7-2.6,1.4-3.9,1.9c-4.1,1.6-8.1,1.2-12-0.6c-6.4-3.1-10.8-8-14.1-14.2
	c-4.7-8.8-5.3-18.1-3.7-27.8c0.8-4.6,2.3-8.9,5-12.7c0.2-0.3,0.4-0.6,0.7-1.1c-1.4-0.2-2.7-0.2-3.8-0.5c-1.6-0.5-3.3-1-4.8-1.8
	c-1.9-1.1-1.8-2.7,0.2-3.8c1.9-1.1,3.8-2.2,5.7-3.3c3.9-2.3,6.5-5.8,9.6-9.2c-0.6,0-0.9,0-1.3,0c-5,0.5-9.7-0.4-14.1-2.8
	c-0.8-0.4-1.5-0.9-1.5-2c0-1,0.7-1.4,1.5-1.9c3.3-2.2,6.5-4.6,9.8-6.8c5.2-3.4,9.1-8,12.2-13.2c1.9-3.2,2.8-6.8,3.7-10.4
	c1.8-6.7,3.6-13.4,5.8-20c1.2-3.6,3-7.1,5.1-10.3c3.2-4.9,7-9.3,11.3-13.4c4-3.8,8.9-6.4,13.8-8.8c4.9-2.4,9.8-4.7,15.1-6
	c2.1-0.5,4.2-0.6,6.3-0.8C85.1,172.2,85.8,172.5,86.6,172.6z M315.5,228.8c-0.7-0.2-1.1-0.3-1.5-0.5c-7.1-2.6-13.4-6.3-17.9-12.5
	c-3.1-4.4-5.7-9.1-7.3-14.2c-1.4-4.3-2.6-8.7-3.6-13.2c-1.7-7.5-3.8-14.9-7.2-21.8c-0.5-1-1-1.7-2.1-2.1c-1.3-0.5-2.6-1.3-3.7-2.1
	c-5.7-4.2-9.7-9.7-12.7-16c-2.7-5.6-4.4-11.5-4-17.7c0.3-5.4,1.9-10.1,7.7-12.1c0.1,0,0.1-0.1,0,0c0-1.4-0.2-2.6,0-3.7
	c0.6-2.9-0.4-5.2-1.7-7.7c-4.5-9.1-9.2-18-15.8-25.8c-0.5-0.5-0.8-1-1.7-0.7c-5.2,1.3-10.2,0.7-15.1-1.5
	c-7.7-3.6-13.9-8.9-18.7-15.9c-2.5-3.7-4.2-7.6-4.8-12c0-0.4-0.4-0.9-0.8-1c-2.2-0.9-4.3-1.7-6.5-2.4c-5.6-2-11.5-2.5-17.3-3.1
	c-6.4-0.7-12.7-0.6-19,0.5c-5.1,0.9-10.1,2.5-15.1,4c-4.8,1.4-9.1,3.6-13.5,5.9c-0.6,0.3-0.7,0.6-0.7,1.3c0.4,3.3,1,6.6,0.6,9.9
	c-0.9,6.8-2.6,13.4-6.9,18.9c-4.8,6.1-11.2,9.5-18.9,10.1c-3.4,0.3-6.7-0.2-9.8-1.8c-0.1,0.2-0.3,0.4-0.3,0.6
	c-3.9,8.8-6,18.1-6.3,27.8c-0.2,7-0.4,14-0.5,21c-0.2,7.4-0.4,14.7-0.4,22.1c0.1,7.4,0.6,14.8-0.3,22.2c-1.1,9.1-3.1,17.9-8.4,25.7
	c-3.5,5.2-7.4,10-12.7,13.6c-1.9,1.3-3.8,2.8-5.9,4.3c2.4,0.8,4.6,1.8,6.9,2.4c5,1.5,10.1,2,15.3,1.1c2.6-0.5,5.1-1.4,7.6-2.2
	c2.1-0.6,3.1,0.1,3.1,2.2c0,1.3-0.2,2.6-0.5,3.8c-2.1,7.8-6.8,14-12.2,19.6c-4.5,4.6-9.6,8.5-16.1,10.9c1.4,0.9,2.5,1.8,3.7,2.3
	c7,3.1,14.2,3.4,21.4,1.1c2.3-0.7,4.4-1.9,6.6-3c1.8-0.9,3.2-0.3,3.3,1.7c0,1.2-0.2,2.5-0.6,3.6c-1.3,4.9-4.2,8.9-7.3,12.8
	c-4.7,5.8-9.8,11.2-16.2,15.2c-0.5,0.3-1,0.7-1.7,1.2c1.8,1,3.4,2,5.1,2.8c5.4,2.4,11.1,3.6,17,3.9c5.1,0.2,10.3,0.1,14.8-2.9
	c0.8-0.5,1.7-0.3,2.3,0.4c0.6,0.8,0.6,1.8-0.2,2.4c-0.9,0.8-1.9,1.4-3,1.9c-0.8,0.4-1.1,0.8-0.9,1.5c0.6,2,1,4,1.8,5.8
	c3.9,9.5,8.4,18.7,13.4,27.7c4.2,7.4,7.7,15.1,10,23.3c2.3,8.2,2.4,16.5,1.7,24.9c0,0.4-0.1,0.8-0.1,1.3c0.2-0.1,0.3-0.1,0.4-0.1
	c0.2-0.1,0.5-0.3,0.7-0.4c5.4-3.8,9.9-8.4,11.9-15c0.3-0.9,0.8-1.6,1.8-1.6c1,0,1.5,0.6,1.8,1.5c0.2,0.8,0.6,1.6,0.7,2.4
	c0.2,4.8,0.4,9.7,0.6,14.5c0,0.5,0,1,0,1.6c2.8-0.9,4.9-2.5,6.7-4.6c3-3.5,4.9-7.5,5.4-12.1c0.1-1.1,0.5-2.1,1.6-2.4
	c1.1-0.3,1.9,0.3,2.4,1.1c0.8,1.2,1.7,2.5,2.2,3.8c1.3,3.5,2.3,7,3.5,10.7c0.8-0.9,1.8-1.8,2.5-2.9c2.8-4.1,4.5-8.5,4.3-13.6
	c0-0.9,0.3-1.8,1.2-2c0.6-0.1,1.6,0,2.1,0.4c3.1,2.7,6.8,3.7,10.7,3.9c1.5,0.1,3-0.2,4.7-0.3c-1.2-1.3-2.2-2.3-3.1-3.4
	c-3.4-4-5.5-8.7-7.2-13.6c-1.8-5-2.8-10.1-2.6-15.4c0.1-2.3,0.9-2.9,3.1-2.8c1.8,0.1,3.6,0.1,5.4-0.1c8.1-1,15.8-3.6,23.2-7
	c5.2-2.4,10-5.3,13.8-9.8c0.7-0.8,1.4-1.7,2.6-1c1.2,0.8,0.6,1.8,0.1,2.7c0.1,0.1,0.1,0.1,0.1,0.1c0.2,0,0.3,0.1,0.5,0.1
	c7.6-0.1,14.7-2.1,21.3-6.2c0.7-0.4,1.4-1,1.9-1.6c0.7-0.8,1.3-1.4,2.4-0.9c1,0.5,1.4,1.3,1.3,2.5c-0.5,3.8-1,7.7-1.5,11.5
	c-0.5,3.3-1,6.6-2.9,9.4c-3.3,4.8-7.1,9.2-11.7,12.8c-0.2,0.2-0.6,0.2-0.9,0.3c0.1,0.2,0.3,0.5,0.4,0.7c1.5,0,3.1,0,4.6,0
	c4.7,0,9-1.4,12.6-4.5c1.6-1.4,3-2.9,4.4-4.4c0.8-0.9,1.7-1.1,2.8-0.7c1.1,0.4,1.4,1.3,1.3,2.3c-0.2,3.3-0.8,6.6-2.3,9.6
	c-0.9,1.7-1.8,3.5-2.7,5.2c-0.2,0.4-0.3,0.8-0.6,1.3c0.6-0.1,0.9-0.1,1.3-0.1c8.3-1.6,14.5-6,18.6-13.4c0.2-0.4,0.4-0.8,0.7-1.1
	c0.8-1,2-1,2.8-0.1c0.3,0.4,0.6,0.8,0.8,1.3c3.1,6.6,7.8,11.6,14.3,14.8c1.5,0.7,3.1,1.2,4.9,1.8c-0.6-3.6-1.2-6.9-1.6-10.2
	c-0.3-2.3-0.2-4.7-0.2-7c0-0.8,0.6-1.6,1.5-1.6c0.6,0,1.5,0.3,1.9,0.7c3,3.7,6.7,6.3,11.2,7.7c1.4,0.4,3,0.7,4.2,0.9
	c-1.3-2.6-2.8-5.2-4-8c-3.4-7.7-2.6-15.8-1.8-23.9c0.3-3.7,1.1-7.3,1.4-10.9c0.7-8.6,0.1-17.2-2.8-25.5c-4.8-14-14.3-23-29-26.1
	c-2.5-0.5-5.1-0.7-7.6-1.1c-1-0.1-1.6-0.7-1.6-1.8c0-1.1,0.8-1.5,1.7-1.6c0.4-0.1,0.8,0,1.2,0c4.1,0.1,8.2,0.9,12.1,2.1
	c0.4,0.1,0.8,0.2,1.4,0.4c-0.3-0.5-0.4-0.9-0.6-1.2c-0.4-0.9-0.6-1.8,0-2.6c0.6-0.8,1.5-0.8,2.5-0.7c1.5,0.1,3,0.1,4.5,0.2
	c4.1,0.3,7.6-1.5,11-3.5c1-0.6,1.8-1.6,2.8-2.5c-2.2-0.7-4-1.3-5.9-1.9c-6.4-2.3-11.4-6.6-16-11.3c-0.7-0.7-1-1.6-0.6-2.5
	c0.4-0.9,1.2-1.1,2.1-1.3c1.7-0.4,3.6-0.7,5.1-1.5c2.6-1.3,5-2.8,7.5-4.3C314.1,230,314.6,229.4,315.5,228.8z M92.1,234.3
	c-0.1-0.1-0.2-0.2-0.3-0.3c-0.4,0.1-0.7,0.2-1.1,0.3c-2.1,0.5-4.2,1.3-6.4,1.6c-6.9,0.8-13.6-0.2-20.1-3c-1.9-0.8-3.7-1.7-5.4-2.8
	c-1.6-1-1.3-2.6,0.2-3.6c3.2-2.2,6.5-4.4,9.6-6.7c6-4.6,10.2-10.7,13.2-17.4c3-6.8,4.4-14.2,4.7-21.7c0.1-1.7,0-3.5,0-5.1
	c-1,0.2-1.9,0.4-2.8,0.5c-1.5,0.2-3,0.2-4.4,0.6c-5.5,1.2-10.6,3.8-15.7,6.2c-5.4,2.6-10.6,5.7-14.6,10.4c-2.8,3.3-5.7,6.5-8.1,10.1
	c-1.9,2.8-3.5,5.9-4.6,9.1c-2,5.8-3.6,11.8-5.3,17.8c-1.1,3.8-1.8,7.8-3.5,11.4c-2.5,5.3-6.1,10.1-10.8,13.7
	c-3.3,2.6-6.8,5-10.3,7.5c-0.4,0.3-0.7,0.5-1.1,0.8c0,0.2,0,0.3,0.1,0.5c2.1,0.3,4.2,0.9,6.3,0.9c2.5,0,5.1-0.3,7.6-0.5
	c1.9-0.2,3,1.3,2.2,3c-0.2,0.4-0.4,0.9-0.7,1.2c-2,2.5-4,5-6.1,7.4c-2.6,2.8-5.5,5.1-9.2,6.3c-0.1,0-0.3,0.1-0.5,0.1
	c0.5,0.3,0.8,0.4,1,0.4c0.3,0.1,0.6,0.1,0.8,0.1c4.9,0.6,9.7-0.1,14.3-1.5c7-2.1,13.7-4.9,18.5-10.9c0.2-0.3,0.6-0.6,0.9-0.8
	c1.2-1,2.4-0.8,3.2,0.4c0.7,1.1,1.4,2.2,2,3.4c3.1,6.8,7.7,12.5,12.8,17.9c0.4,0.4,0.8,0.7,1.3,1.2c0.1-0.7,0.1-1.1,0.2-1.6
	c0.2-2.2,0.5-4.4,0.7-6.6c0.1-1,0.7-1.8,1.8-1.8c1.1-0.1,1.6,0.6,2,1.6c2.1,5.1,5.1,9.5,9.9,12.4c0.3,0.2,0.9,0.2,1.1,0
	c1.7-1.2,3.5-2.4,5.1-3.7c4.7-4,8.8-8.6,12.4-13.7c1.5-2.1,2.6-4.5,3.9-6.7c0.1-0.2,0.2-0.6,0.3-1c-1.4,0.5-2.6,1-3.8,1.4
	c-11.4,3.6-21.9,2.4-31.2-5.6c-1.6-1.4-1.3-3.2,0.7-3.7c6.5-1.9,11.7-5.8,16.6-10.3c4.3-3.9,7.4-8.8,10.1-13.9
	C90.8,238,91.4,236.1,92.1,234.3z M275.6,127c0.2-0.2,0.3-0.4,0.4-0.5c4.4-7.5,11-12.6,18.7-16.3c0.5-0.2,1-0.4,1.6-0.6
	c0.8-0.2,1.6-0.1,2,0.8c0.4,0.9,0,1.5-0.7,2c-0.7,0.5-1.4,0.9-2.1,1.3c-2.9,1.9-5.8,3.7-8.5,5.8c-3.7,2.8-6.7,6.3-8.6,10.6
	c-2.7,6.3-0.7,11.7,5.4,14.7c0.3,0.1,0.5,0.2,0.8,0.4c0.8,0.5,1.4,0.4,2.2-0.1c6.3-3.9,12.6-7.7,18.9-11.5c0.8-0.5,1.7-1,2.6-1.2
	c0.6-0.1,1.4,0.1,1.9,0.6c0.6,0.6,0.4,1.5-0.3,2c-0.7,0.7-1.6,1.3-2.4,1.8c-5.8,3.6-11.6,7.3-17.5,10.8c-2.2,1.3-3,3.2-3.2,5.5
	c-0.5,6.5,5.9,11.9,13.9,9.8c5.5-1.5,10.2-4.9,14.6-8.6c0.5-0.4,0.9-0.9,1.4-1.3c0.8-0.6,1.6-0.8,2.4-0.1c0.8,0.7,0.6,1.6,0,2.4
	c-0.5,0.6-1,1.2-1.6,1.6c-2.1,1.7-4.3,3.4-6.5,4.9c-3.9,2.6-8.2,4.4-12.9,5.3c-0.2,0-0.6,0.4-0.6,0.7c-0.4,5.1,1.6,10.4,7.8,12
	c2.5,0.6,4.9,0.6,7.4,0.1c8.1-1.8,14.4-6.5,19.1-13.2c1.4-2,2.9-4.3,3.5-6.6c2.1-7.4,2.6-15,1.6-22.7c-1.5-11.4-5.5-21.8-12.8-30.8
	c-5.1-6.3-11.2-11-19.2-13.1c-1.2-0.3-2.4-0.9-3.4-1.7c-3.5-2.6-7.5-3.7-11.8-3.1c-9.8,1.4-16.4,7.2-20.6,15.9
	c-1.7,3.6-2.4,7.5-1.8,11.6C267.9,121.2,270.7,124.9,275.6,127z M283.9,170.7c0.3,0.9,0.6,1.5,0.8,2.1c1.8,6.7,3.8,13.3,5.5,20
	c1.7,6.7,4.1,13.1,7.8,19c3.6,5.8,8.9,9.5,15.1,12.1c1.7,0.7,3.7,1.1,5.5,1.6c1.4,0.4,2.1,1.5,1.5,2.6c-1.1,2.2-2.3,4.2-4.5,5.5
	c-3.7,2.2-7.2,4.6-11.7,6c1.2,0.7,2.1,1.7,3.1,1.9c10.7,1.6,19.7-1.6,26.8-9.8c1.5-1.7,2.7-3.6,4-5.4c4-5.5,6.6-11.7,8-18.3
	c1.3-6.5,2.7-13,3.8-19.5c2.1-12.2,5.9-23.6,12.7-34c1.3-2,2.5-4,3.7-6c-0.2-0.1-0.3-0.1-0.3-0.1c-0.2,0-0.3,0.1-0.5,0.1
	c-4.8,1.6-9,4.1-12.5,7.7c-1.4,1.5-2.7,3.1-4.1,4.6c-1.1,1.2-2.1,1.4-2.9,0.7c-0.8-0.7-0.7-1.8,0.1-3c0.3-0.5,0.6-1.1,0.7-1.7
	c0.9-8,2.6-15.9,5.5-23.4c0.2-0.4,0.3-0.9,0.5-1.4c-0.3,0-0.4,0-0.5,0.1c-3.9,2.1-7.7,4.5-10.4,8.1c-0.6,0.8-0.8,1.5-0.8,2.5
	c0,6.6-0.2,13.2-2.9,19.5c-5.2,11.8-13.8,19.4-26.6,21.5c-5.4,0.9-10.5-0.4-14.4-4.8c-0.2-0.2-0.5-0.4-0.8-0.5
	c-2.9-0.5-5.3-2-7.6-3.7C287,173.4,285.6,172.1,283.9,170.7z M36.7,336.8c-0.1-0.1-0.1-0.1-0.2-0.1c-0.3-0.1-0.7-0.2-1-0.4
	c-5.1-1.8-9.1-5-11.9-9.7c-2.2-3.7-3.7-7.7-4.3-12c-0.6-4.4-0.4-8.7,1.4-12.8c0.4-0.9,1.1-1.8,1.8-2.4c0.4-0.3,1.4-0.3,1.8,0
	c0.4,0.3,0.5,1.3,0.3,1.8c-2.6,5.5-2.6,11.2-0.8,16.8c2.1,6.8,5.8,12.3,12.9,14.7c3.1,1.1,6.1,0.5,8.5-1.8c2.4-2.3,3.5-5.2,2.3-8.5
	c-0.7-1.9-1.7-3.7-2.6-5.5c-0.4-0.8-0.9-1.6-1.2-2.5c-1.7-3.8-0.6-7.4,1.1-10.9c0.5-1,1.6-1.3,2.4-1c0.8,0.4,1.2,1.4,0.8,2.5
	c-0.1,0.3-0.2,0.5-0.3,0.8c-1.6,3.6-1.6,7,1.1,10.2c0.2,0.2,0.4,0.5,0.5,0.8c1.3,2.6,2.5,5.2,2.4,8.2c-0.2,4.7-3.4,10-8.8,11.4
	c-0.4,0.1-0.9,0.4-1.1,0.8c-1.4,3.8,0.5,7.9,4.4,9c2.1,0.6,4.3,0.9,6.5,1.1c2.1,0.2,4-0.4,5.8-1.4c6.8-4.1,10.9-9.9,11.8-17.9
	c0.3-2.6,1.2-4.8,2.6-7c1.9-2.8,3.5-5.7,5.2-8.6c0.6-1.1,0.9-2.4,1.3-3.6c0.3-0.8,0-1.3-0.9-1.8c-2.1-1.2-4.1-2.5-6.1-4
	c-1.6-1.2-1.6-1.8-0.6-3.6c-3.3-2-5.7-4.9-7.8-8c-0.2,1.5-0.3,2.9-0.4,4.3c-0.3,2-1.8,2.8-3.6,1.7c-0.6-0.3-1.2-0.7-1.6-1.2
	c-1.8-1.8-3.8-3.6-5.5-5.6c-4.2-5-8.2-10.1-11.2-15.8c-1.9,1.5-3.8,3.1-5.8,4.4c-6.2,4.1-13,6.4-20.3,7.5c-0.5,0.1-1.3,0.2-1.6,0.6
	c-3.2,4.5-5.7,9.2-6.4,14.8c-1.2,8.9-0.7,17.4,3.8,25.5c2.9,5.2,6.6,9.4,12,12c3.2,1.5,6.5,1.8,9.7,0.3
	C34.7,339.2,36.2,338.5,36.7,336.8z M162.8,448.5c-1.1-4.2-0.8-8.4-0.7-12.6c0.1-3.7,0.8-7.4,2.3-10.8c0.7-1.6,1.7-2.2,2.8-1.7
	c1.1,0.5,1.3,1.6,0.7,3.1c-0.4,1.1-0.9,2.2-1.1,3.4c-1.2,4.9-1.1,9.8-0.9,14.8c0.1,1.1,0.4,2.3,0.6,3.6c2.4-0.7,4.6-1.2,6.7-2
	c17.6-6.5,31.7-25.8,32.5-44.6c0.3-6.2-0.8-12-3.9-17.4c-0.3-0.5-0.6-1-1.3-0.9c-4.3,0.2-8.3-0.7-12.1-2.8c0,0-0.1,0-0.3,0.1
	c-0.1,0.3-0.1,0.6-0.2,0.9c-0.8,4.8-2.6,9.1-5.7,12.8c-1,1.2-2.3,2.3-3.7,3.1c-2.5,1.4-4,0.4-4.6-2.4c-0.7-3.4-1.7-6.7-2.6-10
	c-0.1,0-0.3,0-0.4,0c-0.2,0.4-0.3,0.8-0.5,1.2c-1.8,5-4.6,9.3-9,12.4c-1.8,1.3-3.8,2.2-6.1,2.4c-2.4,0.2-3.4-0.7-3.3-3.1
	c0.1-3.7,0.1-7.4,0.1-11.2c0-0.2-0.1-0.4-0.1-0.7c-2.8,3.7-5.7,7.3-7.9,11.3c-3.8,7-6.5,14.3-6.9,22.4c-0.4,7.2,1.1,14,5.5,19.9
	c0.6,0.8,1.4,1.6,2.1,2.4c0.2-0.7,0.1-1.3,0.1-1.9c-0.4-6.8,1.3-13.1,4.7-18.9c0.7-1.2,1.8-1.5,2.7-0.9c0.9,0.5,1,1.5,0.4,2.8
	c-0.7,1.4-1.4,2.9-2,4.4c-2.1,5.7-2.9,11.4-1.1,17.4c0.2,0.5,0.6,1.1,1.1,1.4c2.8,1.4,5.8,2.2,9,2.3
	C160.7,448.5,161.7,448.5,162.8,448.5z M270.7,355.1c-0.1-0.1-0.2-0.1-0.3-0.2c-3.8,4-8.6,5.7-13.8,6.6c-0.3,0.1-0.7,0.4-0.9,0.7
	c-0.8,1.7-1.8,3.3-2.3,5.1c-1.5,5.4,0.1,10.3,3.2,14.7c2.4,3.6,5.6,6.5,9.2,8.8c12.7,8.3,26.7,11.2,41.6,9.9
	c1.8-0.2,3.5-0.5,5.4-0.7c0-0.5,0-0.9,0-1.3c-0.6-5.2-2.2-10-5-14.3c-1.5-2.2-3.3-4.1-5.4-5.7c-0.4-0.3-0.4-1-0.6-1.5
	c0.5-0.1,1.1-0.5,1.6-0.3c0.8,0.3,1.6,0.7,2.3,1.3c4.9,3.8,7.6,9.1,9.2,14.9c0.5,2,0.7,4.1,1,6.2c5.4-1.4,10.3-3.6,14.5-7.4
	c0.3-0.3,0.5-1,0.4-1.4c-0.6-2.4-1-4.9-2-7.1c-2-4.6-5-8.5-9.1-11.4c-0.8-0.6-1.4-1.3-0.8-2.3c0.4-0.8,1.4-1,2.5-0.2
	c1,0.7,2.1,1.4,2.9,2.2c3.4,3.2,5.8,7.1,7.5,11.4c0.6,1.6,1.1,3.4,1.7,5.2c2.4-3.6,3.3-7.3,2.5-11.5c-0.9-5-3.7-9-7.3-12.5
	c-0.3-0.3-0.9-0.5-1.4-0.6c-4-1.1-7.9-2.5-11.1-5.2c-0.4-0.3-0.8-0.6-1.4-1c0.3,1.9,0.5,3.5,0.8,5.1c0.4,2.6,0.9,5.2,1.3,7.8
	c0.4,2.3-0.8,3.5-3.1,3.2c-0.2,0-0.5-0.1-0.7-0.1c-7.6-1.6-13.7-5.6-18.4-11.7c-1.2-1.5-2.2-3.1-3.3-4.7c-0.2,0.2-0.4,0.4-0.5,0.7
	c-5.6,8-13.5,12-23.1,12.9c-1.1,0.1-2.2,0-2.9-1c-0.7-1-0.2-2,0.2-2.9c1.3-2.5,2.6-5,3.9-7.6C269.6,357.7,270.1,356.4,270.7,355.1z
	 M230.8,3.7c0.2,0.7,0.3,1.3,0.5,2c0.8,3.3,1.7,6.6,2.5,10c1.7,7.4,2.4,14.8,1.1,22.4c-0.6,3.6-1.5,7.1-3.1,10.4
	c-0.6,1.2-1.5,1.5-2.4,1.1c-0.9-0.4-1.3-1.4-0.7-2.6c1.5-3,2-6.3,2.5-9.6c0.1-0.5-0.1-1.1-0.3-1.5c-1.7-2.8-4.3-4.2-7.4-4.8
	c-6-1.1-9.9,0.4-12.1,5.4c-2.9,6.6-3.1,13.4,0.5,19.9c4,7.1,9.7,12.6,16.9,16.4c3.4,1.8,6.9,2.9,10.8,2.7c5.6-0.2,10.1-2.6,13-7.5
	c0.2-0.4,0.4-0.8,0.7-1.3c-5.1,0.8-9.6-0.4-13.7-2.9c-0.8-0.5-1.5-1.2-2.2-1.9c-0.2-0.2-0.2-0.7-0.1-0.8c0.1-0.2,0.6-0.3,0.8-0.2
	c0.5,0.2,0.9,0.4,1.4,0.7c4.4,2.5,9,3.4,14,2.6c0.4-0.1,1-0.5,1.1-1c0.3-1,0.6-2.1,0.7-3.2c0.3-2.4,0.4-4.8,0.7-7.4
	c-0.5,0.1-0.6,0.1-0.8,0.2c-3,1-6.1,1.3-9.2,1c-1.9-0.2-3.7-0.8-5.5-1.3c-0.4-0.1-0.6-0.7-0.8-1.1c0.5-0.1,0.9-0.2,1.4-0.3
	c0.3,0,0.5,0.1,0.8,0.2c4.2,1.1,8.4,0.9,12.6-0.2c0.9-0.2,1.5-0.5,1.4-1.6c-0.1-1,0-2.1-0.1-3.1c-0.3-2.2-0.7-4.5-1-6.8
	c-3.2,1.9-6.5,2.5-9.9,2.3c-1.4-0.1-2.9-0.5-4.3-0.9c-0.4-0.1-0.7-0.8-1.1-1.2c0.5-0.2,1-0.5,1.5-0.5c0.9,0,1.8,0.1,2.7,0.2
	c3.4,0.1,6.6-0.5,9.6-2c0.6-0.3,0.9-0.6,0.8-1.4c-1.3-6.4-3.2-12.5-6.4-18.2c-2.9-5.1-6.5-9.5-11.5-12.6
	C234.3,4.2,232.7,3.5,230.8,3.7z M112.1,89.5c0.7-0.2,1.2-0.4,1.6-0.5c7.1-2.7,11.6-7.8,14.3-14.8c2.5-6.7,3-13.5,1.6-20.5
	c-1.1-5.2-2.9-9.9-7.2-13.2c-2.2-1.7-4.4-2.1-7-1c-3.4,1.4-6.1,3.8-8.3,6.7c-2.5,3.4-5,6.9-5.4,11.3c0,0.5,0.1,1.2,0.4,1.6
	c1.3,1.9,2.7,3.7,4.7,4.9c0.9,0.5,1.3,1.4,0.8,2.4c-0.5,1-1.5,1-2.4,0.6c-0.5-0.2-1.1-0.5-1.4-0.9c-1.6-1.8-3.3-3.5-4.5-5.5
	c-1.7-2.7-3-5.7-4.3-8.6c-2.9-6.1-4.9-12.5-5.7-19.3c-0.3-2.6-0.7-5.1-1-7.6c-0.1,0-0.2,0-0.3-0.1c-3.6,6.8-5.8,14-6.7,21.6
	c-1,8.8,0.7,17.3,4.3,25.5c3.7-0.9,6.7-2.7,9.3-5.1c0.4-0.4,1.4-0.8,1.7-0.6c0.7,0.6,0.3,1.4-0.2,2c-0.2,0.3-0.5,0.6-0.7,1
	c-2.1,2.6-4.8,4.1-7.9,4.9c-0.3,0.1-0.7,0.2-1.3,0.4c1.7,2.7,3.4,5.3,5,7.8c0.2,0.3,0.8,0.5,1.1,0.4c4.8-1.1,8.8-3.3,10.9-8.1
	c0.1-0.3,0.2-0.6,0.4-0.7c0.5-0.3,1-0.5,1.5-0.7c0.2,0.5,0.7,1.1,0.5,1.4c-0.5,1.3-1.1,2.7-1.9,3.8c-1,1.2-2.2,2.3-3.5,3.2
	c-2,1.3-4.2,2.4-6.3,3.5c2.2,1.8,4.7,3.5,7.6,4.4c0.9,0.3,1.9,0.4,2.8,0.7c1.2,0.4,2.3,0.4,3.3-0.3c4.2-2.5,5.3-6.5,5.2-11.1
	c0-1.1-0.2-2.2-0.1-3.2c0-0.4,0.4-0.9,0.8-1c0.3-0.1,0.8,0.3,1.2,0.6c0.2,0.2,0.4,0.6,0.4,1c0.1,2.1,0.3,4.2,0.1,6.3
	C114.9,85,113.7,87.2,112.1,89.5z M91.2,96.7c-0.4,0.3-0.9,0.6-1.3,0.9c-13.6,9.9-25.1,21.9-35.1,35.4c-4.8,6.4-9.1,13.1-11.9,20.6
	c-0.7,1.7-1.1,3.5-1.7,5.6c1.8,0,3.3,0.2,4.8,0c4.3-0.6,8.7-1.2,13-2.2c8.3-1.8,16.3-4.4,24.1-7.9c1-0.4,2-0.7,3.2-1.1
	c0.2-3,0.3-6.2,0.5-9.5c-0.4,0.1-0.6,0.1-0.7,0.2c-4.7,1.9-9.5,3.4-14.4,4.3c-3.6,0.7-7.3,1.5-10.9,0.9c-3.1-0.5-3-1.6-1.7-3.6
	c2.7-4.2,6-8,9.6-11.5c5.9-5.9,12.1-11.5,18.8-16.4c0.3-0.2,0.6-0.6,0.7-1C88.7,106.4,89.5,101.5,91.2,96.7z M264.2,120
	c-1.5,0.5-2.4,1.4-3.2,2.5c-1.1,1.8-1.7,3.7-1.7,5.8c0,13,5.5,23.4,15.8,31.3c1.4,1.1,3.2,1.7,4.8,2.3c1.8,0.6,3.6,0.5,5.4-0.7
	c-2.7-3.9-3.3-8-1.5-12.4c-3.8-1.5-6.9-3.6-8.8-7.2c-1.9-3.6-1.8-7.3-0.8-11.1C269.2,128.4,266,124.9,264.2,120z M255.4,70.2
	c-1.6,2.8-3.9,5-6.7,6.6c1.9,2.6,3.9,5.1,5.7,7.7c1.1,1.6,2.3,2.9,3.9,4.1c3.4,2.5,7,4.6,11,6c0.8,0.3,1.3,0.2,1.9-0.5
	c2.6-2.9,5.7-5.2,9.1-6.9c0.3-0.1,0.5-0.3,0.8-0.5C273.2,82.9,263.6,76.7,255.4,70.2z M60.5,141.8c1,0,1.6,0.1,2.2,0
	c1.7-0.2,3.3-0.4,5-0.6c6.2-1,12.3-2.4,18.1-4.8c0.8-0.3,1.1-0.8,1.1-1.7c0-3.9,0.1-7.8,0.2-11.7c0.1-2.7,0.3-5.4,0.4-8.1
	c-0.1-0.1-0.2-0.2-0.3-0.3C77.4,122.6,68.5,131.5,60.5,141.8z M268.9,96.7c-3.3-1.6-6.6-3.2-10-4.8c2.1,4,4.1,7.8,6.1,11.7
	C266.3,101.2,267.6,99,268.9,96.7z M284.8,165.7c2.5,3.3,5.5,5.9,9,7.9c-0.1-2.4-0.3-4.7-0.4-6.8c-1.8-0.9-3.7-1.7-5.6-2.6
	c-0.3,0.2-0.8,0.5-1.3,0.8C286,165.1,285.5,165.3,284.8,165.7z"/>
<path d="M300,27c1.4-2.3,3.4-3.7,5.6-4.8c6.2-3,12.8,0.8,13.5,7.6c0.2,2.4-0.1,4.7-0.8,7c-0.2,0.7-0.1,1,0.4,1.5
	c2.7,2.7,4,5.9,2.7,9.7c-1,2.8-1.6,5.8-3.4,8.3c-2.6,3.7-7.2,5.4-11.6,4.1c0,0-0.1,0-0.1,0c-1.5-0.5-2.3-1.3-1.9-2
	c0.6-1.3,1.6-0.6,2.5-0.4c4.8,1.1,8.3-0.9,10-5.7c0.6-1.8,1.1-3.7,1.7-5.6c0.7-2.3-0.4-4-1.9-5.9c-0.3,0.6-0.6,1.1-0.8,1.5
	c-0.8,1.4-1.8,2.7-3.4,3.3c-1.8,0.7-3.7,0-4.6-1.5c-0.9-1.4-0.6-3.3,0.8-4.6c1.5-1.4,3.4-2.1,5.4-2.3c0.7-0.1,1.1-0.3,1.2-1
	c0.2-1.9,0.7-3.7,0.6-5.6c-0.1-5-4.6-7.7-9.1-5.6c-3.5,1.6-5.9,4.1-6.1,8.2c0,0.8-0.3,1.7-1.4,1.6c-1.1-0.1-1.2-0.8-1.3-1.7
	c-0.2-1.7-0.4-3.5-0.9-5.2c-1.3-4.6-6.1-5.8-9.5-2.3c-2.4,2.4-3.2,5.6-3.7,8.8c-0.3,1.5-0.3,3.1-0.6,4.6c-0.1,0.4-0.5,0.8-0.8,1.2
	c-0.3-0.4-0.9-0.8-0.9-1.2c-0.9-5.9,0.1-11.3,4.4-15.7c4.4-4.5,11.1-3.1,13.5,2.8C299.7,26.3,299.8,26.5,300,27z M313.5,40.5
	c-0.1-0.1-0.2-0.3-0.4-0.4c-0.9,0.4-1.8,0.8-2.6,1.3c-0.3,0.2-0.3,0.8-0.5,1.2c0.5,0.1,1.1,0.3,1.4,0.1
	C312.2,42,312.8,41.2,313.5,40.5z"/>
<path d="M36.2,104.7c-2.2-0.2-4.3-0.1-6.3-0.5c-4.8-1-7.8-4.2-8.6-9c-0.5-3.1,0.5-5.8,2.7-8.1c2.3-2.4,4.1-3.4,8.6-4.8
	c0.1-2.5,0.9-4.8,2.4-6.7c4-5.2,11.1-6.9,17.6-2.3c1.7,1.2,3.2,2.6,3.8,4.7c0.3,0.9,0,2-0.1,3c0,0.2-0.4,0.4-0.7,0.5
	c-0.1,0-0.4-0.4-0.5-0.6c-0.7-4.9-4.4-6.7-8.5-7.8c-4.3-1.1-10.6,1-12,7.7c-0.1,0.4-0.1,0.8-0.1,1.2c0.9,0.1,1.7,0.1,2.4,0.4
	c1.3,0.5,2.5,1.2,3.6,2c1.3,1,1.5,2.1,0.9,3c-0.7,1.2-2.4,2-3.6,1.2c-1.5-0.9-2.9-2.2-4.1-3.5c-0.6-0.6-0.9-0.8-1.6-0.6
	c-2.6,0.7-4.9,2.1-6.8,4c-3.2,3.3-2.4,9.4,1.4,11.9c3.2,2,6.7,2,10.2,1.3c0.3-0.1,0.6-0.5,0.9-0.7c0.7-0.5,1.3-1.2,2-1.6
	c0.8-0.5,1.6-0.4,2.3,0.3c0.6,0.8,0.4,1.6-0.3,2.2c-0.7,0.6-1.5,1.2-2.4,1.6c-0.7,0.3-0.9,0.7-0.8,1.4c0.6,3.5,1.8,5.5,5.6,5.7
	c4.8,0.3,9-1,12.2-4.8c0.7-0.9,1.2-2,1.8-3c0.5-0.8,1-1.6,2.1-1.2c0.9,0.3,1.2,1.3,0.6,2.5c-2.4,5.2-6.3,8.4-12,9.1
	c-1.5,0.2-3,0.3-4.5,0.2c-5.1-0.5-7.5-3.5-8.2-8.4C36.3,105,36.2,104.8,36.2,104.7z M39.8,86.4c-1.1-1.7-3.1-2.6-4.3-2.1
	C37,86.5,38.6,87.2,39.8,86.4z"/>
<path d="M294.9,38.6c-0.3,0.2-0.8,0.7-1.3,1c-3,1.7-6.1,3.2-9,4.9c-4.3,2.5-7.7,6.1-11.1,9.7c-0.7,0.8-1.4,1.6-2.1,2.3
	c-0.2,0.2-0.7,0.2-1,0.3c-0.1-0.4-0.3-0.8-0.2-1.1c0.5-1,1-2.1,1.7-3c4.9-5.6,10.4-10.5,17.2-13.8c1.3-0.6,2.6-1.2,3.9-1.8
	C294.1,36.8,295,37.3,294.9,38.6z"/>
<path d="M57,88.7c-1.2,0.1-2.7,0.3-4.2,0.4c-0.5,0-1-0.2-1.5-0.4c0.4-0.4,0.8-0.9,1.2-1.1c1.3-0.3,2.7-0.6,4-0.7
	c4.4-0.3,8.8,0.3,13.1,1.3c1,0.2,2,0.4,3,0.7c0.7,0.2,1.4,0.7,1,1.6c-0.3,0.8-1,0.7-1.7,0.4C67.3,89.4,62.4,88.5,57,88.7z"/>
<path fill="#BA17BA" d="M315.5,228.8c-0.8,0.7-1.4,1.2-2.1,1.6c-2.5,1.5-4.9,3-7.5,4.3c-1.6,0.8-3.4,1.1-5.1,1.5
	c-0.9,0.2-1.7,0.4-2.1,1.3c-0.4,1-0.1,1.8,0.6,2.5c4.6,4.8,9.6,9,16,11.3c1.8,0.7,3.7,1.2,5.9,1.9c-1,0.9-1.8,1.9-2.8,2.5
	c-3.4,2.1-6.9,3.8-11,3.5c-1.5-0.1-3-0.1-4.5-0.2c-1-0.1-1.9-0.1-2.5,0.7c-0.6,0.8-0.5,1.7,0,2.6c0.2,0.3,0.3,0.6,0.6,1.2
	c-0.6-0.2-1-0.3-1.4-0.4c-3.9-1.3-8-2-12.1-2.1c-0.4,0-0.8,0-1.2,0c-1,0.1-1.7,0.6-1.7,1.6c0,1.1,0.6,1.6,1.6,1.8
	c2.5,0.4,5.1,0.6,7.6,1.1c14.7,3.1,24.1,12.1,29,26.1c2.8,8.3,3.4,16.8,2.8,25.5c-0.3,3.7-1.1,7.3-1.4,10.9
	c-0.7,8-1.5,16.2,1.8,23.9c1.2,2.8,2.7,5.4,4,8c-1.3-0.3-2.8-0.5-4.2-0.9c-4.5-1.3-8.3-3.9-11.2-7.7c-0.4-0.5-1.2-0.7-1.9-0.7
	c-0.9,0-1.5,0.8-1.5,1.6c0,2.3-0.1,4.7,0.2,7c0.4,3.3,1,6.5,1.6,10.2c-1.8-0.7-3.4-1.1-4.9-1.8c-6.6-3.2-11.2-8.2-14.3-14.8
	c-0.2-0.5-0.5-0.9-0.8-1.3c-0.8-0.9-2-0.9-2.8,0.1c-0.3,0.3-0.5,0.7-0.7,1.1c-4.1,7.4-10.3,11.8-18.6,13.4c-0.3,0.1-0.7,0.1-1.3,0.1
	c0.2-0.5,0.4-0.9,0.6-1.3c0.9-1.7,1.8-3.5,2.7-5.2c1.5-3,2.1-6.3,2.3-9.6c0.1-1-0.2-1.9-1.3-2.3c-1.1-0.4-2-0.2-2.8,0.7
	c-1.4,1.5-2.8,3.1-4.4,4.4c-3.6,3.2-7.8,4.5-12.6,4.5c-1.5,0-3.1,0-4.6,0c-0.1-0.2-0.3-0.5-0.4-0.7c0.3-0.1,0.7-0.1,0.9-0.3
	c4.6-3.7,8.4-8,11.7-12.8c1.9-2.8,2.5-6.1,2.9-9.4c0.5-3.8,1-7.7,1.5-11.5c0.2-1.1-0.2-2-1.3-2.5c-1.1-0.5-1.7,0.1-2.4,0.9
	c-0.5,0.6-1.2,1.2-1.9,1.6c-6.5,4-13.6,6-21.3,6.2c-0.2,0-0.3,0-0.5-0.1c0,0-0.1,0-0.1-0.1c0.5-0.9,1.1-1.9-0.1-2.7
	c-1.2-0.7-1.9,0.2-2.6,1c-3.7,4.5-8.6,7.4-13.8,9.8c-7.4,3.4-15.1,6-23.2,7c-1.8,0.2-3.6,0.2-5.4,0.1c-2.3-0.1-3,0.5-3.1,2.8
	c-0.2,5.3,0.8,10.4,2.6,15.4c1.8,4.9,3.8,9.6,7.2,13.6c0.9,1.1,1.9,2.1,3.1,3.4c-1.7,0.1-3.2,0.3-4.7,0.3c-3.9-0.2-7.6-1.2-10.7-3.9
	c-0.5-0.4-1.4-0.5-2.1-0.4c-0.9,0.2-1.3,1.1-1.2,2c0.2,5.1-1.6,9.5-4.3,13.6c-0.7,1.1-1.7,2-2.5,2.9c-1.2-3.7-2.3-7.2-3.5-10.7
	c-0.5-1.4-1.3-2.6-2.2-3.8c-0.5-0.8-1.3-1.4-2.4-1.1c-1.2,0.4-1.5,1.3-1.6,2.4c-0.5,4.6-2.4,8.6-5.4,12.1c-1.8,2.1-3.9,3.7-6.7,4.6
	c0-0.6,0-1.1,0-1.6c-0.2-4.8-0.3-9.7-0.6-14.5c0-0.8-0.4-1.6-0.7-2.4c-0.3-0.9-0.8-1.5-1.8-1.5c-1,0-1.6,0.7-1.8,1.6
	c-2,6.6-6.5,11.2-11.9,15c-0.2,0.2-0.5,0.3-0.7,0.4c-0.1,0-0.1,0-0.4,0.1c0-0.4,0.1-0.9,0.1-1.3c0.7-8.4,0.6-16.7-1.7-24.9
	c-2.3-8.2-5.9-15.9-10-23.3c-5-9-9.5-18.2-13.4-27.7c-0.8-1.9-1.2-3.9-1.8-5.8c-0.2-0.8,0.1-1.2,0.9-1.5c1.1-0.5,2.1-1.1,3-1.9
	c0.7-0.6,0.8-1.6,0.2-2.4c-0.6-0.8-1.5-0.9-2.3-0.4c-4.6,3-9.7,3.1-14.8,2.9c-5.9-0.3-11.6-1.5-17-3.9c-1.7-0.8-3.3-1.8-5.1-2.8
	c0.7-0.5,1.2-0.9,1.7-1.2c6.4-4,11.5-9.3,16.2-15.2c3.1-3.9,6-7.9,7.3-12.8c0.3-1.2,0.6-2.4,0.6-3.6c-0.1-2-1.4-2.6-3.3-1.7
	c-2.2,1.1-4.3,2.3-6.6,3c-7.2,2.4-14.4,2.1-21.4-1.1c-1.2-0.6-2.3-1.5-3.7-2.3c6.5-2.3,11.6-6.3,16.1-10.9
	c5.5-5.6,10.2-11.9,12.2-19.6c0.3-1.2,0.5-2.5,0.5-3.8c0.1-2.1-1-2.9-3.1-2.2c-2.5,0.8-5,1.8-7.6,2.2c-5.2,0.9-10.3,0.4-15.3-1.1
	c-2.3-0.7-4.5-1.6-6.9-2.4c2.1-1.5,3.9-2.9,5.9-4.3c5.2-3.6,9.1-8.4,12.7-13.6c5.3-7.8,7.3-16.6,8.4-25.7c0.9-7.4,0.4-14.8,0.3-22.2
	c-0.1-7.4,0.2-14.7,0.4-22.1c0.1-7,0.3-14,0.5-21c0.3-9.6,2.4-18.9,6.3-27.8c0.1-0.2,0.2-0.3,0.3-0.6c3.1,1.6,6.4,2.1,9.8,1.8
	c7.7-0.7,14.1-4,18.9-10.1c4.4-5.5,6-12.1,6.9-18.9c0.5-3.4-0.2-6.6-0.6-9.9c-0.1-0.7,0.1-1,0.7-1.3c4.3-2.3,8.7-4.6,13.5-5.9
	c5-1.4,10-3.1,15.1-4c6.3-1.1,12.7-1.3,19-0.5c5.8,0.7,11.7,1.1,17.3,3.1c2.2,0.8,4.4,1.6,6.5,2.4c0.3,0.1,0.7,0.6,0.8,1
	c0.6,4.4,2.3,8.4,4.8,12c4.8,7,11,12.3,18.7,15.9c4.8,2.3,9.9,2.8,15.1,1.5c0.9-0.2,1.2,0.2,1.7,0.7c6.6,7.8,11.3,16.7,15.8,25.8
	c1.2,2.5,2.3,4.8,1.7,7.7c-0.2,1.1,0,2.3,0,3.7c0.1-0.2,0.1-0.1,0,0c-5.8,2-7.4,6.7-7.7,12.1c-0.4,6.3,1.3,12.1,4,17.7
	c3,6.3,7,11.8,12.7,16c1.2,0.8,2.4,1.6,3.7,2.1c1.1,0.4,1.6,1.1,2.1,2.1c3.4,6.9,5.5,14.3,7.2,21.8c1,4.4,2.3,8.8,3.6,13.2
	c1.6,5.1,4.2,9.8,7.3,14.2c4.5,6.3,10.8,10,17.9,12.5C314.4,228.4,314.7,228.5,315.5,228.8z M144.2,117.8c-0.1-0.1-0.1-0.2-0.2-0.3
	c0.1-0.3,0.3-0.6,0.4-0.9c3-6.5,4.5-13.2,4-20.4c-0.2-2.4-0.7-4.8-1.9-7c-0.4-0.7-1-1.4-1.9-0.9c-0.9,0.4-0.8,1.2-0.6,2
	c0.4,1.3,0.7,2.6,1,3.8c0.3,1.2,0.4,2.3-1.2,2.8c-0.6,0.2-1.1,0.7-1.7,1.2c-6.9,5.4-12.3,12.1-15.8,20.2
	c-6.2,14.4-5.4,28.3,3.7,41.4c5.5,7.9,13.1,13.2,22,16.5c15.7,5.8,31.3,5,46.7-1.1c13.1-5.2,23.8-13.6,30.8-26
	c6.1-10.8,8-22.2,4.3-34.2c-2.8-9.1-8.3-16.2-16-21.7c-0.6-0.5-0.9-0.8-0.6-1.7c0.3-1.1,0.6-2.3,0.7-3.5c0.3-3.1,0.2-6.2-1.4-9.1
	c-0.6-1.1-1.5-1.4-2.4-1c-0.9,0.4-1.2,1.4-0.7,2.5c0.8,1.8,1.2,3.8,1,5.7c-1.2,10.3-6.4,18-15.4,23c-0.2,0.1-0.5,0.2-0.8,0.3
	c0-0.3,0.1-0.4,0.1-0.6c1.3-8,1.5-15.8-3.3-22.9c-0.8-1.2-2.1-1.6-2.9-0.5c-0.4,0.5-0.5,1.2-0.6,1.8c-1.5,10.9-6.9,19.3-16.1,25.2
	c-3,1.9-6.2,3.3-9.8,4c0.1-0.3,0.2-0.5,0.3-0.6c3.1-5.8,5.3-12,6.5-18.5c0.5-2.8,0.9-5.6,0.1-8.4c-0.3-0.9-0.7-1.6-1.7-1.5
	c-1.1,0.1-1.4,0.9-1.6,1.8c-0.4,1.5-0.6,3.2-1.3,4.6c-4.6,9.5-11.4,17.1-20.5,22.6C146.3,117,145.2,117.4,144.2,117.8z M159.2,233.2
	c-0.9,4-2.1,8-4.2,11.6c-1.5,2.5-0.7,4.1,2.2,4.4c2.8,0.2,5.6-0.3,8.2-1.3c8-3.2,13.8-9,18-16.4c0.2-0.3,0.4-0.7,0.6-1.1
	c0.2,1.5-0.3,3.7-1.3,6.5c-0.8,2.1,0.5,4.1,2.7,3.9c1.9-0.2,3.8-0.5,5.5-1.3c7.4-3.3,12-9.3,14.5-16.8c1.6-4.8,1.9-9.7,0.5-14.6
	c-0.4-1.4-1.3-2-2.4-1.8c-1.1,0.3-1.6,1.3-1.2,2.7c1.2,4.5,0.8,8.8-0.7,13.1c-2.5,6.7-6.7,12-13.6,14.6c-0.4,0.1-0.8,0.2-1,0.3
	c0.4-3,1-5.9,1-8.8c0-2.7-0.7-5.4-1.2-8c-0.2-1.1-1-1.6-2.1-1.5c-1,0.1-1.4,0.7-1.5,1.6c-0.5,4.8-2.4,9-5.2,12.9
	c-4,5.6-9,10-15.8,12c-1,0.3-2.1,0.4-3.2,0.6c1-2.7,2.1-5.2,2.9-7.7c1.3-4.2,2.2-8.4,1.7-12.9c-0.2-1.8-0.8-2.6-1.8-2.7
	c-1.6-0.1-1.8,1.1-2.3,2.2c-3.6,8.6-10.2,13.8-19.1,16.2c-0.9,0.3-1.9,0.2-2.9,0.2c0-0.2-0.1-0.3,0-0.4c0.2-0.4,0.3-0.7,0.5-1.1
	c2.7-5.5,5.4-11,6.5-17.1c0.5-2.9,0.8-5.9,0.1-8.8c-0.3-1.3-1.1-2-2-1.8c-1.2,0.3-1.4,1.2-1.4,2.2c0,1,0.1,1.9,0,2.9
	c-0.1,5.5-1.8,10.5-4.1,15.4c-1.3,2.9-2.8,5.8-4.3,8.7c-0.8,1.7-0.3,2.9,1.5,3.4c0.7,0.2,1.5,0.3,2.3,0.3c5.8,0.3,10.8-1.8,15.3-5.2
	C154.5,237.5,156.8,235.3,159.2,233.2z M244.2,245.6c0.7,0.2,1,0.3,1.3,0.4c3.9,1.7,7.9,2.6,12.1,2.8c5,0.3,9.9-0.4,14.2-3.2
	c2.5-1.6,2.5-3.1,0.3-5c-6.4-5.4-13.4-10.1-17.9-17.3c-0.6-1-1.8-1.1-2.6-0.6c-0.8,0.5-1.1,1.6-0.5,2.6c0.8,1.3,1.5,2.7,2.5,3.8
	c4.2,4.9,9.3,8.9,14.2,13c0.3,0.3,0.7,0.5,1.1,0.9c-0.7,0.3-1.2,0.7-1.7,0.8c-2.6,0.5-5.2,1.1-7.8,1.2c-6.1,0.2-11.8-2-17.3-4.4
	c-0.8-0.3-1.6-0.7-2.2,0c-0.5,0.6-0.8,1.5-0.7,2.2c0.1,1,0.5,2,1,2.9c2.9,5.3,5.8,10.6,8.7,15.9c0.1,0.3,0.3,0.5,0.5,0.9
	c-0.8,0-1.5-0.1-2.2-0.1c-7.5-0.8-14.4-3.1-20.5-7.7c-0.3-0.2-0.6-0.4-0.9-0.6c-1.2-0.6-2.6,0.2-2.7,1.5c0,0.5,0,1,0.1,1.4
	c0.7,2.5,1.2,5,2.3,7.3c2,4.1,4.3,8,6.5,12c0.2,0.4,0.5,0.8,0.7,1.2c-0.2,0.1-0.2,0.2-0.3,0.2c-0.3,0-0.6,0-0.8,0.1
	c-4.3,0.2-8.4-0.6-12.3-2.1c-5.6-2.1-10.6-5.4-15-9.5c-0.7-0.7-1.5-1.3-2.4-0.5c-0.9,0.7-0.8,1.8-0.2,2.6c0.8,1.1,1.7,2.1,2.7,3
	c6,5,12.7,8.6,20.5,9.9c3.7,0.6,7.4,0.7,11.1-0.2c1.8-0.4,2.4-1.9,1.5-3.5c-0.2-0.3-0.4-0.7-0.7-1c-3.3-4.3-5.9-9-8-14
	c-0.3-0.7-0.5-1.5-0.9-2.7c4.8,3.1,9.8,4.7,14.9,5.7c3.3,0.7,6.6,1,10,0.4c1.9-0.4,2.5-1.8,1.5-3.5c-0.2-0.3-0.4-0.5-0.6-0.8
	C249.8,256.9,247.3,251.3,244.2,245.6z"/>
<path fill="#BA17BA" d="M92.1,234.3c-0.8,1.8-1.4,3.7-2.3,5.4c-2.7,5.1-5.8,10-10.1,13.9c-4.9,4.4-10.1,8.4-16.6,10.3
	c-2,0.6-2.3,2.4-0.7,3.7c9.3,8,19.9,9.2,31.2,5.6c1.2-0.4,2.5-0.9,3.8-1.4c-0.1,0.4-0.1,0.7-0.3,1c-1.3,2.3-2.4,4.6-3.9,6.7
	c-3.5,5.1-7.7,9.6-12.4,13.7c-1.6,1.4-3.4,2.5-5.1,3.7c-0.3,0.2-0.8,0.1-1.1,0c-4.8-2.9-7.8-7.3-9.9-12.4c-0.4-0.9-0.9-1.6-2-1.6
	c-1.1,0.1-1.6,0.9-1.8,1.8c-0.3,2.2-0.5,4.4-0.7,6.6c0,0.4-0.1,0.9-0.2,1.6c-0.5-0.5-1-0.8-1.3-1.2c-5.1-5.3-9.6-11.1-12.8-17.9
	c-0.6-1.2-1.3-2.3-2-3.4c-0.8-1.2-2-1.4-3.2-0.4c-0.3,0.3-0.6,0.5-0.9,0.8c-4.8,6-11.5,8.7-18.5,10.9c-4.7,1.4-9.4,2.2-14.3,1.5
	c-0.3,0-0.6-0.1-0.8-0.1c-0.3-0.1-0.5-0.1-1-0.4c0.2,0,0.3-0.1,0.5-0.1c3.7-1.2,6.7-3.5,9.2-6.3c2.1-2.4,4.1-4.9,6.1-7.4
	c0.3-0.4,0.5-0.8,0.7-1.2c0.7-1.7-0.4-3.2-2.2-3c-2.5,0.2-5.1,0.6-7.6,0.5c-2.1,0-4.2-0.6-6.3-0.9c0-0.2,0-0.3-0.1-0.5
	c0.4-0.3,0.7-0.5,1.1-0.8c3.4-2.5,6.9-4.9,10.3-7.5c4.7-3.7,8.3-8.4,10.8-13.7c1.7-3.6,2.4-7.6,3.5-11.4c1.8-5.9,3.3-11.9,5.3-17.8
	c1.1-3.2,2.7-6.3,4.6-9.1c2.4-3.6,5.3-6.8,8.1-10.1c4-4.6,9.1-7.7,14.6-10.4c5.1-2.5,10.1-5,15.7-6.2c1.4-0.3,2.9-0.4,4.4-0.6
	c0.9-0.1,1.8-0.3,2.8-0.5c0,1.6,0.1,3.4,0,5.1c-0.3,7.5-1.7,14.8-4.7,21.7c-3,6.8-7.2,12.8-13.2,17.4c-3.1,2.4-6.4,4.5-9.6,6.7
	c-1.5,1-1.7,2.6-0.2,3.6c1.7,1.1,3.5,2,5.4,2.8c6.4,2.7,13.1,3.7,20.1,3c2.2-0.2,4.3-1,6.4-1.6c0.4-0.1,0.7-0.2,1.1-0.3
	C91.9,234.2,92,234.3,92.1,234.3z"/>
<path fill="#F586F5" d="M275.6,127c-4.9-2.1-7.6-5.8-8.4-11c-0.6-4,0-7.9,1.8-11.6c4.1-8.8,10.8-14.5,20.6-15.9
	c4.3-0.6,8.2,0.5,11.8,3.1c1,0.7,2.2,1.4,3.4,1.7c8,2.1,14.1,6.8,19.2,13.1c7.3,9,11.3,19.4,12.8,30.8c1,7.7,0.5,15.3-1.6,22.7
	c-0.7,2.4-2.1,4.6-3.5,6.6c-4.7,6.7-10.9,11.4-19.1,13.2c-2.4,0.5-4.9,0.6-7.4-0.1c-6.2-1.6-8.2-7-7.8-12c0-0.2,0.4-0.6,0.6-0.7
	c4.7-0.9,9-2.7,12.9-5.3c2.3-1.5,4.4-3.2,6.5-4.9c0.6-0.5,1.1-1,1.6-1.6c0.6-0.8,0.8-1.6,0-2.4c-0.8-0.7-1.6-0.5-2.4,0.1
	c-0.5,0.4-0.9,0.9-1.4,1.3c-4.4,3.7-9.1,7.1-14.6,8.6c-8,2.1-14.4-3.3-13.9-9.8c0.2-2.3,1-4.2,3.2-5.5c5.9-3.5,11.7-7.1,17.5-10.8
	c0.8-0.5,1.7-1.1,2.4-1.8c0.6-0.6,0.9-1.4,0.3-2c-0.4-0.4-1.3-0.7-1.9-0.6c-0.9,0.2-1.8,0.7-2.6,1.2c-6.3,3.8-12.6,7.6-18.9,11.5
	c-0.8,0.5-1.4,0.6-2.2,0.1c-0.2-0.2-0.5-0.2-0.8-0.4c-6.1-3-8.2-8.4-5.4-14.7c1.9-4.3,4.9-7.8,8.6-10.6c2.7-2.1,5.7-3.9,8.5-5.8
	c0.7-0.5,1.5-0.8,2.1-1.3c0.7-0.5,1.1-1.1,0.7-2c-0.4-0.9-1.2-1-2-0.8c-0.5,0.1-1.1,0.3-1.6,0.6c-7.7,3.8-14.3,8.8-18.7,16.3
	C275.9,126.6,275.7,126.8,275.6,127z"/>
<path fill="#BA17BA" d="M283.9,170.7c1.6,1.4,3,2.7,4.6,3.9c2.3,1.7,4.6,3.3,7.6,3.7c0.3,0,0.6,0.3,0.8,0.5c3.9,4.4,9,5.7,14.4,4.8
	c12.8-2.2,21.4-9.7,26.6-21.5c2.8-6.3,2.9-12.8,2.9-19.5c0-1,0.2-1.7,0.8-2.5c2.7-3.7,6.4-6,10.4-8.1c0.1,0,0.2,0,0.5-0.1
	c-0.2,0.5-0.3,1-0.5,1.4c-2.9,7.6-4.6,15.4-5.5,23.4c-0.1,0.6-0.3,1.2-0.7,1.7c-0.8,1.2-0.9,2.3-0.1,3c0.8,0.7,1.8,0.5,2.9-0.7
	c1.4-1.5,2.6-3.1,4.1-4.6c3.5-3.6,7.8-6.1,12.5-7.7c0.2-0.1,0.3-0.1,0.5-0.1c0.1,0,0.1,0,0.3,0.1c-1.3,2-2.4,4-3.7,6
	c-6.9,10.4-10.7,21.8-12.7,34c-1.1,6.5-2.4,13-3.8,19.5c-1.4,6.7-4,12.8-8,18.3c-1.3,1.8-2.5,3.7-4,5.4c-7.1,8.2-16.2,11.4-26.8,9.8
	c-1-0.1-1.9-1.1-3.1-1.9c4.5-1.5,8-3.9,11.7-6c2.2-1.3,3.4-3.3,4.5-5.5c0.6-1.1-0.1-2.2-1.5-2.6c-1.8-0.5-3.8-0.9-5.5-1.6
	c-6.1-2.6-11.4-6.3-15.1-12.1c-3.7-5.9-6.1-12.3-7.8-19c-1.7-6.7-3.6-13.3-5.5-20C284.5,172.1,284.3,171.5,283.9,170.7z"/>
<path fill="#F586F5" d="M36.7,336.8c-0.6,1.7-2.1,2.4-3.4,3c-3.3,1.5-6.5,1.2-9.7-0.3c-5.4-2.6-9.1-6.8-12-12
	c-4.5-8.1-5-16.6-3.8-25.5c0.8-5.6,3.3-10.3,6.4-14.8c0.3-0.4,1-0.5,1.6-0.6c7.3-1.1,14.1-3.4,20.3-7.5c2-1.3,3.8-2.9,5.8-4.4
	c2.9,5.8,7,10.8,11.2,15.8c1.7,2,3.6,3.7,5.5,5.6c0.5,0.5,1,0.9,1.6,1.2c1.8,1,3.3,0.3,3.6-1.7c0.2-1.4,0.2-2.8,0.4-4.3
	c2.2,3.1,4.6,6.1,7.8,8c-1,1.9-1,2.4,0.6,3.6c1.9,1.5,4,2.8,6.1,4c0.8,0.5,1.1,1,0.9,1.8c-0.4,1.2-0.7,2.5-1.3,3.6
	c-1.6,2.9-3.3,5.8-5.2,8.6c-1.4,2.2-2.4,4.4-2.6,7c-0.8,8-4.9,13.8-11.8,17.9c-1.8,1.1-3.7,1.7-5.8,1.4c-2.2-0.3-4.4-0.5-6.5-1.1
	c-3.9-1.1-5.8-5.3-4.4-9c0.1-0.3,0.7-0.7,1.1-0.8c5.4-1.4,8.6-6.7,8.8-11.4c0.1-3-1.1-5.6-2.4-8.2c-0.1-0.3-0.3-0.6-0.5-0.8
	c-2.7-3.2-2.7-6.6-1.1-10.2c0.1-0.3,0.2-0.5,0.3-0.8c0.4-1.1,0-2.1-0.8-2.5c-0.9-0.4-1.9-0.1-2.4,1c-1.7,3.5-2.8,7.1-1.1,10.9
	c0.4,0.8,0.8,1.6,1.2,2.5c0.9,1.8,1.9,3.6,2.6,5.5c1.2,3.3,0.1,6.2-2.3,8.5c-2.4,2.3-5.3,2.8-8.5,1.8c-7.1-2.4-10.8-7.9-12.9-14.7
	c-1.7-5.7-1.8-11.3,0.8-16.8c0.2-0.5,0-1.5-0.3-1.8c-0.4-0.3-1.4-0.3-1.8,0c-0.8,0.6-1.4,1.5-1.8,2.4c-1.8,4.1-2.1,8.4-1.4,12.8
	c0.6,4.3,2.1,8.3,4.3,12c2.8,4.7,6.8,7.9,11.9,9.7c0.3,0.1,0.7,0.2,1,0.4C36.6,336.7,36.6,336.7,36.7,336.8z"/>
<path fill="#F586F5" d="M162.8,448.5c-1.1,0-2.1,0-3.1,0c-3.1-0.2-6.2-0.9-9-2.3c-0.5-0.2-1-0.8-1.1-1.4c-1.8-5.9-1-11.7,1.1-17.4
	c0.6-1.5,1.3-2.9,2-4.4c0.6-1.3,0.4-2.2-0.4-2.8c-0.9-0.6-2.1-0.2-2.7,0.9c-3.4,5.9-5,12.1-4.7,18.9c0,0.6,0.1,1.2-0.1,1.9
	c-0.7-0.8-1.4-1.6-2.1-2.4c-4.4-5.9-5.9-12.7-5.5-19.9c0.4-8,3-15.4,6.9-22.4c2.2-4,5.1-7.6,7.9-11.3c0.1,0.3,0.1,0.5,0.1,0.7
	c0,3.7,0,7.4-0.1,11.2c-0.1,2.4,0.9,3.4,3.3,3.1c2.3-0.2,4.2-1.1,6.1-2.4c4.4-3.1,7.3-7.3,9-12.4c0.1-0.4,0.3-0.8,0.5-1.2
	c0.1,0,0.3,0,0.4,0c0.9,3.3,1.9,6.7,2.6,10c0.6,2.8,2.1,3.8,4.6,2.4c1.4-0.8,2.7-1.9,3.7-3.1c3.1-3.7,4.9-8,5.7-12.8
	c0-0.3,0.1-0.6,0.2-0.9c0.1,0,0.2-0.1,0.3-0.1c3.8,2.1,7.8,3,12.1,2.8c0.8,0,1,0.4,1.3,0.9c3.1,5.4,4.1,11.3,3.9,17.4
	c-0.8,18.8-14.9,38.1-32.5,44.6c-2.1,0.8-4.3,1.3-6.7,2c-0.2-1.4-0.5-2.5-0.6-3.6c-0.2-5-0.3-9.9,0.9-14.8c0.3-1.2,0.7-2.3,1.1-3.4
	c0.6-1.6,0.4-2.6-0.7-3.1c-1.1-0.5-2.1,0.1-2.8,1.7c-1.6,3.4-2.2,7.1-2.3,10.8C162,440,161.7,444.2,162.8,448.5z"/>
<path fill="#F586F5" d="M270.7,355.1c-0.6,1.3-1.1,2.6-1.7,3.9c-1.3,2.5-2.6,5-3.9,7.6c-0.5,0.9-0.9,1.9-0.2,2.9
	c0.7,1,1.8,1.1,2.9,1c9.6-1,17.4-5,23.1-12.9c0.2-0.2,0.3-0.4,0.5-0.7c1.1,1.6,2.1,3.2,3.3,4.7c4.7,6.1,10.8,10.1,18.4,11.7
	c0.2,0,0.5,0.1,0.7,0.1c2.4,0.3,3.5-0.8,3.1-3.2c-0.4-2.6-0.9-5.2-1.3-7.8c-0.3-1.6-0.5-3.2-0.8-5.1c0.6,0.5,1,0.7,1.4,1
	c3.2,2.7,7.1,4.1,11.1,5.2c0.5,0.1,1,0.3,1.4,0.6c3.6,3.5,6.4,7.5,7.3,12.5c0.7,4.1-0.1,7.9-2.5,11.5c-0.6-1.8-1-3.5-1.7-5.2
	c-1.7-4.3-4.1-8.2-7.5-11.4c-0.9-0.8-1.9-1.6-2.9-2.2c-1.1-0.7-2.1-0.6-2.5,0.2c-0.6,1.1,0,1.7,0.8,2.3c4.1,3,7.1,6.8,9.1,11.4
	c1,2.2,1.4,4.7,2,7.1c0.1,0.4-0.1,1.1-0.4,1.4c-4.2,3.8-9.1,5.9-14.5,7.4c-0.3-2.1-0.5-4.2-1-6.2c-1.6-5.9-4.3-11.1-9.2-14.9
	c-0.7-0.5-1.5-1-2.3-1.3c-0.5-0.1-1.1,0.2-1.6,0.3c0.2,0.5,0.2,1.2,0.6,1.5c2.2,1.6,4,3.4,5.4,5.7c2.9,4.4,4.5,9.2,5,14.3
	c0,0.4,0,0.8,0,1.3c-1.8,0.3-3.6,0.6-5.4,0.7c-15,1.3-29-1.6-41.6-9.9c-3.6-2.4-6.8-5.2-9.2-8.8c-3-4.5-4.7-9.3-3.2-14.7
	c0.5-1.8,1.5-3.4,2.3-5.1c0.1-0.3,0.6-0.6,0.9-0.7c5.2-0.9,10.1-2.6,13.8-6.6C270.4,354.9,270.6,355,270.7,355.1z"/>
<path fill="#B498B5" d="M230.8,3.7c2-0.2,3.6,0.5,5.1,1.4c5.1,3,8.7,7.5,11.5,12.6c3.2,5.7,5.1,11.9,6.4,18.2
	c0.2,0.8-0.2,1.1-0.8,1.4c-3,1.5-6.3,2-9.6,2c-0.9,0-1.8-0.2-2.7-0.2c-0.5,0-1,0.4-1.5,0.5c0.3,0.4,0.6,1.1,1.1,1.2
	c1.4,0.4,2.8,0.8,4.3,0.9c3.4,0.2,6.7-0.5,9.9-2.3c0.4,2.4,0.7,4.6,1,6.8c0.1,1,0.1,2.1,0.1,3.1c0.1,1-0.5,1.3-1.4,1.6
	c-4.2,1.1-8.3,1.3-12.6,0.2c-0.3-0.1-0.5-0.2-0.8-0.2c-0.5,0-0.9,0.2-1.4,0.3c0.3,0.4,0.5,1,0.8,1.1c1.8,0.5,3.7,1.1,5.5,1.3
	c3.1,0.3,6.2,0,9.2-1c0.1,0,0.3-0.1,0.8-0.2c-0.2,2.6-0.4,5-0.7,7.4c-0.1,1.1-0.3,2.1-0.7,3.2c-0.1,0.4-0.7,0.9-1.1,1
	c-5,0.8-9.6-0.1-14-2.6c-0.4-0.3-0.9-0.5-1.4-0.7c-0.2-0.1-0.7,0-0.8,0.2c-0.1,0.2-0.1,0.7,0.1,0.8c0.7,0.7,1.4,1.4,2.2,1.9
	c4.2,2.5,8.6,3.7,13.7,2.9c-0.3,0.5-0.5,0.9-0.7,1.3c-2.9,5-7.3,7.3-13,7.5c-3.9,0.1-7.4-0.9-10.8-2.7c-7.2-3.9-12.9-9.3-16.9-16.4
	c-3.7-6.5-3.4-13.2-0.5-19.9c2.2-5,6.1-6.5,12.1-5.4c3.1,0.6,5.8,1.9,7.4,4.8c0.3,0.4,0.4,1.1,0.3,1.5c-0.5,3.3-1,6.6-2.5,9.6
	c-0.6,1.1-0.2,2.2,0.7,2.6c0.9,0.4,1.8,0.1,2.4-1.1c1.7-3.3,2.5-6.8,3.1-10.4c1.3-7.5,0.6-15-1.1-22.4c-0.8-3.3-1.7-6.7-2.5-10
	C231.1,5.1,230.9,4.4,230.8,3.7z"/>
<path fill="#B498B5" d="M112.1,89.5c1.6-2.3,2.8-4.5,3-7c0.2-2.1-0.1-4.2-0.1-6.3c0-0.3-0.2-0.8-0.4-1c-0.3-0.3-0.8-0.6-1.2-0.6
	c-0.3,0.1-0.8,0.6-0.8,1c-0.1,1.1,0.1,2.2,0.1,3.2c0.1,4.6-1,8.6-5.2,11.1c-1.1,0.6-2.2,0.7-3.3,0.3c-0.9-0.3-1.9-0.4-2.8-0.7
	c-2.9-0.9-5.4-2.6-7.6-4.4c2.1-1.2,4.3-2.2,6.3-3.5c1.3-0.9,2.5-2,3.5-3.2c0.9-1.1,1.4-2.5,1.9-3.8c0.1-0.3-0.3-0.9-0.5-1.4
	c-0.5,0.2-1,0.4-1.5,0.7c-0.2,0.1-0.3,0.5-0.4,0.7c-2.1,4.8-6.1,7-10.9,8.1c-0.3,0.1-0.9-0.1-1.1-0.4c-1.7-2.5-3.3-5.1-5-7.8
	c0.6-0.2,0.9-0.3,1.3-0.4c3.1-0.9,5.8-2.4,7.9-4.9c0.3-0.3,0.5-0.6,0.7-1c0.4-0.6,0.9-1.4,0.2-2c-0.3-0.2-1.2,0.2-1.7,0.6
	c-2.7,2.4-5.7,4.3-9.3,5.1C81.7,63.9,80,55.4,81,46.6c0.9-7.6,3.1-14.9,6.7-21.6c0.1,0,0.2,0,0.3,0.1c0.3,2.5,0.7,5.1,1,7.6
	c0.8,6.8,2.8,13.2,5.7,19.3c1.4,2.9,2.7,5.8,4.3,8.6c1.2,2,3,3.7,4.5,5.5c0.3,0.4,0.9,0.6,1.4,0.9c0.9,0.4,1.9,0.4,2.4-0.6
	c0.6-1,0.1-1.8-0.8-2.4c-2-1.2-3.4-3-4.7-4.9c-0.3-0.4-0.4-1.1-0.4-1.6c0.4-4.4,2.9-7.9,5.4-11.3c2.2-3,4.8-5.3,8.3-6.7
	c2.6-1.1,4.8-0.7,7,1c4.4,3.4,6.2,8,7.2,13.2c1.4,7,0.9,13.8-1.6,20.5c-2.6,7-7.2,12.1-14.3,14.8C113.2,89.1,112.8,89.3,112.1,89.5z
	"/>
<path fill="#BA17BA" d="M91.2,96.7c-1.7,4.8-2.5,9.7-3.3,14.6c-0.1,0.4-0.4,0.8-0.7,1c-6.7,5-12.9,10.5-18.8,16.4
	c-3.5,3.5-6.8,7.3-9.6,11.5c-1.3,2-1.4,3,1.7,3.6c3.7,0.6,7.3-0.2,10.9-0.9c5-1,9.8-2.4,14.4-4.3c0.2-0.1,0.4-0.1,0.7-0.2
	c-0.2,3.3-0.4,6.5-0.5,9.5c-1.2,0.4-2.2,0.7-3.2,1.1c-7.7,3.5-15.8,6.1-24.1,7.9c-4.3,0.9-8.6,1.5-13,2.2c-1.4,0.2-2.9,0-4.8,0
	c0.6-2.1,1.1-3.9,1.7-5.6c2.9-7.5,7.2-14.2,11.9-20.6c10-13.5,21.5-25.5,35.1-35.4C90.4,97.3,90.8,97,91.2,96.7z"/>
<path fill="#F586F5" d="M264.2,120c1.8,4.9,5,8.4,10,10.4c-1.1,3.8-1.1,7.6,0.8,11.1c1.9,3.6,5.1,5.7,8.8,7.2
	c-1.8,4.4-1.2,8.5,1.5,12.4c-1.7,1.1-3.6,1.3-5.4,0.7c-1.7-0.6-3.5-1.2-4.8-2.3c-10.3-7.9-15.8-18.2-15.8-31.3c0-2.1,0.6-4,1.7-5.8
	C261.8,121.4,262.7,120.5,264.2,120z"/>
<path fill="#BA17BA" d="M255.4,70.2c8.1,6.4,17.8,12.7,25.6,16.6c-0.3,0.2-0.5,0.4-0.8,0.5c-3.5,1.7-6.5,4-9.1,6.9
	c-0.6,0.6-1.1,0.7-1.9,0.5c-4-1.4-7.6-3.5-11-6c-1.6-1.2-2.8-2.5-3.9-4.1c-1.8-2.6-3.7-5.1-5.7-7.7
	C251.5,75.2,253.8,73.1,255.4,70.2z"/>
<path fill="#F586F5" d="M60.5,141.8c8-10.3,16.9-19.2,26.8-27.2c0.1,0.1,0.2,0.2,0.3,0.3c-0.1,2.7-0.3,5.4-0.4,8.1
	c-0.1,3.9-0.2,7.8-0.2,11.7c0,0.9-0.3,1.3-1.1,1.7c-5.8,2.4-11.9,3.7-18.1,4.8c-1.7,0.3-3.3,0.5-5,0.6
	C62.1,141.9,61.5,141.8,60.5,141.8z"/>
<path fill="#F586F5" d="M268.9,96.7c-1.3,2.3-2.6,4.5-3.9,6.8c-2-3.8-4-7.7-6.1-11.7C262.3,93.5,265.6,95.1,268.9,96.7z"/>
<path fill="#F586F5" d="M284.8,165.7c0.7-0.3,1.2-0.5,1.7-0.8c0.5-0.3,0.9-0.6,1.3-0.8c1.9,0.9,3.7,1.8,5.6,2.6
	c0.1,2.2,0.3,4.4,0.4,6.8C290.4,171.5,287.3,169,284.8,165.7z"/>
<path fill="#FFFFFF" d="M313.5,40.5c-0.7,0.7-1.3,1.5-2.1,2.1c-0.3,0.2-0.9-0.1-1.4-0.1c0.2-0.4,0.2-1,0.5-1.2
	c0.8-0.5,1.7-0.9,2.6-1.3C313.3,40.2,313.4,40.4,313.5,40.5z"/>
<path fill="#FFFFFF" d="M39.8,86.4c-1.3,0.8-2.8,0.1-4.3-2.1C36.8,83.8,38.7,84.7,39.8,86.4z"/>
<path d="M144.2,117.8c1-0.5,2.2-0.8,3.1-1.4c9-5.5,15.9-13.1,20.5-22.6c0.7-1.4,0.9-3,1.3-4.6c0.2-0.9,0.5-1.7,1.6-1.8
	c1-0.1,1.5,0.6,1.7,1.5c0.8,2.8,0.4,5.6-0.1,8.4c-1.2,6.5-3.4,12.6-6.5,18.5c-0.1,0.2-0.2,0.3-0.3,0.6c3.6-0.8,6.8-2.1,9.8-4
	c9.2-6,14.6-14.4,16.1-25.2c0.1-0.6,0.3-1.3,0.6-1.8c0.8-1.1,2.1-0.7,2.9,0.5c4.8,7.1,4.6,14.9,3.3,22.9c0,0.1,0,0.3-0.1,0.6
	c0.3-0.1,0.6-0.2,0.8-0.3c9-5.1,14.3-12.7,15.4-23c0.2-2-0.1-3.9-1-5.7c-0.5-1.1-0.2-2.1,0.7-2.5c0.9-0.4,1.8-0.1,2.4,1
	c1.6,2.9,1.7,6,1.4,9.1c-0.1,1.2-0.3,2.4-0.7,3.5c-0.2,0.8,0,1.2,0.6,1.7c7.7,5.5,13.2,12.6,16,21.7c3.7,12,1.8,23.4-4.3,34.2
	c-7.1,12.4-17.7,20.8-30.8,26c-15.4,6.1-31,6.9-46.7,1.1c-9-3.3-16.5-8.6-22-16.5c-9.1-13-9.8-27-3.7-41.4
	c3.5-8.1,8.9-14.7,15.8-20.2c0.5-0.4,1.1-1,1.7-1.2c1.6-0.5,1.5-1.6,1.2-2.8c-0.3-1.3-0.6-2.6-1-3.8c-0.2-0.8-0.3-1.6,0.6-2
	c0.9-0.4,1.5,0.2,1.9,0.9c1.2,2.2,1.7,4.6,1.9,7c0.5,7.1-1,13.9-4,20.4c-0.1,0.3-0.3,0.6-0.4,0.9C144,117.6,144.1,117.7,144.2,117.8
	z M194.3,92c-0.2,0.8-0.4,1.3-0.5,1.8c-4,12.5-12.1,21.2-24.6,25.4c-1.9,0.6-4,1-6,1.1c-2.2,0.1-3-1.5-1.9-3.3
	c0.8-1.3,1.5-2.6,2.2-3.9c1.9-3.8,3.3-7.8,4.3-11.9c-0.3,0.2-0.5,0.5-0.6,0.7c-3,4.6-6.6,8.6-10.7,12.3c-2.7,2.4-5.6,4.6-9.1,6
	c-1.5,0.6-3.1,1-4.7,1.1c-2.1,0.2-3.4-1.7-2.2-3.7c2.4-4.2,3.9-8.8,4.6-13.6c0.2-1.3,0.2-2.5,0.4-4.1c-6.9,5.7-12.4,12-15.8,20
	c-5.8,13.7-4.9,26.8,4.2,38.8c5.1,6.8,12,11.3,20,14.1c14.7,5.2,29.3,4.4,43.6-1.3c12.2-4.8,22-12.6,28.7-24.1
	c4.6-7.9,6.7-16.5,5.4-25.7c-1.5-10.4-6.7-18.6-15-24.9c-0.3-0.2-0.6-0.4-0.9-0.6c-0.2,0.5-0.4,0.8-0.6,1.2
	c-2.8,5.5-6.5,10.2-11.8,13.4c-1.8,1.1-3.8,1.8-5.8,2.4c-2.3,0.6-3.1-0.6-2.8-2.9c0.4-2.9,0.8-5.9,1-8.8
	C195.7,98.5,195.3,95.4,194.3,92z"/>
<path d="M159.2,233.2c-2.4,2.1-4.7,4.3-7.2,6.2c-4.5,3.4-9.5,5.5-15.3,5.2c-0.8,0-1.5-0.1-2.3-0.3c-1.8-0.5-2.3-1.7-1.5-3.4
	c1.4-2.9,2.9-5.8,4.3-8.7c2.2-4.9,4-9.9,4.1-15.4c0-1,0-1.9,0-2.9c0-1,0.2-2,1.4-2.2c0.9-0.2,1.7,0.5,2,1.8c0.7,2.9,0.4,5.9-0.1,8.8
	c-1.1,6.1-3.8,11.6-6.5,17.1c-0.2,0.4-0.4,0.7-0.5,1.1c0,0.1,0,0.2,0,0.4c1-0.1,2,0,2.9-0.2c8.9-2.4,15.5-7.5,19.1-16.2
	c0.4-1.1,0.7-2.3,2.3-2.2c1,0.1,1.6,0.9,1.8,2.7c0.6,4.4-0.4,8.7-1.7,12.9c-0.8,2.5-1.8,5-2.9,7.7c1.1-0.2,2.2-0.3,3.2-0.6
	c6.8-2,11.8-6.4,15.8-12c2.7-3.9,4.7-8.1,5.2-12.9c0.1-0.9,0.6-1.5,1.5-1.6c1.1-0.1,1.9,0.5,2.1,1.5c0.5,2.7,1.1,5.3,1.2,8
	c0,2.9-0.6,5.8-1,8.8c0.2-0.1,0.6-0.1,1-0.3c7-2.6,11.2-7.8,13.6-14.6c1.6-4.2,2-8.6,0.7-13.1c-0.4-1.4,0.1-2.5,1.2-2.7
	c1.1-0.3,2,0.4,2.4,1.8c1.4,4.9,1.1,9.8-0.5,14.6c-2.6,7.6-7.1,13.5-14.5,16.8c-1.7,0.8-3.7,1.1-5.5,1.3c-2.2,0.2-3.5-1.8-2.7-3.9
	c1-2.7,1.5-4.9,1.3-6.5c-0.3,0.4-0.4,0.8-0.6,1.1c-4.2,7.4-9.9,13.2-18,16.4c-2.6,1.1-5.4,1.5-8.2,1.3c-2.9-0.3-3.8-1.9-2.2-4.4
	C157.1,241.2,158.3,237.2,159.2,233.2z"/>
<path d="M244.2,245.6c3,5.7,5.6,11.2,9.4,16.1c0.2,0.3,0.4,0.5,0.6,0.8c1,1.6,0.4,3.1-1.5,3.5c-3.4,0.7-6.7,0.3-10-0.4
	c-5.2-1-10.1-2.5-14.9-5.7c0.4,1.1,0.6,1.9,0.9,2.7c2.1,5,4.7,9.7,8,14c0.2,0.3,0.5,0.6,0.7,1c0.9,1.6,0.3,3.1-1.5,3.5
	c-3.7,0.8-7.3,0.8-11.1,0.2c-7.8-1.3-14.5-4.9-20.5-9.9c-1-0.9-1.9-1.9-2.7-3c-0.6-0.8-0.7-1.8,0.2-2.6c1-0.7,1.7-0.1,2.4,0.5
	c4.4,4.2,9.4,7.4,15,9.5c3.9,1.5,8.1,2.3,12.3,2.1c0.3,0,0.6,0,0.8-0.1c0.1,0,0.1-0.1,0.3-0.2c-0.2-0.4-0.5-0.8-0.7-1.2
	c-2.2-4-4.5-7.9-6.5-12c-1.1-2.3-1.6-4.9-2.3-7.3c-0.1-0.4-0.1-1-0.1-1.4c0.1-1.4,1.5-2.1,2.7-1.5c0.3,0.1,0.6,0.4,0.9,0.6
	c6.1,4.5,13,6.8,20.5,7.7c0.7,0.1,1.3,0.1,2.2,0.1c-0.2-0.4-0.3-0.7-0.5-0.9c-2.9-5.3-5.8-10.6-8.7-15.9c-0.5-0.9-0.9-1.9-1-2.9
	c-0.1-0.7,0.3-1.7,0.7-2.2c0.6-0.7,1.4-0.4,2.2,0c5.5,2.4,11.1,4.6,17.3,4.4c2.6-0.1,5.2-0.8,7.8-1.2c0.6-0.1,1.1-0.5,1.7-0.8
	c-0.5-0.4-0.8-0.6-1.1-0.9c-4.9-4.1-10-8.1-14.2-13c-1-1.1-1.7-2.5-2.5-3.8c-0.6-1-0.3-2,0.5-2.6c0.8-0.6,2-0.4,2.6,0.6
	c4.5,7.3,11.6,12,17.9,17.3c2.2,1.9,2.2,3.4-0.3,5c-4.4,2.8-9.2,3.4-14.2,3.2c-4.2-0.2-8.2-1.1-12.1-2.8
	C245.2,245.9,244.9,245.8,244.2,245.6z"/>
<path fill="#F586F5" d="M194.3,92c1.1,3.3,1.4,6.4,1.2,9.5c-0.2,2.9-0.5,5.9-1,8.8c-0.3,2.3,0.5,3.5,2.8,2.9c2-0.5,4.1-1.3,5.8-2.4
	c5.3-3.2,9.1-7.9,11.8-13.4c0.2-0.4,0.4-0.8,0.6-1.2c0.4,0.2,0.7,0.4,0.9,0.6c8.2,6.4,13.5,14.5,15,24.9c1.3,9.2-0.8,17.7-5.4,25.7
	c-6.7,11.5-16.5,19.2-28.7,24.1c-14.3,5.7-28.9,6.5-43.6,1.3c-8-2.8-14.9-7.3-20-14.1c-9.1-12.1-10-25.1-4.2-38.8
	c3.4-8,8.9-14.3,15.8-20c-0.1,1.5-0.2,2.8-0.4,4.1c-0.7,4.8-2.2,9.4-4.6,13.6c-1.2,2,0.2,3.9,2.2,3.7c1.6-0.2,3.2-0.5,4.7-1.1
	c3.4-1.4,6.3-3.6,9.1-6c4.1-3.6,7.7-7.7,10.7-12.3c0.2-0.3,0.4-0.5,0.6-0.7c-1,4.1-2.4,8.1-4.3,11.9c-0.7,1.3-1.4,2.6-2.2,3.9
	c-1.1,1.9-0.3,3.5,1.9,3.3c2-0.1,4.1-0.5,6-1.1c12.6-4.2,20.6-12.9,24.6-25.4C193.9,93.3,194,92.8,194.3,92z M203,137.7
	c0.2,0,0.4,0,0.6,0.1c0.8,0.1,1.5-0.2,1.7-1c0.2-0.9-0.3-1.4-1.1-1.6c-0.6-0.2-1.2-0.3-1.9-0.5c-4-0.7-8-0.7-12-0.2
	c-6.6,0.8-12.8,2.7-18.4,6.5c-1.5,1-2.8,2.2-4.2,3.4c-0.3-0.4-0.6-0.9-1-1.3c-1.9-2.3-4-4.4-7.1-5c-0.5-0.1-1.1,0.3-1.7,0.5
	c0.3,0.4,0.6,1,1,1.3c2.4,1.2,4.3,2.9,5.8,5.1c3.4,4.8,5.1,10.1,5.3,15.9c0,0.7,0.1,1.5,1,1.5c0.9,0,1-0.7,1.1-1.4
	c0.2-4.3-0.6-8.5-2.4-12.5c-0.5-1-0.4-1.6,0.5-2.4c5.8-5,12.7-7.3,20.1-8.4c0.3,0,0.8,0.4,1,0.7c0.8,1.9,1.4,3.8,2.2,5.7
	c1.1,2.5,2.2,5.1,3.3,7.6c0.4,1,1.3,1.5,2.3,1.2c1.2-0.3,1.6-1.3,1.8-2.5C201.6,146.1,202.3,141.9,203,137.7z M178,130.5
	c3.1-0.1,7-1.6,8.9-3.5c2.1-2.1,1.5-4.7-1.4-5.3c-4.1-0.9-7.9,0.2-10.9,3.2c-2.1,2-1.2,4.6,1.6,5.3
	C176.8,130.4,177.4,130.4,178,130.5z"/>
<path d="M203,137.7c-0.7,4.3-1.4,8.4-2.1,12.5c-0.2,1.1-0.5,2.1-1.8,2.5c-1.1,0.3-1.9-0.2-2.3-1.2c-1.1-2.5-2.2-5-3.3-7.6
	c-0.8-1.9-1.4-3.8-2.2-5.7c-0.1-0.3-0.7-0.8-1-0.7c-7.4,1.1-14.3,3.4-20.1,8.4c-0.9,0.8-1,1.3-0.5,2.4c1.8,3.9,2.6,8.1,2.4,12.5
	c0,0.7-0.1,1.5-1.1,1.4c-0.9,0-1-0.8-1-1.5c-0.2-5.8-1.9-11.1-5.3-15.9c-1.5-2.2-3.5-3.9-5.8-5.1c-0.4-0.2-0.7-0.8-1-1.3
	c0.6-0.2,1.2-0.6,1.7-0.5c3,0.7,5.2,2.7,7.1,5c0.3,0.4,0.7,0.9,1,1.3c1.4-1.2,2.8-2.4,4.2-3.4c5.5-3.8,11.8-5.7,18.4-6.5
	c4-0.5,8-0.5,12,0.2c0.6,0.1,1.2,0.3,1.9,0.5c0.8,0.2,1.3,0.7,1.1,1.6c-0.2,0.9-0.8,1.1-1.7,1C203.4,137.7,203.2,137.7,203,137.7z
	 M198.2,147.7c0.1,0,0.2,0,0.4,0c0.6-3.4,1.2-6.9,1.8-10.5c-2.3,0-4.3,0-6.6,0C195.3,140.8,196.7,144.3,198.2,147.7z"/>
<path d="M178,130.5c-0.6-0.1-1.2-0.1-1.8-0.3c-2.8-0.7-3.7-3.3-1.6-5.3c3-3,6.8-4,10.9-3.2c2.9,0.6,3.5,3.2,1.4,5.3
	C185,128.9,181,130.4,178,130.5z"/>
<path fill="#FFFFFF" d="M198.2,147.7c-1.4-3.4-2.9-6.9-4.4-10.5c2.3,0,4.3,0,6.6,0c-0.6,3.6-1.2,7.1-1.8,10.5
	C198.4,147.7,198.3,147.7,198.2,147.7z"/>
</svg>
