<?xml version="1.0" encoding="UTF-8" standalone="no"?>
<!DOCTYPE svg PUBLIC "-//W3C//DTD SVG 1.1//EN" "http://www.w3.org/Graphics/SVG/1.1/DTD/svg11.dtd">
<svg width="100%" height="100%" viewBox="0 0 28 28" version="1.1" xmlns="http://www.w3.org/2000/svg" xmlns:xlink="http://www.w3.org/1999/xlink" xml:space="preserve" xmlns:serif="http://www.serif.com/" style="fill-rule:evenodd;clip-rule:evenodd;stroke-linejoin:round;stroke-miterlimit:2;">
    <g transform="matrix(0.807763,0,0,0.807763,2.99524,2.6914)">
        <g transform="matrix(3.63645,0,0,3.64206,-19.9547,-15.1803)">
            <ellipse cx="9.234" cy="8.012" rx="4.766" ry="4.759" style="fill:white;"/>
        </g>
        <path d="M19.709,-0C20.117,-0 20.509,0.162 20.797,0.451C21.086,0.739 21.248,1.13 21.248,1.538L21.248,4.649L11.456,8.919L11.457,8.919L7.783,10.521L7.645,10.581C7.644,10.581 7.643,10.58 7.642,10.58C7.581,10.548 7.521,10.514 7.463,10.478C7.522,10.515 7.583,10.549 7.645,10.581L9.194,11.277L13.025,9.603L13.027,9.604L21.248,6.013L21.248,10.464C21.248,10.743 21.171,11.018 21.026,11.257C20.881,11.496 20.673,11.69 20.425,11.819L19.258,12.33L19.26,12.331L15.441,13.999L15.433,13.999L15.281,13.933L15.433,13.999L20.361,16.151C20.625,16.273 20.848,16.468 21.003,16.713C21.159,16.959 21.241,17.243 21.239,17.534L21.239,21.983L6,15.341L6,7.878C6.001,8.434 6.154,8.98 6.442,9.456C6.67,9.831 6.975,10.151 7.335,10.396C7.011,10.176 6.732,9.895 6.514,9.567C6.228,9.139 6.056,8.646 6.013,8.133L6.013,8.093C6.004,7.976 6.002,7.858 6.007,7.739C6.008,7.705 6.01,7.671 6.013,7.637L6.013,7.6C6.053,7.093 6.22,6.604 6.499,6.179C6.5,6.182 6.502,6.185 6.504,6.187C6.519,6.165 6.534,6.142 6.549,6.12C6.879,5.642 7.338,5.268 7.873,5.041L19.196,0.089C19.36,0.028 19.534,-0.002 19.709,-0ZM21.248,23.359L6,16.703L6,20.293C6.023,20.873 6.211,21.435 6.543,21.911C6.875,22.387 7.337,22.758 7.873,22.98L19.113,27.881C19.302,27.957 19.505,27.998 19.709,28C20.117,28 20.509,27.838 20.797,27.549C21.086,27.261 21.248,26.869 21.248,26.462L21.248,23.359Z" style="fill:rgb(1,130,255);"/>
    </g>
</svg>
