<?xml version="1.0" encoding="UTF-8" standalone="no"?>
<!DOCTYPE svg PUBLIC "-//W3C//DTD SVG 1.1//EN" "http://www.w3.org/Graphics/SVG/1.1/DTD/svg11.dtd">
<svg width="100%" height="100%" viewBox="0 0 2500 2500" version="1.1" xmlns="http://www.w3.org/2000/svg" xmlns:xlink="http://www.w3.org/1999/xlink" xml:space="preserve" xmlns:serif="http://www.serif.com/" style="fill-rule:evenodd;clip-rule:evenodd;stroke-linejoin:round;stroke-miterlimit:2;">
    <g>
        <g transform="matrix(1,0,0,1,-264.886,-81.1919)">
            <ellipse cx="1514.89" cy="1332.56" rx="1049.87" ry="1052.16" style="fill:rgb(255,255,255);"/>
        </g>
        <path d="M1248.63,2170.94C740.771,2170.94 329.063,1759.23 329.063,1251.38C329.063,743.516 740.771,331.816 1248.63,331.816C1756.48,331.816 2168.18,743.516 2168.18,1251.38C2168.18,1759.23 1756.48,2170.94 1248.63,2170.94ZM1248.63,2.744C559.033,2.744 0,561.787 0,1251.38C0,1940.98 559.033,2500 1248.63,2500C1938.22,2500 2497.26,1940.98 2497.26,1251.38C2497.26,561.787 1938.22,2.744 1248.62,2.744L1248.63,2.744Z" style="fill:rgb(207,39,45);fill-rule:nonzero;"/>
        <path d="M1299.96,940.4C1299.96,797.021 1416.2,680.781 1559.59,680.781C1702.98,680.781 1819.21,797.021 1819.21,940.4C1819.21,1083.8 1702.98,1200.03 1559.59,1200.03C1416.2,1200.03 1299.96,1083.8 1299.96,940.4M1299.96,1562.33C1299.96,1418.95 1416.2,1302.7 1559.59,1302.7C1702.98,1302.7 1819.21,1418.95 1819.21,1562.33C1819.21,1705.72 1702.98,1821.96 1559.59,1821.96C1416.2,1821.96 1299.96,1705.72 1299.96,1562.33M678.037,1562.33C678.037,1418.95 794.287,1302.7 937.666,1302.7C1081.06,1302.7 1197.3,1418.95 1197.3,1562.33C1197.3,1705.72 1081.06,1821.96 937.666,1821.96C794.287,1821.96 678.037,1705.72 678.037,1562.33M678.037,940.41C678.037,797.021 794.287,680.791 937.666,680.791C1081.06,680.791 1197.3,797.021 1197.3,940.41C1197.3,1083.81 1081.06,1200.04 937.666,1200.04C794.287,1200.04 678.037,1083.81 678.037,940.41" style="fill:rgb(207,39,45);fill-rule:nonzero;"/>
    </g>
</svg>
