<?xml version="1.0" encoding="UTF-8" standalone="no"?>
<!DOCTYPE svg PUBLIC "-//W3C//DTD SVG 1.1//EN" "http://www.w3.org/Graphics/SVG/1.1/DTD/svg11.dtd">
<svg width="100%" height="100%" viewBox="0 0 463 463" version="1.1" xmlns="http://www.w3.org/2000/svg" xmlns:xlink="http://www.w3.org/1999/xlink" xml:space="preserve" xmlns:serif="http://www.serif.com/" style="fill-rule:evenodd;clip-rule:evenodd;stroke-linejoin:round;stroke-miterlimit:2;">
    <g transform="matrix(1.43095,0,0,1.42555,159.651,147.959)">
        <circle cx="50.106" cy="58.497" r="161.676" style="fill:white;"/>
    </g>
    <g transform="matrix(0.611707,0,0,0.611707,89.8021,48.7425)">
        <path d="M135.7,70.8C140.6,71.9 145.5,72.6 150.5,72.2C159.3,71.4 167.3,68.5 174.3,62.8C181.3,57.1 185.5,49.8 187,41C187.6,37.3 187.8,33.5 186.9,29.8C186.8,29.4 187,28.7 187.3,28.5L186.5,28.6C186.6,28.4 186.7,28.2 186.9,28C186.9,28 186.8,27.9 186.7,27.8C186.4,27.3 186,26.8 185.8,26.2C181.8,15 174.6,7 163.1,3.4C150,-0.7 137.3,5.5 132.8,18C131.8,20.7 131.4,23.5 130.7,26.5C129.8,25.8 128.7,25.2 127.8,24.4C121.8,19.1 118.6,12.3 117.5,4.5C117.3,2.7 116.4,1.5 114.9,0.9C113.5,0.3 112.4,1.4 111.5,2.4C110.9,3 110.4,3.6 109.9,4.3C104.5,11 100.7,26 104,35.6C104.1,35.9 104.2,36.2 104.3,36.5L104,36.5C105.9,42.5 108.1,48.5 111.5,53.9C117.3,62.8 125.3,68.5 135.7,70.8Z" style="fill:rgb(180,152,181);fill-rule:nonzero;"/>
    </g>
    <g transform="matrix(0.611707,0,0,0.611707,89.8021,48.7425)">
        <path d="M282.7,56.5C285.5,60 288,64 292.3,65.9C296.7,67.9 301.2,69.9 305.8,71.1C317.9,74.3 329,72 338.9,64.3C344.9,59.6 350,54.1 353.8,47.5C355.6,44.3 356.7,40.7 358.1,37.4C358.2,37.2 358.3,36.9 358.5,36.7L357.9,36.4C358.3,34.5 358.7,32.5 358.8,30.5C359.5,21.1 357.8,12.2 352.5,4.3C351.6,2.9 350.5,1.6 349.2,0.5C348.6,0 347.2,-0.2 346.5,0.1C345.3,0.7 344.5,1.9 344.3,3.5C343.5,10.3 340.8,16.4 336.1,21.4C334.6,23 332.8,24.2 330.8,26C330.7,24.7 330.6,24 330.5,23.2C328.9,11 320.7,3.1 310.6,1.6C301.9,0.3 294.3,3 287.6,8.4C282.3,12.7 278.6,18.1 276.3,24.5C276.1,25 275.7,25.4 275.3,25.9C275.7,26 276,26.3 276,26.7L275.5,26.6C273.9,37.7 275.9,47.8 282.7,56.5Z" style="fill:rgb(180,152,181);fill-rule:nonzero;"/>
    </g>
    <g transform="matrix(0.611707,0,0,0.611707,89.8021,48.7425)">
        <path d="M365.4,483.1C365.1,482.6 364.6,482.3 364.3,481.9C364.1,481.9 364,482 363.8,482C363.4,484.4 362.8,486.8 362.6,489.3C362.1,495.8 361.7,502.3 361.3,508.8C361.2,510.9 359.4,512 357.7,510.8C354.9,508.9 352.1,506.8 349.5,504.5C346.8,502.1 344.4,499.3 341.9,496.8C341.7,496.6 341.5,496.4 341,496C340.5,498.3 340,500.3 339.6,502.3C338.5,508 338.1,513.7 338.4,519.5C338.4,520.5 338.5,521.6 338.6,522.6L338.8,522.8C338.8,524.4 347.3,528.3 350.7,528.5C366.1,529.6 378.9,517.8 382.7,503.6L382.7,502.5C382,501.9 381.3,501.3 380.6,500.7C374.8,495.4 369.7,489.6 365.4,483.1Z" style="fill:rgb(245,134,245);fill-rule:nonzero;"/>
    </g>
    <g transform="matrix(0.611707,0,0,0.611707,89.8021,48.7425)">
        <path d="M126.6,492.4C125.2,493.9 124.1,495.2 122.9,496.5C118.9,500.9 114.5,504.7 109,507C108.8,507.1 108.6,507.2 108.4,507.2C106.1,508 104.8,507 105.2,504.5C105.6,502 106.2,499.5 106.3,497C106.4,493.9 106.1,490.7 105.7,487.6C105.3,484.6 103.5,482.3 101.4,480.1C98.9,483.1 96.7,486 94.3,488.6C90,493.4 85.3,497.7 80,501.1C80.2,502.7 80.6,504.3 81.1,505.4C84.4,513.1 89.3,519.5 96.9,523.5C104.8,527.7 113,528 121.2,524.5C121.3,524.5 121.8,524.4 122.5,524.3C124,517.4 125.5,510.4 126.7,503.4C127.3,500 127.6,496.4 126.6,492.4Z" style="fill:rgb(245,134,245);fill-rule:nonzero;"/>
    </g>
    <g transform="matrix(0.611707,0,0,0.611707,89.8021,48.7425)">
        <path d="M322.6,537.3C322.3,536.9 322.1,536.5 321.9,536.1C321.7,536.2 321.4,536.3 321.2,536.4C321.1,538 320.8,539.6 321,541.1C321.9,546.4 323,551.6 324.1,556.9C324.6,559.3 323.6,560.6 321.3,560C319.6,559.5 317.9,558.9 316.4,558C313.1,555.9 309.8,553.6 306.6,551.2C304.7,549.7 303,547.8 301.3,545.9C300.4,544.9 299.9,544.9 299,545.8C294.6,550.3 289.6,553.8 283.5,555.5C279.2,556.7 274.9,558.2 270.2,557.9C268.9,557.8 267.7,557.8 267.2,556.4C266.7,555 267.6,554.2 268.5,553.4C272.1,550.2 275.2,546.7 277,542.2C277.2,541.7 277.4,541.2 277.7,540.5C277.3,540.6 277.1,540.5 277,540.6C273.5,543 269.6,544.1 265.5,544.7C261.3,545.4 257.2,546.1 253,546.4C252.4,546.5 251.8,546.4 251.2,546.4L251,546.9C250.7,547.1 250.5,547.5 250.3,548.1C248.1,554.4 248.7,560.6 251.5,566.5C254.3,572.4 258.3,577.3 263.5,581.1C281.2,594.3 301.1,599 322.9,595.7C330.6,594.6 337.7,591.8 343.8,586.9C348.7,582.9 352.1,577.9 353.1,571.6C354.3,563.5 351.4,556.7 346.3,550.6L345.7,549.5C343.4,549.2 341,548.9 338.8,548.2C332.5,546.1 326.9,542.6 322.6,537.3Z" style="fill:rgb(245,134,245);fill-rule:nonzero;"/>
    </g>
    <g transform="matrix(0.611707,0,0,0.611707,89.8021,48.7425)">
        <path d="M187.3,537.1C187.1,536.8 186.8,536.6 186.3,536.1C186.3,538 186.2,539.5 186.3,541C186.7,545.8 188,550.5 189.6,555C190,556.2 190.6,557.3 191.1,558.5C191.9,560.2 191.4,562.3 188.9,562C187.8,561.8 186.6,561.7 185.5,561.2C176.5,557.4 169.5,551.4 165.6,542.2C165.5,541.9 165.3,541.7 165.1,541.2C157.9,550.3 147.7,553.6 137.2,556.3C136.3,556.5 135.3,556.4 134.3,556.4C133.2,556.4 132.3,556.1 131.8,555C131.3,553.8 132,553.1 132.7,552.3C135.1,549.6 137.6,547.1 139.7,544.3C141.7,541.6 142.8,538.4 143.2,534.9C142.2,535.7 141.2,536.5 140.3,537.4C137,540.5 133.3,543 129.2,545C125,547 120.7,548.9 116.5,550.8C116.2,551 115.8,551.1 115.5,551.2L115.3,551.5C114.9,551.6 114.4,551.8 114.2,552.1C107.9,561.2 107.3,572 114.2,581C118.3,586.2 123.7,589.6 129.8,591.9C140.8,596 152.2,596.5 163.7,594.7C176.1,592.8 187.6,588.5 197.7,581C204,576.4 209,570.7 211.9,563.4C213.8,558.5 214.2,553.5 212.7,548.4C212.6,548 211.9,547.3 211.6,547.4C211.6,547.4 211.5,547.4 211.4,547.3C210.7,547.4 210,547.4 209.3,547.5C200.4,547.4 193,544 187.3,537.1Z" style="fill:rgb(245,134,245);fill-rule:nonzero;"/>
    </g>
    <g transform="matrix(0.611707,0,0,0.611707,89.8021,48.7425)">
        <path d="M388.5,51.5C388.3,51.5 387.9,51.5 387.4,51.6C383.9,52.4 380.4,53 377,54C366.9,56.8 357.6,61.1 348.7,66.3C346,67.9 343.2,69.6 340.6,71.3C338.2,72.9 337.5,73.9 337.8,75.7C337.9,76.2 338.1,76.8 338.4,77.5C342.5,87.9 348.2,97.5 354.4,106.8C355.9,109 357.8,109.1 359.6,107.1C362.7,103.5 366.1,100 368.8,96.1C376,86.1 382.2,75.5 388.2,64.7C389.7,62 390.9,59.1 392.1,56.2C393.2,53.2 392,51.5 388.5,51.5Z" style="fill:rgb(245,134,245);fill-rule:nonzero;"/>
    </g>
    <g transform="matrix(0.611707,0,0,0.611707,89.8021,48.7425)">
        <path d="M123.6,68C122.4,67.5 121.2,66.9 120,66.3C111.1,61.8 101.9,58.2 92.4,55.5C91.4,55.2 90.5,55 89.5,54.7C84,53.3 78.4,52.2 72.9,51.1C70.7,50.7 69.4,51.9 69.4,54.5C69.6,55 69.9,56.1 70.4,57.1C72.7,61.4 75.1,65.7 77.6,69.8C83.8,80.2 90.8,90 98.9,99C100.8,101.1 102.9,103.2 105.1,105.1C107,106.7 108.4,106.1 109.3,103.8C112.9,94.5 116.6,85.4 121.6,76.8C122.6,75.1 123.6,73.4 124.7,71.8C125.8,70.1 125.4,68.8 123.6,68Z" style="fill:rgb(245,134,245);fill-rule:nonzero;"/>
    </g>
    <g transform="matrix(0.611707,0,0,0.611707,89.8021,48.7425)">
        <path d="M314.4,134.5C313.1,130.9 312.2,127.2 310.7,123.7C307.8,117 302.9,111.7 298.2,106.3C295.6,103.4 292.8,100.6 289.1,99C287.3,98.2 287,98.3 286,100.1C281.4,107.8 276,114.9 268.7,120.2C260.2,126.5 251.2,131.9 240.5,133.7C239.5,133.9 238.4,134 238,133C237.7,132.3 238,131.3 238.4,130.5C239,129.3 240,128.3 240.6,127C242.9,121.6 245.3,116.3 246.1,110.4C246.4,107.8 246.5,105.1 246.7,102.1C246.1,102.5 246,102.6 245.9,102.7C242.3,108.6 237.8,113.8 233,118.7C229,122.7 224.6,126.1 219.6,128.6C214.4,131.2 209,132.9 203.3,133.8C200.9,134.2 198.4,134.4 195.9,134.4C194.6,134.4 194.2,133.4 194.8,132.4C196.3,129.8 197.8,127.2 199.4,124.7C203.4,118.6 206.6,112.2 207.2,104.8C207.4,102.7 207.5,100.7 206.6,98.5C206.2,99 206,99.4 205.8,99.7C203.2,105.1 199.3,109.5 194.9,113.5C189.2,118.7 182.8,122.8 175.9,126.1C170,129 163.9,131.3 157.2,131.7C156.2,131.8 155.1,131.8 154.8,130.7C154.6,129.9 154.7,128.8 155.1,128C155.7,126.7 156.7,125.7 157.6,124.5C161,119.7 163.6,114.5 164.7,108.6C165,106.8 165.1,104.9 165.3,103C163.4,102.9 162.7,103.2 161.3,104.6C153,112.5 147.8,122.2 145.1,133.3C143.8,138.7 143.1,144.1 143.6,149.6C144.2,156.3 146.1,162.7 148.6,169C151,175 153.6,180.9 157.5,186.1C162.9,193.2 169.8,198.8 176.9,204.1C182.2,208 188.2,210.3 194.4,212.6C202.9,215.7 211.7,217.7 220.7,218.7C227.8,219.5 235,218.8 242,217.7C250.7,216.4 259.2,214.3 267.3,210.6C276.9,206.2 286.1,201.3 294.2,194.6C301.9,188.2 308.5,180.9 312.4,171.6C313.9,168.1 315,164.5 315.9,160.8C317,156.5 316.6,152 316.2,147.6C315.8,143.2 315.9,138.8 314.4,134.5Z" style="fill:rgb(245,134,245);fill-rule:nonzero;"/>
    </g>
    <g transform="matrix(0.611707,0,0,0.611707,89.8021,48.7425)">
        <path d="M461.9,439.5C459,435.1 457.3,430.1 456.7,424.9C455.6,416.3 455,407.6 454.8,398.9C454.6,391.2 455.3,383.4 455.5,375.7C455.8,366.3 455.4,357 454.4,347.6C453.2,335.7 450.7,324 446.4,312.9C439.1,293.9 428.6,276.8 415.2,261.5C405.7,250.7 395.1,241.3 382.5,234.1C382,233.8 381.5,232.9 381.5,232.3C381.2,226.4 381,220.4 380.8,214.4C380.8,213.1 380.8,211.7 380.7,210.4C380.4,205.8 379.9,201.3 379.6,196.7C378.8,185.5 377.2,174.3 375.1,163.2C373,152.1 370.3,141.1 367,130.3C366.7,129.2 367,128.7 367.8,128C370.3,125.7 372.9,123.4 375.2,120.9C381,114.6 385.7,107.5 390.3,100.3C399.9,85.1 407.5,68.8 413.7,52C415.9,46.2 417.5,40.3 418.1,34.1C418.5,30.4 416.9,27.8 413.3,26.8C411.7,26.4 410.1,26.1 408.5,26.1C401.5,25.9 394.6,26.6 387.7,28.1C381.9,29.4 376.1,30.3 370.6,32.7C370.1,32.9 369.4,33 368.8,33.1C365.6,34.1 362.4,35 359.2,36.1C358.9,36.2 358.6,36.5 358.3,36.8C358.1,37 358,37.3 357.9,37.5C356.4,40.9 355.4,44.5 353.6,47.6C349.8,54.2 344.7,59.7 338.7,64.4C328.8,72.1 317.7,74.5 305.6,71.2C300.9,69.9 296.5,67.9 292.1,66C287.8,64.1 285.3,60.1 282.5,56.6C275.7,47.9 273.7,37.8 275.3,26.7C273.5,25.8 271.7,24.7 269.6,24C261.4,21.4 252.8,20.2 244.2,19.6C234,19 223.8,18.9 213.7,20.2C205.9,21.1 198.3,22.7 191.1,25.8C189.6,26.4 188.4,27.5 187.1,28.5C186.8,28.7 186.6,29.4 186.7,29.8C187.6,33.5 187.5,37.3 186.8,41C185.3,49.8 181.1,57.1 174.1,62.8C167.1,68.4 159.1,71.4 150.3,72.2C145.3,72.6 140.3,71.8 135.5,70.8C125.1,68.5 117.1,62.8 111.4,53.9C107.9,48.5 105.8,42.6 103.9,36.5C103.3,34.7 102.3,33.6 100.5,33.2C97.3,32.5 94.1,31.9 91,30.8C86.4,29 81.5,28.1 76.7,27C69.3,25.3 61.8,24.2 54.1,24.6C52.2,24.7 50.3,25 48.6,25.5C45.7,26.4 44.2,28.8 44.4,31.8C44.5,33.7 44.8,35.6 45.1,37.4C46.3,43.9 48.6,50.2 51.1,56.3C58.6,75.1 67.6,93 79.4,109.5C83.8,115.6 88.5,121.6 94.4,126.3C95.5,127.1 95.6,127.8 95.3,129.1C92.7,139.2 90,149.3 87.8,159.5C85.1,171.9 83.5,184.4 82.6,197C82.2,202.4 81.9,207.9 81.7,213.3C81.4,219.1 81.3,224.9 81,230.7C81,231.3 80.4,232.1 79.8,232.6C78.5,233.5 77,234.3 75.6,235.1C62,244 50.4,255.3 40.5,268.3C26.9,286.1 16.4,305.6 11.3,327.5C9.7,334.8 9,342.3 8,349.7C6.9,358.3 7,366.9 7.3,375.5C7.6,381.5 8,387.4 7.9,393.4C7.8,401.8 7.4,410.2 6.7,418.6C6.2,425.5 4.4,432.1 0.6,438.1C-0.3,439.6 -0.4,441.1 0.7,442.4C1.7,443.6 3.1,444.7 4.5,445.3C7.5,446.6 10.7,446.3 13.8,445.2C21.6,442.5 27,437.1 31,430.1C31.3,429.6 31.6,429 31.9,428.5C32,428.5 32.2,428.6 32.3,428.6C32.3,429.3 32.4,430.1 32.4,430.8C32.2,434.2 32.1,437.5 31.6,440.8C30.4,448.8 28.1,456.4 22.8,462.8C20.6,465.5 21.4,468.5 24.5,470C26.8,471.1 29.2,471.2 31.7,470.9C38.4,470.1 44.4,467.3 49.9,463.4C53.2,461.1 56.1,458.3 58.5,454.4C59.4,456.3 60.4,457.8 61,459.5C65.8,472.8 65.9,486.1 61.4,499.5C60.8,501.4 60.4,503.3 60.7,505.3C61,506.8 61.8,507.8 63.3,507.8C64.5,507.8 65.8,507.6 67,507.2C71.7,505.8 76,503.7 80,501.1C85.3,497.7 90,493.4 94.3,488.6C96.7,485.9 98.9,483 101.4,480.1C103.5,482.3 105.2,484.6 105.7,487.6C106.2,490.7 106.4,493.9 106.3,497C106.3,499.5 105.6,502 105.2,504.5C104.8,507 106.1,508 108.4,507.2C108.6,507.1 108.8,507.1 109,507C114.6,504.7 119,500.9 122.9,496.5C124.1,495.2 125.2,493.9 126.6,492.4C127.6,496.4 127.3,500 126.7,503.5C125.5,510.5 124,517.5 122.5,524.4C122.4,525 122.2,525.6 122.1,526.1C121,531.2 119.5,536.3 116.7,540.8C115.3,543.1 113.5,545.1 111.7,547.2C110.4,548.8 110.6,549.6 112.2,550.5C113.3,551.2 114.4,551.3 115.5,551C115.8,550.9 116.2,550.8 116.5,550.6C120.8,548.7 125,546.8 129.2,544.8C133.2,542.8 137,540.4 140.3,537.2C141.2,536.3 142.3,535.6 143.2,534.7C142.8,538.2 141.7,541.4 139.7,544.1C137.5,546.9 135,549.5 132.7,552.1C132,552.9 131.3,553.6 131.8,554.8C132.3,555.9 133.1,556.3 134.3,556.2C135.3,556.2 136.3,556.3 137.2,556.1C147.7,553.4 157.9,550.1 165.1,541C165.3,541.4 165.5,541.7 165.6,542C169.5,551.2 176.5,557.2 185.5,561C186.5,561.4 187.7,561.6 188.9,561.8C191.4,562.2 192,560 191.1,558.3C190.5,557.2 190,556 189.6,554.8C188,550.3 186.7,545.6 186.3,540.8C186.2,539.3 186.3,537.8 186.3,535.9C186.8,536.5 187.1,536.7 187.3,536.9C193.1,543.8 200.4,547.2 209.4,546.9C210.1,546.9 210.8,546.8 211.5,546.7C213,546.5 214.6,546.2 216,545.8C218.5,545.1 218.9,543.1 217.3,541.1C216.7,540.3 216,539.6 215.3,538.8C212.9,536 210.6,533.2 209.2,529.7C204.7,518.2 205.1,506.7 208.7,495.1C208.9,494.5 209.5,493.8 210.1,493.5C214.4,491.4 218.9,490.1 223.6,489.9C227.3,489.7 231,490 234.7,490.2C239.9,490.5 245.1,491.3 250.2,492.8C252.2,493.4 253.5,494.5 254.1,496.6C256.3,503.8 257.2,511.1 256.5,518.6C255.7,527.3 253,535.1 246.4,541.2C245.8,541.8 245.3,543.1 245.5,543.8C245.7,544.6 246.8,545.4 247.7,545.6C248.9,545.9 250.2,546.2 251.5,546.2C252.1,546.2 252.7,546.3 253.3,546.2C257.5,545.8 261.6,545.1 265.8,544.5C269.9,543.9 273.8,542.8 277.3,540.4C277.4,540.3 277.6,540.3 278,540.3C277.7,541 277.5,541.5 277.3,542C275.5,546.5 272.3,550 268.8,553.2C267.9,554 267,554.8 267.5,556.2C268,557.6 269.2,557.6 270.5,557.7C275.1,558.1 279.4,556.5 283.8,555.3C289.9,553.6 294.9,550.1 299.3,545.6C300.2,544.7 300.7,544.7 301.6,545.7C303.3,547.6 304.9,549.5 306.9,551C310,553.4 313.3,555.7 316.7,557.8C318.2,558.7 319.9,559.3 321.6,559.8C323.9,560.4 324.9,559.1 324.4,556.7C323.3,551.5 322.2,546.2 321.3,540.9C321,539.4 321.4,537.8 321.5,536.2C321.7,536.1 322,536 322.2,535.9C322.4,536.3 322.6,536.8 322.9,537.1C327.2,542.4 332.8,545.9 339.1,548.1C341.3,548.9 343.7,549.1 346,549.4C346.2,549.4 346.4,549.4 346.5,549.5C347.8,549.7 349.2,549.6 349.8,548.2C350.5,546.7 349.5,545.7 348.5,544.7C348.2,544.5 348,544.2 347.8,543.9C345.8,541.5 343.5,539.4 342.1,536.4C340.1,531.8 339.2,527.1 338.7,522.2C338.6,521.2 338.5,520.2 338.5,519.1C338.3,513.3 338.6,507.6 339.7,501.9C340.1,499.9 340.6,497.8 341.1,495.6C341.6,496 341.8,496.2 342,496.4C344.5,499 346.9,501.7 349.6,504.1C352.2,506.4 355,508.5 357.8,510.4C359.6,511.6 361.3,510.5 361.4,508.4C361.8,501.9 362.2,495.4 362.7,488.9C362.9,486.5 363.5,484.1 363.9,481.6C364.1,481.6 364.2,481.5 364.4,481.5C364.8,481.9 365.2,482.3 365.5,482.7C369.7,489.2 374.8,495 380.7,500.2C381.4,500.8 382.1,501.4 382.8,502C383.3,502.5 383.9,502.9 384.5,503.2C387.1,504.7 389.8,506 392.6,507.2C394.6,508 396.6,508.6 398.7,509C400.4,509.3 401.8,508.5 402,507.2C402.2,505.6 402.5,503.8 402,502.4C398.5,492.9 397.6,483.2 398.8,473.2C399.5,467.7 400.8,462.4 403.4,457.4C403.7,456.9 404,456.4 404.4,455.9C404.7,456.1 404.8,456.2 404.9,456.3C410.5,464.2 418.4,468.8 427.6,471.3C430.8,472.2 434,472.6 437.3,471.5C441.5,470.2 442.4,466.9 439.8,463.5C438.2,461.3 436.7,459.1 435.5,456.7C431.7,448.5 430.4,439.8 430.4,430.8C430.4,430.4 430.5,430 430.7,429.3C431.9,431.2 432.8,432.9 433.8,434.4C438.2,440.5 443.7,445.3 451.3,446.8C454.5,447.4 457.6,447.1 460.4,445.2C462.7,444 463.3,441.6 461.9,439.5ZM340.6,71.2C343.3,69.5 346,67.8 348.7,66.2C357.6,61 367,56.7 377,53.9C380.4,53 383.9,52.3 387.4,51.5C387.8,51.4 388.3,51.4 388.5,51.4C392,51.4 393.2,53.1 392,56.1C390.9,59 389.6,61.8 388.1,64.6C382.2,75.4 376,86 368.8,96C366,99.9 362.7,103.4 359.6,107C357.9,109 355.9,108.9 354.4,106.7C348.2,97.4 342.6,87.8 338.4,77.4C338.1,76.7 337.9,76.1 337.8,75.6C337.5,73.8 338.2,72.8 340.6,71.2ZM77.6,69.8C75.1,65.6 72.8,61.3 70.4,57.1C69.9,56.1 69.6,55.1 69.4,54.5C69.4,51.8 70.7,50.6 72.9,51.1C78.5,52.2 84.1,53.3 89.5,54.7C90.5,55 91.4,55.2 92.4,55.5C101.9,58.2 111.1,61.8 120,66.3C121.2,66.9 122.4,67.5 123.6,68C125.4,68.8 125.8,70.1 124.7,71.8C123.6,73.4 122.6,75.1 121.6,76.8C116.6,85.4 112.9,94.6 109.3,103.8C108.4,106.1 107,106.7 105.1,105.1C102.9,103.2 100.9,101.1 98.9,99C90.8,90 83.8,80.2 77.6,69.8ZM241.9,217.8C234.9,218.9 227.8,219.6 220.6,218.8C211.6,217.8 202.9,215.8 194.3,212.7C188.2,210.5 182.1,208.2 176.8,204.2C169.7,198.9 162.8,193.3 157.4,186.2C153.4,181 150.8,175.1 148.5,169.1C146,162.8 144.1,156.4 143.5,149.7C143,144.2 143.7,138.7 145,133.4C147.7,122.3 152.9,112.6 161.2,104.7C162.6,103.4 163.3,103.1 165.2,103.1C165,105.1 164.9,106.9 164.6,108.7C163.5,114.5 160.9,119.7 157.5,124.6C156.7,125.8 155.7,126.8 155,128.1C154.6,128.9 154.5,130 154.7,130.8C155,131.9 156.1,131.9 157.1,131.8C163.8,131.4 169.9,129.1 175.8,126.2C182.7,122.8 189.1,118.7 194.8,113.6C199.2,109.6 203.1,105.2 205.7,99.8C205.9,99.5 206.1,99.1 206.5,98.6C207.4,100.8 207.3,102.8 207.1,104.9C206.5,112.3 203.3,118.7 199.3,124.8C197.7,127.3 196.2,129.9 194.7,132.5C194.1,133.5 194.5,134.5 195.8,134.5C198.3,134.5 200.7,134.3 203.2,133.9C208.9,133 214.3,131.3 219.5,128.7C224.6,126.2 229,122.8 232.9,118.8C237.7,113.9 242.2,108.7 245.8,102.8C245.9,102.7 246,102.6 246.6,102.2C246.4,105.3 246.3,107.9 246,110.5C245.2,116.4 242.8,121.7 240.5,127.1C240,128.3 238.9,129.4 238.3,130.6C237.9,131.3 237.7,132.4 237.9,133.1C238.3,134.1 239.4,134 240.4,133.8C251.1,132 260,126.6 268.6,120.3C275.9,114.9 281.3,107.9 285.9,100.2C286.9,98.5 287.2,98.3 289,99.1C292.6,100.8 295.5,103.5 298.1,106.4C302.8,111.8 307.7,117.1 310.6,123.8C312.1,127.3 313,131 314.3,134.6C315.8,138.8 315.8,143.3 316.1,147.7C316.5,152.1 316.9,156.6 315.8,160.9C314.9,164.6 313.7,168.2 312.3,171.7C308.4,181 301.8,188.4 294.1,194.7C286,201.4 276.7,206.4 267.2,210.7C259.1,214.4 250.6,216.4 241.9,217.8Z" style="fill:rgb(186,23,186);fill-rule:nonzero;"/>
    </g>
</svg>
